<svg xmlns="http://www.w3.org/2000/svg" width="18" height="18" fill="none"><path fill="#024840" d="M8.292.5H.854A.354.354 0 0 0 .5.854v7.438c0 .195.159.354.354.354h7.438a.354.354 0 0 0 .354-.354V.854A.354.354 0 0 0 8.292.5M8.292 9.354H.854a.354.354 0 0 0-.354.354v7.438c0 .195.159.354.354.354h7.438a.354.354 0 0 0 .354-.354V9.708a.354.354 0 0 0-.354-.354M17.146 9.354H9.708a.354.354 0 0 0-.354.354v7.438c0 .195.159.354.354.354h7.438a.354.354 0 0 0 .354-.354V9.708a.354.354 0 0 0-.354-.354M17.146.5H9.708a.354.354 0 0 0-.354.354v7.438c0 .195.159.354.354.354h7.438a.354.354 0 0 0 .354-.354V.854A.354.354 0 0 0 17.146.5"/></svg>