<svg xmlns="http://www.w3.org/2000/svg" width="362" height="320" fill="none"><path fill="#FFF5DB" d="M358.8 283.993c-3.005 8.675-8.659 31.19-26.629 32.93-7.136.689-28.224-1.571-63.325.38-27.621 1.535-69.578-.461-94.131-1.036-24.554-.575-83.626 1.148-110.288.569-27.156-.583-58.416 7.86-62.285-25.388-3.254-27.94.53-48.425 2.169-61.033 2.713-20.888.57-30.998.654-35.376.95-.379 347.282.19 349.09.19a123.1 123.1 0 0 0 2.684 36.577c3.123 12.264 5.444 42.431 2.061 52.187"/><path fill="#FFCEB6" d="M359.917 278.837a24.4 24.4 0 0 1-1.118 5.157c-3.005 8.674-8.659 31.192-26.628 32.929-9.265-8.348-33.052-29.068-45.663-33.353-15.881-5.395-34.689-9.253-39.464-12.951-4.776-3.697-10.024-7.862-12.489-10.177-2.464-2.315-7.092-4.468-8.636-6.629-1.545-2.161-3.391-6.476 1.698-7.709s12.488 4.472 16.186 7.092c3.698 2.621 13.107 9.866 9.716-.153s-9.253-11.565-12.951-14.492a22.04 22.04 0 0 0-14.518-7.051c-8.918-.426-14.42 3.395-17.956 1.346-3.537-2.049-4.596-4.099-1.907-5.725s8.837-6.433 11.241-6.64 14.28-2.689 17.319-1.063c3.04 1.626-1.707-4.31-4.665-6.572s-4.744-1.624-8.413-.85-10.462.639-11.172-1.341c-.709-1.981-1.624-2.901 1.708-4.666 3.332-1.764 11.803-6.64 16.467-5.303 4.664 1.338 9.335 2.334 11.314 4.241s3.252 4.95 5.936 4.314c2.685-.635 8.413.569 10.246 2.543 1.833 1.973.988-3.321-4.1-6.857-5.089-3.537-7.635-2.685-9.403-4.453s-4.174-4.121.282-4.947a38.5 38.5 0 0 1 13.851.281c2.705.715 8.27 5.375 10.959 9.119a94 94 0 0 0 13.713 16.402c6.072 5.301 13.572 20.428 19.442 25.379 5.871 4.95 4.876 1.91 10.39 7.422s24.53 13.008 29.833 15.694c3.011 1.52 11.775 5.696 18.782 9.013M78.384 281.992l-37.81 35.4c-18.129.273-34.176-2.106-37.975-22.889 9.003-7.197 46.119-35.015 46.119-35.015s21.737 11.89 26.213 17.265 3.453 5.239 3.453 5.239"/><path fill="#C5CDF3" d="M60.929 263.5a2.09 2.09 0 0 1-1.748 1.735 1.9 1.9 0 0 1-1.842-1.608 2.09 2.09 0 0 1 1.873-1.73 1.83 1.83 0 0 1 1.717 1.603"/><path fill="#B8D7FF" d="M64.095 255.215a2.63 2.63 0 0 1 1.858 2.404 2.48 2.48 0 0 1-2.34 2.113 2.3 2.3 0 0 1-2.106-2.087 3.35 3.35 0 0 1 2.588-2.43"/><path fill="#D3FFB0" d="M71.508 264.902a4.6 4.6 0 0 1-4.145 4.246 3.573 3.573 0 0 1-3.151-3.779 3.984 3.984 0 0 1 3.551-3.825 3.71 3.71 0 0 1 3.745 3.358"/><path fill="#B8D7FF" d="M74.817 255.551a3.554 3.554 0 0 1-3.001 3.57 3.6 3.6 0 0 1-3.575-3.271 4.15 4.15 0 0 1 3.467-3.741 3.65 3.65 0 0 1 3.11 3.442"/><path fill="#FFF59E" d="M63.22 246.508c1.061-.091 2.39 1.518 2.36 2.724a2.83 2.83 0 1 1-5.613-.265c.051-1.632 1.609-2.315 3.254-2.459"/><path fill="#FF9C9F" d="M53.321 252.437a3.64 3.64 0 0 1 3.3.137 3.62 3.62 0 0 1 1.823 2.753c-.169 2.707-1.457 4.174-3.795 4.267-3.58.155-5.026-4.827-1.328-7.157"/><path fill="#DDD" d="M87.583 270.832c1.44 2.172 2.077 2.728-.082 4.849a27.4 27.4 0 0 1-7.489 5.629 450 450 0 0 0-1.66-2.242c3.005-2.799 6.664-4.874 9.23-8.236M85.417 268.323c.516.606.716.558 0 1.452-2.123 2.624-6.8 5.853-8.448 7.458-.678-.789-1.328-1.544-2.017-2.349 3.305-2.971 8.259-7.724 8.655-8.171.596.508 1.685 1.466 1.81 1.61M79.866 263.223c.586.49 1.271 1.055 2.12 1.761-2.987 2.861-5.898 5.654-8.85 8.481-.846-.704-1.59-1.328-2.277-1.886z"/><path fill="#FFCEB6" d="M168.624 200.422c2.977.148 3.901.325 3.652 1.543-.84 4.087-6.149 4.328-10.31 4.009-13.427-1.029-32.444 5.8-37.661 9.228-2.975 1.953-2.319 6.654 2.534 1.862 1.769-1.746 11.479-4.474 15.058-5.385 10.858-2.766 9.974-.6 20.166 8.158a18 18 0 0 1 2.212 2.357c.399.493.232.772-.351 1.169-6.358 4.32-12.922-12.587-28.294 2.191a82.5 82.5 0 0 0-13.513 17.211c-1.488 2.728 1.56 4.521 4.14 3.51 9.414-3.689 9.984-4.484 13.522-8.062 4.112-4.161 9.453-11.477 12.642-7.612.586.708-.015 1.478-.416 1.998-6.029 7.847-6.729 14.507-12.361 18.309a39 39 0 0 0-5.035 4.089 42 42 0 0 1-5.216 3.305c-4.299 3.036-9.803 4.622-24.71 7.411-7.21 1.349-12.49 4.441-13.587 4.441a52.7 52.7 0 0 0-9.458-8.953c-1.328-.992 1.472-2.992-1.175-6.039-11.573-13.312-14.924-6.371-5.44-16.088 2.16-2.21 4.45-2.529 10.017-11.294 4.067-6.406 1.257-4.998 11.51-15.008 1.577-1.539 3.795-1.926 5.882-5.832.486-.909 4.895-6.262 4.933-6.294 2.205-2.705 4.996-3.491 8.462-6.124 2.408-1.831 2.778-1.38 10.521-.706a10.9 10.9 0 0 1-5.544 4.221c-3.131 1.378-13.264 8.127-10.993 10.121 1.339 1.176 2.931-.553 6.476-4.004 3.743-3.645 7.911-3.935 10.285-6.473 3.347-3.583 5.104-3.256 9.445-4.601a9.63 9.63 0 0 1 10.625 2.553q-.073.186-.143.37c-7.873 1.23-1.182-.611-18.737 7.096a24.5 24.5 0 0 0-10.474 7.69c-1.305 1.622.79 3.463 1.772 1.829 2.788-4.631 6.377-5.362 18.236-10.782 3.694-1.689 3.536-3.694 21.276-2.82 3.816.181 1.689.987 10.052 1.406"/><path fill="#fff" d="M46.275 257.207c.266 1.066.336 1.763-.1 2.125-.05.042-9.458 7.817-10.234 8.348-.68.461-.048.488-15.156.401-7.52-.042-9.72.286-10.246-3.036 0-.042-1.244-8.878-1.083-9.43 10.568 1.495 36.345-.305 36.82 1.592M342.449 257.342c-.379 3.51-.774 7.103-1.199 11.033-33.66-16.378-22.654-8.665 1.199-11.033M234.801 262.654c1.708 2.042 5.273 3.668 7.153 5.814-46.253 0-106.474-.636-111.092-.37-4.173.43-8.379.449-12.556.059-13.752-.277-12.712.546-12.798-.262 11.263-2.311 22.474-3.032 30.063-9.984a4.33 4.33 0 0 1 3.201-1.117c27.333 1.69 43.449-.076 84.535.409 5.867.069 5.683-1.531 11.494 5.451M252.408 256.605l-.251.217c-13.42-7.22-21.35-17.368-28.448-9.705-2.019 2.18-.08 4.527 1.449 7.32-3.36 0-53.394.535-84.127-.285 7.464-8.803 6.624-9.221 10.508-16.173.855-1.529 1.944-2.92 2.813-4.441 2.7-4.732-1.781-7.115-4.5-6.794-7.935.933-7.474 10.321-23.675 16.614-1.795.697-1.622.431-1.787.211a54.5 54.5 0 0 1 8.147-10.652c5.487-5.502 6.502-8.853 15.416-10.962 4.866-1.152 12.621 9.549 18.91 2.77a3.03 3.03 0 0 0 .108-3.499c19.423 0 17.52 1.161 43.965.529 4.375-.106-5.343 2.638-7.193 5.916-1.814 3.216 2.019 8.349 8.929 7.21 7.155-1.188 8.553-3.072 11.763-2.442 5.294 1.034 5.867.15 8.95 2.507 8.599 6.568 17.12 11.875 19.023 21.659M276.542 202.606c1.314 1.827 2.58 3.694 3.975 5.705-8.683.879-8.975 1.036-9.677-.135-2.982-4.957-3.239-5.103-3.481-5.798 8.894.002 8.964-.076 9.183.228"/><path fill="#fff" d="M297.008 203.323c5.072 8.079 12.574 14.361 9.107 14.59-7.373.492-17.501.674-24.893.706-1.821 0-6.796-5.925-7.959-7.308.38-.072.698-.161 1.013-.19 7.709-.664 7.529-.93 8.256.146 2.923 4.32 3.568 5.92 4.845 5.039 1.482-1.022-.569-2.975-2.834-6.236 7.589-.569 10.666.677 11.025-1.032.33-1.581-2.449-1.419-4.068-1.4a25 25 0 0 0-7.05.227c-1.708.516-1.653-.146-5.474-5.931 6.322 0 9.422.894 9.323-.91-.045-.805-.597-1.124-1.371-1.139-9.347-.097-9.417 0-9.908-.569-1.518-1.708-1.96-3.322-3.197-2.539-1.102.699-.055 1.854.949 3.452-9.218 0-8.779.074-9.202-.222-7.927-5.546-7.032-4.909-7.239-5.279 7.4-.303 10.589-.019 21.954-.03 7.238 0 9.466-.647 11.953 2.656 1.537 2.047 3.429 3.827 4.77 5.969M253.814 209.011c-11.625-3.605-6.286 2.71-12.919-5.339 6.428-.531 10.413 1.102 12.919 5.339M193.132 194.92c62.232 1.294 43.428-3.119 45.947 3.148a30 30 0 0 0 1.581 3.225 16.2 16.2 0 0 1-7.59-1.138c-5.775-3.082-13.471.404-14.021.203-2.438-.879-20.111-.3-21.965-.19-.744.04-.685.057-1.425-2.647-.321-1.167-1.755-1.368-1.954.19-.171 1.345.994 2.565-.49 2.643-8.259.434-5.709-.19-10.932-.19.239-2.243.474-2.624-.472-2.967-1.416-.511-1.454 1.282-1.846 3.071h-4.835c-1.201-2.231-3.428-2.553-5.806-2.717-10.084-.686-6.386-1.766-13.435-1.451-2.026.089-4.06.019-6.082.019-.513-2.203-4.666-1.121 39.341-1.518 1.326.004 2.654.289 3.984.319M196.914 202.382c35.066 0 8.538-1.29 11.511 7.867-3.347-.139-6.652-.274-10.088-.412q-.65-3.41-1.423-7.455M194.577 202.64c.474 2.423.949 4.834 1.444 7.388-5 .602-9.838-.434-15.023-.214 1.178-9.432-.165-7.077 6.071-7.02 2.548.03 4.104-.154 7.508-.154"/><path fill="#fff" d="M227.428 212.324c-.714-.62-3.985.436-4.859.732-7.25 2.482-13.837-1.493-23.848-.542.258 3.293 1.402 3.952.19 6.048-.127.215-.949.033-1.193-.096-.621-.418-.668-1.395-1.446-5.713l-15.693-.605c-.19 2.777-.237 4.195-.394 4.933a1.085 1.085 0 0 1-1.673.652 1.08 1.08 0 0 1-.414-.556 11.25 11.25 0 0 1 .254-4.777c-3.036 0-2.453-.112-6.686-.344-3.398-.189-2.015.333-3.579-.815a2.34 2.34 0 0 1 1.882-1.215 32 32 0 0 1 7.21.086c2.18.539 1.78-1.224 2.326-7.544-4.221-.603-4.052-.708-4.965 1.503-2.772 6.726-12.241 4.673-21.193 4.673.269.404 7.942 6.887 11.194 9.581.727.6 1.548.207 10.096.338 13.939.218 1.696.478 19.368.713 31.988.456 16.041-1.633 38.895-1.633-.885-1.254.003-.678-5.472-5.419M102.124 202.536c-5.711 7.932-1.975 6.714-14.72 6.714 3.683-7.589 2.901-6.83 5.174-6.671 1.133.076-.076-.043 9.546-.043M88.28 202.348c-4.8 10.012-1.665 6.476-11.279 6.83-2.25.084-4.511-.151-6.752-.25 3.428-6.808 3.212-6.8 4.255-6.819 7.575-.139 9.318.053 13.777.239"/><path fill="#fff" d="M95.68 194.73c-13.091-.509-27.98-.19-28.62-.023-6.552 1.651-.48-7.194-19.336 19.654-5.55 7.903-4.53 2.404 39.033 4.349.773.034 1.067-.928 3.3-3.517 3.834-4.452 4.707-3.192-2.617-3.283-2.115-.026-2.403 3.053-3.134 4.698-.668 1.503-1.838 1.171-2.059.063a6.4 6.4 0 0 1 1.06-4.11c.099-.18.163-.377.189-.581-2.55-.31-5.12-.417-7.686-.32-9.03-.368-6.671-.932-10.26 4.815-.42.67-.771 1.205-1.574.852-1.451-.643-.284-2.15 1.88-5.777-2.303-.38-4.506-.742-6.703-1.16a.861.861 0 0 1-.277-1.618c2.668-.666.995-.216 6.529.247 2.485.206 2.385-.164 5.899-7.096-8.563-.826-10.94-.704-9.45-2.304 1.1-1.178 2.716-.307 4.553-.265 6.64.151 6.47.189 6.927-.621.622-1.093 1.495-2.804 2.573-2.332 1.315.57.25 1.719-.721 3.391 17.163 0 12.757 1.62 15.493-2.723.713-1.138 2.156-.03 1.61 1.051-.322.642-.568 1.329-.893 2.127 1.518 0 2.879.046 4.226-.011 8.437-.362 7.805 1.114 8.672-.127 4.924-7.07 13.297-4.529-8.614-5.379"/><path fill="#fff" d="M341.866 251.255a3.11 3.11 0 0 1-.58 2.561 3.1 3.1 0 0 1-2.337 1.198c-30.527.034-21.616 1.328-31.305-6.102-2.77-2.121-5.182-1.417-8.794-6.929-13.532-20.65-14.439-18.425-15.841-20.87 2.565 0 23.451.019 25.513-1.448 3.085-2.195.123-4.846-2.288-8.02-17.266-22.715-11.445-19.127-31.993-19.25-.045 0-115.11-.38-125.399.043-3 .124-1.448-2.265-8.917-2.904-2.609-.224-4.554.778-10.902 2.538-1.357.38-.072-.903-4.364-1.301-6.961-.649-7.866-.228-9.523.998-3.001 2.22-1.039-1.002-49.615.558-5.274.168-2.424-3.907-22.15 23.853a2.9 2.9 0 0 0-.635 2.896 2.91 2.91 0 0 0 2.234 1.949c12.503.484 8.928 0 12.065-.019 7.993-.03 10.462.245 12.533.222 1.072-.011 2.142-.258 3.214-.254 3.531.013 11.98.144 12.84.144-8.379 13.689-7.905 12.215-10.865 14.845-8.207 7.297-7.253 6.565-7.576 6.741-1.844 1.006-3.305-2.745-8.636.975-10.913 7.614-9.95 11.895-13.12 11.585-11.41-1.111-9.993-.379-25.517-1.25-10.86-.03-11.9.152-7.477-6.494 1.178-1.773 43.936-58.992 43.968-59.03 2.884-3.561 5.407-2.671 16.44-2.538 30.12.362 219.539-.803 219.577-.803 4.326.087 5.373 1.666 11.718 9.676 5.515 6.958 33.076 43.599 37.732 56.43M295.383 10.263c1.076 17.786 1.465 153.213.455 163.428-.489 4.942-2.392 9.272-6.946 9.469-12.765.554-189.265.131-216.417.662-16.981.333-18.901-3.14-18.533-20.242.24-11.175-.133-128.985.38-145.889.143-4.743-.177-7.779 1.138-10.093 1.576-2.763 5.238-4.406 11.43-4.943 3.164-.273-14.525-4.128 215.604-.121 5.875.102 12.492 1.167 12.889 7.73m-5.811 109.218c.491-27.682-.621-23.857-.124-36.839.879-23.035.609-23.832-.178-60.116-.087-4.076-.127-5.385-7.531-5.927-12.332-.907-103.214 0-110.881.096-3.161.042-95.774-.652-100.922-.47-13 .457-10.6 4.098-10.982 25.947-.165 9.464.316 107.078.316 107.121.054 21.229.138 24.062 4.896 24.03 155.854-1.038 213.278-.733 213.278-.482 15.135-.002 11.095 4.667 12.128-53.36M171.113 13.261c3.166.898 4.53-3.24 2.261-5.517-3.155-3.165-7.335 4.085-2.261 5.517"/><path fill="#E4FD6F" d="M172.711 70.065c.252.793.161 1.254-.736 1.286-.609.023-5.373.014-5.994 0-1.174-.01-1.265-.42-.986-1.294.379-1.16 1.066-3.936 1.675-5.616a.29.29 0 0 0-.142-.355 3.244 3.244 0 0 1 .121-5.471 3.25 3.25 0 0 1 2.085-.442c2.467-.036 3.605.948 3.892 3.035a2.805 2.805 0 0 1-1.448 2.875.287.287 0 0 0-.142.355c.599 1.694 1.303 4.468 1.675 5.627"/><path fill="#E4FD6F" d="M187.117 48.646c3.053 3.47 4.715 10.102 4.119 15.668-1.281 11.937-8.942 20.901-22.66 20.681-10.04-.165-17.586-5.153-21.105-14.818-2.266-6.225-2.087-13.761 1.603-18.838a34.7 34.7 0 0 1 6.094-6.537c5.043-4.103 8.728-5.24 17.539-4.553 5.944.442 11.754 5.377 14.41 8.397m-7.28 26.481c.823-.051 1.357-.582 1.125-2.073-.47-3.036-1.988-15.748-2.066-16.149-.317-1.675-.379-1.371-2.939-1.495-.334-.015-.313-.134-.357-.734-.406-5.565-3.212-7.705-6.684-7.675-4.519.042-6.479 3.11-6.811 7.675-.063.87.123.72-1.898.823-.696.036-1.258.073-1.394 1.406-.036.355-1.192 10.255-1.825 14.832-.255 1.833-.82 3.377 1.726 3.415 4 .074 21.123-.025 21.123-.025"/><path fill="#fff" d="M93.507 126.121c1.294 1.139 1.032.759 3.594-2.202a.1.1 0 0 1 .037-.024.07.07 0 0 1 .078.031.07.07 0 0 1 .012.042 57 57 0 0 0-.12 3.66c0 .715.43.546 1.19.613a8.3 8.3 0 0 0 1.876-.059c.404-.089.547-.042.535-.674-.015-.855.042-2.276-.057-3.559a.07.07 0 0 1 .007-.04.07.07 0 0 1 .031-.028.06.06 0 0 1 .041-.002.06.06 0 0 1 .033.022c2.562 3.002 2.435 3.45 3.736 2.302 1.152-1.017 1.605-1.36 1.442-1.992a16.5 16.5 0 0 0-2.567-2.501c-.131-.102-.277-.18-.357-.258s-.058-.235.154-.22q1.872.154 3.749.072c.243-.011.569.104.643-.379a8.3 8.3 0 0 0-.045-2.467c-.078-.332-.089-.491-.38-.527-1.442-.19-4.35.155-3.963-.313.228-.277 1.305-.786 2.711-1.884 1.076-.839 1.268-1.074.662-1.829-1.734-2.169-1.664-2.07-2.356-1.676a31 31 0 0 0-3.117 2.446.13.13 0 0 1-.071.028.13.13 0 0 1-.075-.014.14.14 0 0 1-.055-.052.14.14 0 0 1-.018-.074c.116-3.945.224-3.998-.482-4.165a19 19 0 0 0-2.885 0c-.69.163-.6.163-.482 4.165a.14.14 0 0 1-.018.074.14.14 0 0 1-.055.052.13.13 0 0 1-.075.014.13.13 0 0 1-.07-.028 31 31 0 0 0-3.118-2.446c-.793-.451-.683-.332-2.358 1.676-.619.743-.412.99.664 1.829 1.406 1.098 2.33 1.607 2.558 1.884.09.112-.056.22-.205.223a27 27 0 0 0-3.848.076c-.273.067-.359.279-.38.617q.015 1.173.177 2.336c0 .497.497.493.74.512a16.6 16.6 0 0 0 3.686-.156c.209-.041.236.148.154.22s-.226.156-.357.258c-.903.71-1.723 1.52-2.443 2.416-.162.641.296.979 1.447 2.001m25.377 0c1.296 1.139 1.034.759 3.595-2.202a.1.1 0 0 1 .037-.024.1.1 0 0 1 .044.003.1.1 0 0 1 .035.028.07.07 0 0 1 .011.042 54 54 0 0 0-.119 3.66c0 .715.43.546 1.189.613a8.3 8.3 0 0 0 1.877-.059c.404-.089.548-.042.535-.674-.017-.855 0-2.276-.061-3.559a.07.07 0 0 1 .009-.039.06.06 0 0 1 .031-.027.07.07 0 0 1 .04-.003.1.1 0 0 1 .034.021c2.559 3.002 2.436 3.45 3.738 2.302 1.151-1.017 1.605-1.36 1.44-1.992a16.5 16.5 0 0 0-2.565-2.501c-.131-.104-.277-.18-.359-.258s-.057-.235.154-.22q1.87.157 3.745.078c.247-.012.582.104.647-.38.117-.819.1-1.652-.049-2.466-.067-.334-.09-.494-.367-.528-1.436-.189-4.348.156-3.969-.313.23-.281 1.311-.785 2.717-1.884 1.074-.838 1.283-1.085.662-1.829-1.694-2.032-1.576-2.119-2.356-1.675a30.5 30.5 0 0 0-3.115 2.446.139.139 0 0 1-.147.012.14.14 0 0 1-.077-.124c.064-3.822.292-3.985-.478-4.165a19 19 0 0 0-2.884 0c-.71.167-.606.218-.482 4.165a.15.15 0 0 1-.02.074.13.13 0 0 1-.057.052.13.13 0 0 1-.076.014.13.13 0 0 1-.071-.028 32 32 0 0 0-3.108-2.446c-.712-.404-.638-.476-2.358 1.675-.606.759-.412.991.662 1.829 1.406 1.099 2.33 1.607 2.559 1.884.091.112-.055.22-.205.224a27 27 0 0 0-3.847.076c-.276.066-.359.279-.38.617.006.781.065 1.562.177 2.335 0 .497.497.494.74.513 1.23.084 2.467.032 3.686-.156.207-.042.235.148.154.22-.082.072-.228.156-.359.258-.903.71-1.722 1.52-2.442 2.415-.176.636.285.974 1.433 1.996m145.211-18.612c.358 7.447.499 15.789.309 20.301-.074 1.744.285 4.523-1.518 4.846-3.47.618-173.95.533-174.145.527-4.49-.129-4.301-1.178-4.383-4.718-.13-5.525-.08-18.298.2-21.651.166-2.001 1.056-1.998 3.17-2.121 5.005-.294 17.774-.446 42.866-.277 63.809.425 42.016-.324 91.248-.19 8.173.023 37.692.078 39.322.19 2.969.192 2.821.814 2.931 3.093m-56.237 19.297a7.6 7.6 0 0 0-.051-2.466c-.064-.338-.087-.494-.366-.531-.981-.135-15.797-.215-16.657 0-.273.064-.358.277-.379.616q.011 1.173.178 2.334c0 .493.494.487.738.508.915.078 14.947-.017 15.894-.077.234-.021.571.102.643-.384m-24.769 0a8.2 8.2 0 0 0-.047-2.466c-.076-.336-.088-.494-.38-.531-.977-.133-15.797-.213-16.653 0-.277.066-.362.277-.389.616q.02 1.173.19 2.334c0 .493.493.487.734.508.915.078 14.947-.017 15.9-.077.239-.021.575.102.641-.384zm-24.766 0a7.6 7.6 0 0 0-.051-2.466c-.064-.338-.087-.494-.366-.531-.981-.135-15.797-.215-16.657 0-.273.064-.356.277-.379.616q.011 1.173.178 2.334c0 .493.493.487.736.508.913.078 14.946-.017 15.898-.077.233-.021.571.102.637-.384z"/><path fill="#024840" d="M286.889 23.357c.101 3.906.59 77.109-.297 132.432-.241 15.014 2.208 14.729-11.938 14.521-25.842-.38-181.128-.021-199.687.379-12.999.283-12.587-.093-12.64-2.846-.611-31.653-1.13-131.446-.465-145.283.23-4.804 7.242-3.675 28.46-3.474 2.087.019 4.187-.22 6.278-.179 34.491.699 142.834-.538 185.65.139a4.26 4.26 0 0 1 4.639 4.31m-20.521 106.382c.171-7.284.023-20.851-.258-23.587s-.708-2.899-2.393-3.355c-3.145-.852-119.39-.178-119.582-.176-60.628.419-61.084-1.696-61.585 3.69-.243 2.618-.21 18.753-.157 22.4.072 4.92.178 5.656 4.348 6.174 4.531.569 172.19.256 175.922-.072 3.787-.334 3.633-2.002 3.705-5.074m-78.359-51.115a28.1 28.1 0 0 0 5.032-23.39c-1.645-7.893-8.159-12.422-12.955-15.316-4.797-2.893-16.304-3.82-23.576.663a27.9 27.9 0 0 0-11.656 14.406 24.563 24.563 0 0 0 24.184 32.311c8.761-.136 15.078-3.058 18.969-8.674z"/><path fill="#E4FD6F" d="M170.615 55.435c.462-.01 1.459.112 1.434-.429-.099-2.102-.395-4.045-2.497-4.491a3.3 3.3 0 0 0-1.398 0c-2.104.448-2.399 2.381-2.497 4.491-.025.54.971.42 1.434.429.524.01 3 .01 3.524 0"/><path fill="#000001" d="M360.229 277.812c.353.199.642.495.834.852.191.358.276.762.246 1.167-1.008 2.422-1.898 1.407-17.213-6.201-7.547-3.749-24.267-11.625-31.247-16.482-1.63-1.138-5.257-5.123-7.932-6.337-6.239-2.846-7.724-5.523-16.19-18.525-6.501-9.984-11.157-8.931-22.69-25.84-2.435-3.571-.839-3.339-6.571-7.504a12.96 12.96 0 0 0-7.982-2.703c-6.938-.226-1.861-.909-9.01.554-1.368.28.531 2.643 2.003 3.324 4.298 1.99 7.561 1.049 11.864 6.976 10.272 14.15 6.603 8.771 8.421 11.183.979 1.298-.949 2.4-1.994 1.719-4.376-2.846-7.574-8.36-15.078-9.553 8.987 11.384 5.248 7.386 9.515 11.209.408.366 1.056.543.871 1.317-.219.909-.524 1.129-1.418.841-3.794-1.222-5.231-4.825-10.805-11.075-1.18-1.328-2.687-2.341-4-3.544a26 26 0 0 0-4.379-4.174c-12.651-5.85-15.558-2.657-23.595 1.675-1.897 1.023-3.629 2.396-1.629 3.237 5.039 2.115 7.02.831 11.687-.456 4.076-1.121 5.662.264 10.929 5.624 5.122 5.214 3.625 4.793 6.815 6.576 6.991 3.91 7.179 3.732 7.515 4.704.56 1.622-.968 1.593-1.313 1.428-18.244-8.676-13.583-7.887-25.834-7.13-3.984.247-4.411 1.275-13.112 6.607-2.503 1.534-3.632 1.707-1.675 3.618 2.542 2.487 5.75 1.138 12.827-1.057 2.431-.759 2.588-.292 9.392.47 2.996.336 4.675 1.769 13.945 8.952a36 36 0 0 1 5.138 4.203c6.569 7.441 6.502 10.509 7.058 14.766.173 1.329-1.675 2.494-2.925 2.002-13.356-5.255-18.974-15.524-26.035-12.306-2.657 1.209-.12 4.582 2.466 5.967 5.829 3.121 5.975 6.072 10.367 9.083 8.159 5.608 5.743 7.209 21.582 11.653 5.673 1.59 2.066-.292 16.44 4.271 7.643 2.426 18.025 3.303 57.679 37.971.929.812.379 1.884-.569 2.671-1.099.915-1.171.733-6.072-3.225-13.3-10.737-31.913-27.276-43.025-31.471-18.114-6.83-33.429-8.092-39.943-13.414-1.168-.949-4.056-.435-6.931-.379-28.15.519-68.132.125-81.924.1-.038 0-58.627-.913-59.818-.285-4.448 2.325-4.72 2.547-4.863 3.086-.619 2.367-2.294 3.195-6.261 6.629-2.814 2.432-4.24 3.375-7.21 3.768-.19-.266-28.727 27.433-32.949 31.357-2.59 2.779-5.275 3.102-6.202 2.428-.351-.256-1.266-.569.607-2.276 6.28-5.713 30.338-27.102 36.648-34.469-.03-.042-7.033-8.868-8.486-8.236a6.68 6.68 0 0 1-6.525-.801c-10.95-6.908-12.488-11.788-13.86-10.763-4.347 3.246-9.866 8.02-26.071 20.111-14.945 11.149-18.3 15.761-19.381 14.293-.38-.516-.746-1 .448-2.294 5.284-4.984 23.392-17.896 29.264-23.193a15 15 0 0 0-2.019-.292c-23.428-.142-21.08 1.844-22.823-10.739-.992-7.151-1.113-7.352 12.676-26.238.032-.042 27.462-36.009 27.933-37.015-1.245-.19-43.639.258-44.825-.201-1.766-.689-.666-1.679-.453-1.745 2.776-.854 2.774-.336 16.095-.416 4.46-.027 8.917-.218 13.378-.228 26.386-.057 12.974 2 25.51-8.854-2.898-1.518-5.025-3.691-5.693-9.212-1.138-9.515-.081-33.161-.548-106.388 0-.038.776-53.858.636-57.089C51.22-4.568 72.118.94 120.524.638c153.178-.96 144.632-.5 145.002-.5 15.545-.014 26.891-.775 30.669 4.682 2.603 3.762 1.897 6.25 1.99 11.604.605 31.063.855 152.812.163 158.5-.6 4.92-1.954 6.768-3.349 8.064a19.85 19.85 0 0 1 9.72 8.866c.289.539.454.294 1.679 1.723 47.031 0 52.176-1.75 51.928.823-.19 1.897.095 1.689-50.372 1.689 4.364 6.333 17.042 21.557 29.925 42.5 8.649 14.064 7.667 14.954 6.043 28.848-.24 2.049-.739 1.911 1.045 2.759 1.068.512 1.899 1.734 15.262 7.616m-18.973-9.43c.425-3.929.818-7.523 1.199-11.033-23.859 2.362-34.865-5.35-1.205 11.033zm-2.3-13.368a3.11 3.11 0 0 0 2.337-1.198 3.1 3.1 0 0 0 .579-2.561c-4.656-12.831-32.216-49.472-37.72-56.426-6.345-8.016-7.4-9.595-11.718-9.676-.038 0-189.457 1.164-219.576.802-11.033-.133-13.557-1.023-16.44 2.539-.033.038-42.79 57.257-43.97 59.029-4.422 6.641-3.382 6.379 7.478 6.495 12.272.131 16.082.273 25.724.14 3.186-.046 2-2.861 12.913-10.475 5.332-3.721 6.793.03 8.637-.975.322-.177-.632.556 7.576-6.742 2.96-2.629 2.485-1.155 10.864-14.844-.86 0-9.308-.131-12.84-.144-1.071 0-2.141.243-3.213.254-2.072.023-4.54-.252-12.534-.222-3.136.011.438.503-12.065.019a2.91 2.91 0 0 1-1.6-4.846c19.733-27.76 16.877-23.684 22.152-23.853 48.571-1.56 46.613 1.662 49.614-.558 1.657-1.225 2.562-1.647 9.523-.998 4.284.399 3 1.678 4.364 1.302 6.341-1.761 8.293-2.763 10.902-2.539 7.47.64 5.918 3.036 8.917 2.905 10.289-.425 125.354-.044 125.4-.044 20.548.124 14.732-3.464 31.992 19.251 2.412 3.174 5.373 5.824 2.288 8.02-2.062 1.466-22.948 1.447-25.513 1.447 1.402 2.448 2.309.222 15.841 20.871 3.605 5.511 6.024 4.807 8.794 6.929 9.672 7.418.755 6.132 31.289 6.098zm-32.823-37.1c3.462-.23-4.04-6.512-9.107-14.591-1.342-2.138-3.226-3.922-4.765-5.952-2.491-3.301-4.718-2.656-11.953-2.656-11.365.011-14.55-.273-21.954.03.207.38-.688-.267 7.239 5.279.423.296-.015.222 9.202.222-1.002-1.598-2.049-2.753-.949-3.452 1.237-.783 1.685.83 3.197 2.539.491.556.569.463 9.908.569.774 0 1.328.327 1.372 1.139.098 1.804-3.002.91-9.324.91 3.821 5.785 3.768 6.451 5.474 5.931a25 25 0 0 1 7.05-.227c1.619-.019 4.398-.181 4.068 1.4-.358 1.708-3.428.472-11.025 1.032 2.261 3.262 4.316 5.214 2.834 6.237-1.276.88-1.922-.72-4.845-5.04-.727-1.075-.547-.81-8.256-.146-.314.027-.628.116-1.013.19 1.163 1.383 6.138 7.316 7.96 7.308 7.373-.049 17.495-.231 24.873-.722zm-10.282-44.223c1.01-10.215.622-145.642-.455-163.428-.397-6.562-7.02-7.524-12.877-7.73 0 0-211.487-.235-215.606.122-6.19.537-9.852 2.18-11.43 4.943-1.327 2.322-1.003 5.346-1.138 10.093-1.19 39.085.47 106.322-.379 145.889-.368 17.102 1.552 20.575 18.533 20.243 27.153-.532 203.65-.111 216.417-.663 4.529-.193 6.432-4.527 6.922-9.469zm-15.325 34.62c-1.394-2.011-2.656-3.876-3.974-5.705-.219-.306-.289-.228-9.187-.228.243.695.499.841 3.481 5.798.697 1.164.989 1.012 9.68.135m-28.359 48.511.251-.216c-1.898-9.785-10.424-15.092-19.013-21.662-3.083-2.357-3.656-1.472-8.95-2.507-3.225-.629-4.618 1.255-11.763 2.442-6.91 1.139-10.743-3.984-8.929-7.209 1.85-3.279 11.574-6.023 7.193-5.916-26.445.631-24.542-.53-43.965-.53a3.04 3.04 0 0 1-.108 3.499c-6.29 6.779-14.04-3.92-18.911-2.77-8.917 2.108-9.928 5.464-15.415 10.963a54.5 54.5 0 0 0-8.147 10.651c.165.22 0 .486 1.787-.21 16.201-6.294 15.748-15.682 23.675-16.615 2.718-.321 7.209 2.062 4.5 6.794-.869 1.518-1.958 2.912-2.814 4.442-3.884 6.951-3.035 7.369-10.507 16.172 30.736.82 80.767.285 84.127.285-1.529-2.793-3.468-5.14-1.45-7.32 7.089-7.661 15.01 2.488 28.43 9.707zm-11.262-53.15c6.64 8.049 1.294 1.734 12.919 5.339-2.516-4.236-6.501-5.87-12.929-5.339zm-1.816-5.608c-2.52-6.261 16.281-1.854-45.947-3.148-1.328-.026-2.657-.311-3.985-.3-44.006.38-39.843-.692-39.34 1.518 2.022 0 4.056.07 6.082-.019 7.049-.315 3.351.759 13.435 1.452 2.378.163 4.605.485 5.806 2.717h4.829c.392-1.79.43-3.582 1.846-3.072.948.343.711.725.472 2.967 5.224 0 2.674.623 10.933.19 1.483-.078.318-1.298.489-2.643.199-1.567 1.634-1.366 1.954-.19.74 2.704.681 2.687 1.425 2.647 1.86-.104 19.527-.683 21.965.19.554.201 8.246-3.284 14.022-.203a16.2 16.2 0 0 0 7.589 1.138 29 29 0 0 1-1.584-3.244zm2.871 70.39c-1.881-2.146-5.455-3.772-7.153-5.813-5.808-6.977-5.624-5.377-11.5-5.445-41.092-.486-57.202 1.28-84.535-.41a4.33 4.33 0 0 0-3.201 1.125c-7.577 6.952-18.783 7.673-30.055 9.989.085.809-.949-.015 12.797.262a64.2 64.2 0 0 0 12.555-.07c4.618-.266 21.106.503 26.475.489 9.028-.022 84.607-.119 84.607-.119zm-9.056-50.713c-.879-1.252 0-.666-5.466-5.417-.716-.619-3.985.434-4.859.732-7.252 2.467-13.838-1.495-23.848-.542.258 3.293 1.41 3.958.19 6.048-.038.065-.19.093-.379.095a1.7 1.7 0 0 1-.816-.189c-.621-.418-.668-1.395-1.446-5.713l-15.693-.606c-.353 5.178-.172 5.757-1.425 5.759-1.897 0-1.172-3.336-.806-5.502-3.036 0-2.453-.11-6.686-.344-1.584-.087-2.129-.021-2.417-.042-2.099-.149-.661-2.018.721-1.988a32 32 0 0 1 7.209.085c2.18.539 1.78-1.225 2.327-7.543-4.222-.604-4.053-.708-4.966 1.502-2.774 6.726-12.241 4.673-21.193 4.673.27.405 7.942 6.89 11.194 9.582.727.599 1.549.205 10.096.338 13.714.212 2.22.476 19.368.713 31.848.431 16.167-1.641 38.895-1.641m-24.476-7.493c-2.976-9.156 23.556-7.866-11.511-7.866q.777 4.04 1.423 7.455c3.433.138 6.738.273 10.088.411m-12.404-.22c-.501-2.554-.97-4.965-1.444-7.388-3.402 0-4.958.19-7.508.158-6.236-.061-4.893-2.416-6.071 7.02 5.181-.224 10.02.812 15.019.21zm-23.743-8.071c.248-1.218-.676-1.396-3.653-1.542-8.363-.412-6.236-1.217-10.055-1.406-17.74-.879-17.583 1.138-21.277 2.819-11.858 5.421-15.448 6.151-18.235 10.783-.983 1.633-3.077-.207-1.772-1.83a24.5 24.5 0 0 1 10.473-7.689c17.556-7.707 10.864-5.867 18.738-7.096q.07-.186.142-.37a9.63 9.63 0 0 0-10.625-2.554c-4.341 1.345-6.098 1.019-9.445 4.601-2.373 2.539-6.541 2.829-10.285 6.474-3.544 3.451-5.136 5.179-6.475 4.003-2.277-1.994 7.862-8.743 10.993-10.12a10.9 10.9 0 0 0 5.544-4.222c-7.743-.673-8.113-1.125-10.521.706-3.466 2.633-6.261 3.415-8.462 6.124-.032.038-4.442 5.385-4.933 6.294-2.087 3.906-4.298 4.293-5.882 5.832-10.245 10.01-7.443 8.603-11.51 15.008-5.567 8.766-7.858 9.084-10.017 11.295-9.486 9.716-6.126 2.776 5.44 16.087 2.656 3.047-.148 5.047 1.174 6.039a52.7 52.7 0 0 1 9.459 8.954c1.096 0 6.37-3.093 13.586-4.442 14.907-2.789 20.411-4.364 24.711-7.411a42 42 0 0 0 5.216-3.305 39 39 0 0 1 5.035-4.089c5.631-3.794 6.331-10.462 12.361-18.309.4-.52 1.002-1.29.416-1.998-3.19-3.865-8.538 3.452-12.642 7.612-3.539 3.579-4.108 4.374-13.522 8.062-2.581 1.011-5.628-.782-4.14-3.51a82.5 82.5 0 0 1 13.512-17.211c15.369-14.778 21.937 2.129 28.295-2.191.582-.397.749-.675.351-1.169a18 18 0 0 0-2.212-2.356c-10.193-8.758-9.309-10.925-20.167-8.159-3.578.911-13.281 3.639-15.057 5.385-4.853 4.793-5.502.091-2.535-1.861 5.227-3.429 24.235-10.257 37.662-9.229 4.161.319 9.464.076 10.31-4.009zm-67.991-1.85c4.933-7.067 13.304-4.527-8.606-5.379-13.091-.508-27.978-.189-28.62-.022-6.55 1.65-.479-7.195-19.336 19.654-5.527 7.872-4.634 2.427 39.033 4.348.772.035 1.066-.927 3.3-3.517 3.834-4.451 4.705-3.191-2.617-3.283-3.072-.037-2.29 6.518-4.622 5.624-1.263-.484-.343-3.984.488-4.973.1-.179.164-.376.19-.58-2.55-.31-5.12-.418-7.686-.321-9.03-.366-6.671-.932-10.261 4.815-.425.68-.77 1.207-1.573.852-1.453-.643-.285-2.149 1.88-5.777-2.303-.379-4.506-.742-6.703-1.159a.863.863 0 0 1-.277-1.619c2.668-.666.994-.216 6.529.247 2.485.207 2.385-.161 5.898-7.096-8.564-.823-10.94-.704-9.45-2.303 1.099-1.179 2.717-.308 4.554-.266 6.64.152 6.47.19 6.927-.62.622-1.093 1.495-2.805 2.572-2.332 1.315.569.25 1.719-.72 3.39 17.16 0 12.757 1.621 15.493-2.722.713-1.139 2.155-.031 1.61 1.051-.322.639-.569 1.328-.893 2.127 1.518 0 2.878.045 4.225-.012 8.426-.362 7.795 1.112 8.662-.127zm-16.886 9.143c12.745 0 9.009 1.218 14.72-6.714-9.618 0-8.413.119-9.546.043-2.273-.155-1.49-.914-5.174 6.671m.097 66.431c2.16-2.121 1.518-2.677.082-4.849-2.565 3.364-6.225 5.439-9.23 8.236.593.797 1.138 1.518 1.66 2.243a27.4 27.4 0 0 0 7.488-5.63m-2.087-5.906c.723-.894.524-.846 0-1.452-.121-.144-1.214-1.102-1.818-1.61-.396.447-5.35 5.2-8.655 8.171.688.805 1.34 1.56 2.017 2.349 1.652-1.605 6.33-4.834 8.452-7.458zm-8.413-60.593c9.614-.359 6.48 3.178 11.28-6.83-4.459-.19-6.203-.38-13.777-.236-1.043.019-.827.012-4.255 6.819 2.24.095 4.502.331 6.752.247m4.984 55.798c-.847-.705-1.532-1.271-2.119-1.76l-8.993 8.352c.68.569 1.423 1.182 2.277 1.886a8261 8261 0 0 1 8.835-8.478m-10.17-5.859a3.55 3.55 0 0 0 3.002-3.57 3.656 3.656 0 0 0-3.11-3.442 4.144 4.144 0 0 0-3.466 3.741 3.606 3.606 0 0 0 3.58 3.271zm-4.452 10.028a4.6 4.6 0 0 0 4.146-4.246 3.71 3.71 0 0 0-3.746-3.359 3.985 3.985 0 0 0-3.552 3.825 3.57 3.57 0 0 0 3.152 3.78m-1.41-11.53a2.63 2.63 0 0 0-1.857-2.404 3.34 3.34 0 0 0-2.588 2.434 2.3 2.3 0 0 0 2.106 2.087 2.48 2.48 0 0 0 2.34-2.117m-.38-8.386c.031-1.2-1.297-2.816-2.358-2.725-1.652.144-3.202.825-3.254 2.467a2.83 2.83 0 1 0 5.618.258zm-6.397 16.002a2.09 2.09 0 0 0 1.747-1.735 1.83 1.83 0 0 0-1.717-1.603 2.09 2.09 0 0 0-1.872 1.731 1.895 1.895 0 0 0 1.848 1.607zm-.748-9.908a3.64 3.64 0 0 0-1.82-2.748 3.623 3.623 0 0 0-3.293-.142c-3.696 2.33-2.252 7.312 1.328 7.157 2.334-.101 3.622-1.56 3.791-4.267zm-12.258 4.005c.436-.362.412-1.283.144-2.349-.125-.503-2.129-.258-5.066-.379-8.122-.313-24.044.102-31.804-.996-.162.552 1.075 9.387 1.083 9.429.533 3.319 2.734 2.99 10.245 3.036 15.109.087 14.477.061 15.156-.4.793-.526 10.198-8.299 10.248-8.341z"/><path fill="#000001" d="M289.443 82.643c-.497 12.98.615 9.156.123 36.838-1.032 58.029 3.008 53.36-12.127 53.36 0-.25-57.424-.556-213.278.482-4.758.032-4.842-2.801-4.897-24.03 0-.043-.48-97.657-.315-107.12.38-21.85-2.018-25.49 10.982-25.948 5.148-.19 199.465-.533 211.803.38 7.4.542 7.443 1.851 7.531 5.927.791 36.28 1.06 37.075.178 60.11m-2.846 73.143c.888-55.32.397-128.522.298-132.433a4.25 4.25 0 0 0-1.357-3.189 4.26 4.26 0 0 0-3.278-1.125c-42.817-.678-151.159.56-185.65-.139-2.088-.042-4.188.19-6.279.178-21.221-.2-28.234-1.328-28.46 3.474-.664 13.838-.146 113.631.465 145.284.053 2.759-.358 3.134 12.64 2.846 18.56-.406 173.846-.759 199.687-.38 14.137.213 11.687.497 11.934-14.516"/><path fill="#000001" d="M266.106 106.152c.283 2.736.429 16.303.258 23.587-.072 3.07.081 4.743-3.706 5.074-4.658.409-56.65.039-69.847.127-54.453.362-82.636.284-97.902.172-12.589-.091-12.424-.081-12.522-6.401-.046-3.076-.093-19.696.157-22.4.501-5.383.879-3.271 61.585-3.69 42.659-.296 94.244-.253 109.61-.175 11.733.059 11.987-.074 12.367 3.706m-1.708 21.65c.19-4.504.048-12.847-.309-20.301-.108-2.277.038-2.894-2.939-3.097-2.656-.19-34.516-.176-39.322-.19-49.231-.138-27.439.611-91.248.19-25.092-.169-37.86-.017-42.866.277-2.113.124-3.003.12-3.17 2.121-.279 3.353-.33 16.128-.2 21.651.082 3.54-.107 4.589 4.384 4.718.19 0 170.707.088 174.145-.527 1.816-.321 1.457-3.1 1.525-4.842"/><path fill="#000001" d="M207.804 124.34c.151.813.168 1.647.051 2.466-.069.493-.406.368-.649.38-.949.06-14.979.155-15.894.077-.247-.021-.738-.015-.738-.508a17 17 0 0 1-.178-2.334c.026-.339.112-.552.379-.616.86-.207 15.676-.128 16.657 0 .284.043.307.199.372.535M193.039 55.234a28.09 28.09 0 0 1-5.032 23.39c-3.892 5.616-10.208 8.538-18.973 8.674a26.5 26.5 0 0 1-10.231-1.798 24.594 24.594 0 0 1-13.952-30.513 27.9 27.9 0 0 1 11.655-14.406c7.272-4.484 18.764-3.565 23.576-.662 4.811 2.903 11.312 7.422 12.957 15.315m-1.803 9.08c.596-5.566-1.066-12.198-4.119-15.668-2.656-3.02-8.466-7.955-14.42-8.413-8.82-.679-12.495.458-17.538 4.554a34.7 34.7 0 0 0-6.095 6.536c-3.694 5.078-3.868 12.614-1.603 18.839 3.52 9.665 11.065 14.653 21.106 14.818 13.727.235 21.388-8.73 22.669-20.666M183.037 124.34c.141.815.157 1.646.048 2.466-.067.494-.402.368-.643.38-.949.06-14.989.155-15.9.077-.241-.02-.734-.015-.734-.508a18 18 0 0 1-.19-2.334c.027-.339.112-.55.389-.616.856-.205 15.676-.126 16.653 0 .29.043.302.201.377.535M173.374 7.744c2.276 2.277.905 6.415-2.262 5.517-5.073-1.432-.894-8.682 2.262-5.517"/><path fill="#000001" d="M168.916 47.001c3.489-.032 6.28 2.129 6.684 7.675.044.6.023.719.357.734 2.548.121 2.62-.19 2.939 1.495.078.404 1.595 13.12 2.066 16.148.231 1.492-.302 2.025-1.125 2.074-.38.023-17.123.099-21.129.03-2.546-.043-1.98-1.588-1.726-3.415.634-4.576 1.789-14.476 1.825-14.831.137-1.328.698-1.37 1.395-1.406 2.02-.105 1.84.053 1.897-.824.338-4.547 2.282-7.638 6.817-7.68m3.058 24.35c.898-.032.989-.493.737-1.286-.38-1.16-1.076-3.935-1.676-5.616a.289.289 0 0 1 .143-.355 2.8 2.8 0 0 0 1.447-2.874c-.283-2.1-1.421-3.076-3.891-3.036a3.243 3.243 0 0 0-2.207 5.914.287.287 0 0 1 .143.355c-.61 1.679-1.304 4.454-1.676 5.616-.279.873-.19 1.284.987 1.294.62.002 5.384.011 5.993-.012m-1.36-15.916c.463-.01 1.459.112 1.434-.43-.098-2.101-.394-4.044-2.496-4.49a3.3 3.3 0 0 0-1.399 0c-2.104.448-2.398 2.381-2.497 4.49-.024.542.972.42 1.435.43.523.01 2.999.01 3.523 0M158.268 124.34a7.6 7.6 0 0 1 .051 2.466c-.066.493-.404.368-.647.38-.948.06-14.988.155-15.897.077-.243-.021-.736-.015-.736-.508a17.5 17.5 0 0 1-.179-2.334c.029-.339.112-.552.38-.616.859-.207 15.675-.128 16.656 0 .285.043.308.199.372.535M132.892 118.458c.15.814.167 1.647.05 2.466-.065.49-.4.38-.647.38q-1.875.08-3.745-.078c-.211-.015-.238.148-.154.22s.228.154.358.258a16.5 16.5 0 0 1 2.566 2.501c.165.632-.289.975-1.44 1.992-1.302 1.148-1.179.7-3.738-2.301a.1.1 0 0 0-.034-.022.1.1 0 0 0-.041.003.066.066 0 0 0-.039.066c.063 1.286.044 2.704.061 3.559.013.632-.131.585-.535.674a8.3 8.3 0 0 1-1.877.059c-.759-.067-1.182.102-1.189-.613-.012-.875.043-2.641.119-3.66a.06.06 0 0 0-.012-.042.07.07 0 0 0-.034-.028.1.1 0 0 0-.044-.003.1.1 0 0 0-.037.024c-2.561 2.965-2.301 3.343-3.595 2.203-1.152-1.017-1.609-1.361-1.444-1.996a15 15 0 0 1 2.442-2.416c.131-.102.277-.18.358-.258.082-.078.053-.262-.153-.22-1.22.188-2.456.241-3.687.156-.243-.019-.74-.015-.74-.513a17 17 0 0 1-.176-2.335c.026-.338.11-.55.379-.617a27 27 0 0 1 3.848-.076c.15 0 .296-.112.205-.224-.23-.277-1.154-.785-2.56-1.884-1.074-.838-1.267-1.073-.662-1.829 1.734-2.168 1.666-2.07 2.358-1.675a32 32 0 0 1 3.112 2.446.14.14 0 0 0 .072.028.14.14 0 0 0 .075-.013.13.13 0 0 0 .057-.053.13.13 0 0 0 .02-.074c-.121-3.926-.23-3.996.482-4.165a19 19 0 0 1 2.884 0c.772.19.542.309.478 4.165q0 .04.021.073.021.034.057.051a.14.14 0 0 0 .146-.012 31 31 0 0 1 3.117-2.446c.791-.452.683-.332 2.357 1.675.62.744.411.991-.663 1.829-1.406 1.099-2.487 1.604-2.717 1.884-.379.471 2.53.128 3.97.313.282.04.305.202.371.528M107.518 118.458c.138.815.153 1.647.045 2.466-.064.49-.4.38-.643.38a30 30 0 0 1-3.747-.078c-.213-.015-.235.148-.154.22.082.072.226.156.357.258a16.6 16.6 0 0 1 2.567 2.501c.163.632-.29.975-1.442 1.992-1.302 1.148-1.175.7-3.736-2.301a.05.05 0 0 0-.034-.023.06.06 0 0 0-.04.003.061.061 0 0 0-.038.067c.099 1.285.042 2.704.057 3.559.011.632-.131.585-.535.674-.621.091-1.25.11-1.876.059-.76-.067-1.183.102-1.19-.613a57 57 0 0 1 .12-3.66.07.07 0 0 0-.012-.042.07.07 0 0 0-.034-.028.1.1 0 0 0-.044-.003.07.07 0 0 0-.038.024c-2.561 2.965-2.3 3.343-3.593 2.203-1.154-1.017-1.61-1.361-1.446-1.996.72-.896 1.54-1.706 2.444-2.416.13-.102.277-.18.356-.258.08-.078.056-.262-.153-.22a16.7 16.7 0 0 1-3.687.156c-.243-.019-.74-.015-.74-.513a19 19 0 0 1-.176-2.335c.026-.338.112-.55.38-.617a27 27 0 0 1 3.847-.076c.15 0 .296-.112.205-.224-.228-.277-1.152-.785-2.557-1.884-1.076-.838-1.283-1.085-.665-1.829 1.697-2.032 1.579-2.119 2.359-1.675a31 31 0 0 1 3.117 2.446.13.13 0 0 0 .07.028.13.13 0 0 0 .075-.014.14.14 0 0 0 .055-.052.14.14 0 0 0 .018-.074c-.115-3.945-.224-3.998.482-4.165.96-.072 1.925-.072 2.886 0 .689.163.6.163.482 4.165a.14.14 0 0 0 .018.074q.02.034.055.052a.13.13 0 0 0 .075.014.13.13 0 0 0 .07-.028 31 31 0 0 1 3.117-2.446c.71-.404.638-.476 2.357 1.675.605.759.414.991-.662 1.829-1.406 1.099-2.484 1.607-2.712 1.884-.379.469 2.526.128 3.964.313.286.042.298.203.376.528"/></svg>