<svg xmlns="http://www.w3.org/2000/svg" width="127" height="26" fill="none"><path fill="#024840" d="M32.695 19.978q-2.574 0-4.43-.853c-1.233-.583-2.246-1.345-3.03-2.279a9.3 9.3 0 0 1-1.728-3.056c-.365-1.101-.552-2.18-.552-3.232v-.552q-.001-1.705.575-3.357.575-1.679 1.728-3.034 1.175-1.354 2.927-2.153 1.752-.827 4.103-.827 2.529 0 4.454.926 1.952.928 3.128 2.58 1.177 1.63 1.378 3.784h-4.655a3 3 0 0 0-.727-1.478q-.575-.674-1.5-1.052-.902-.4-2.078-.4c-.784 0-1.42.133-2.002.4a3.9 3.9 0 0 0-1.45 1.101 4.8 4.8 0 0 0-.876 1.68q-.3.977-.3 2.13-.001 1.154.323 2.154.325.976.952 1.73.628.727 1.576 1.128c.635.267 1.358.4 2.177.4q1.55 0 2.68-.652 1.124-.65 1.575-1.73l-.35 2.755V12.11h4.255v3.758c-.768 1.318-1.86 2.34-3.277 3.056-1.4.701-3.03 1.052-4.88 1.052zm-.502-6.966V9.755h10.159v3.258zm24.212 6.463h-3.201l-.134-1.958a4.25 4.25 0 0 1-1.697 1.638q-1.061.562-2.482.564-2.31.001-3.616-1.433-1.308-1.429-1.31-3.951V7.239h4.009v6.082q-.001 1.332.575 2.07c.384.487.913.735 1.587.735s1.264-.252 1.663-.759q.599-.76.598-2.092V7.243h4.008zm13.721 0h-3.505l-.21-1.394q-.672.783-1.636 1.212-.965.427-2.128.426-1.273-.001-2.26-.488-.989-.489-1.565-1.345a3.56 3.56 0 0 1-.564-1.97q.001-1.161.613-2.042.623-.88 1.71-1.384c.722-.335 1.552-.503 2.48-.503q.794 0 1.565.172.783.172 1.492.476v-.255c0-.43-.129-.808-.392-1.124-.258-.317-.616-.568-1.062-.747a3.9 3.9 0 0 0-1.526-.282c-.57 0-1.108.091-1.637.27a5 5 0 0 0-1.454.747l-1.05-2.999a13 13 0 0 1 2.577-.93A10.4 10.4 0 0 1 64.067 7q1.847 0 3.2.72a5.1 5.1 0 0 1 2.113 2.043q.747 1.31.746 3.106zm-6.573-2.75a2.8 2.8 0 0 0 1.199-.272 2.65 2.65 0 0 0 .952-.735c.25-.301.384-.625.392-.968v-.05a3.7 3.7 0 0 0-1.089-.476 4.3 4.3 0 0 0-1.199-.171q-.89 0-1.431.366-.537.356-.537.952-.001.378.22.698c.15.205.351.362.614.476.258.114.555.171.879.171zm13.063 2.75h-4.008V7.243h3.483l.133 2.02a4.4 4.4 0 0 1 1.625-1.666q1.016-.599 2.322-.598c.27 0 .54.02.819.061q.427.063.856.183l-.487 3.609a5.4 5.4 0 0 0-1.603-.27q-.95-.002-1.663.415a2.86 2.86 0 0 0-1.1 1.162q-.378.75-.38 1.76v5.556zm19.477 0h-3.52l-.21-1.627a5.4 5.4 0 0 1-1.808 1.372 5.3 5.3 0 0 1-2.3.503q-1.639 0-2.919-.82-1.27-.833-2.006-2.263-.732-1.444-.734-3.277-.001-1.836.734-3.266.733-1.446 2.006-2.263c.857-.557 1.827-.831 2.92-.831q1.136-.001 2.112.415.977.404 1.71 1.14V1.13h4.007v18.352zm-6.684-3.353q.731-.001 1.344-.316a2.5 2.5 0 0 0 .966-.907c.244-.393.366-.835.366-1.334v-.453c0-.488-.122-.923-.365-1.296a2.5 2.5 0 0 0-.967-.907 2.8 2.8 0 0 0-1.344-.332q-.782 0-1.393.366-.611.356-.967.991a2.9 2.9 0 0 0-.342 1.418q0 .794.342 1.432.355.624.967.98.611.354 1.393.354zm20.836 2.02q-2.285 1.577-4.975 1.577-2.026 0-3.654-.857-1.614-.868-2.554-2.347-.941-1.492-.94-3.354c0-1.242.281-2.233.845-3.155a6.1 6.1 0 0 1 2.299-2.203q1.467-.807 3.311-.808c1.23 0 2.402.298 3.373.892q1.456.89 2.26 2.485.818 1.577.819 3.67v.392h-8.602q.22.6.658 1.063.454.465 1.123.747.674.27 1.541.27 1.797 0 3.373-1.162zm-7.993-5.518h5.085a2.7 2.7 0 0 0-.415-1.212 2.35 2.35 0 0 0-.906-.82 2.6 2.6 0 0 0-1.233-.293c-.457 0-.876.107-1.234.317q-.525.306-.867.83a2.9 2.9 0 0 0-.427 1.174zm17.143 12.968h-4.252l2.532-6.105-6.281-12.248h4.545l3.631 7.683 3.178-7.683H127l-7.601 18.353zM3.21 9.912c0-2.953 2.32-5.347 5.181-5.347V1.248C3.788 1.248 0 5.158 0 9.912c0 4.755 3.788 8.664 8.391 8.664V15.26c-2.861 0-5.18-2.393-5.18-5.347"/><path fill="#024840" d="M12.724 16.92c0 2.953-2.32 5.347-5.18 5.347v3.317c4.603 0 8.39-3.91 8.39-8.664 0-4.755-3.787-8.664-8.39-8.664v3.317c2.86 0 5.18 2.393 5.18 5.347"/></svg>