<svg xmlns="http://www.w3.org/2000/svg" width="329" height="320" fill="none"><path fill="#024840" d="M230.743 289.144a64.6 64.6 0 0 0 .19 16.366 96 96 0 0 0 2.414 11.536s13.399.552 16.555.173 17.866-1.725 23.815.931 18.969.379 23.436 0 19.711.569 19.711-.741-2.604-26.592-12.451-31.438c-9.847-4.845-43.905-1.828-43.905-1.828s-14.693-.551-15.521-.741c-.827-.19-13.865 2.759-14.244 5.742"/><path fill="#E4FD6F" d="M189.58 235.22c2.397 3.449 3.449 21.315 3.449 24.35s-3.035 32.368-3.035 35.421-.328 23.228-.328 23.228-11.864-.31-13.796-.638c-1.931-.327-16.986.811-21.469-.793 0 0 .482-17.952 0-21.159-.483-3.208 1.276-20.039.638-24.143 0 0-2.57-1.121-2.57.31s-1.724 12.192-3.69 16.038-4.484 26.592-4.639 28.678-22.28.966-22.763 0 4.656-88.776 4.656-88.776 61.15 3.949 63.547 7.484"/><path fill="#AC8EFF" d="M126.671 295.714s.449 3.57.552 5.467-.552 11.623-.224 13.796-.448 2.69-6.139 3.018-27.592-1.328-35.645 1.121-28.954-1.001-32.972-.673-29.316-.552-32.076-.672c-2.759-.121-8.622-.207-8.622-3.225s.672-24.712.672-24.712l111.419-5.363z"/><path fill="#fff" d="M106.444 285.488a.6.6 0 0 1-.466.69 25.6 25.6 0 0 1-6.897 1.363c-6.416.396-6.243.672-6.467-.725-.224-1.396-1.19-7.26.276-7.363 9.398-.69 7.191.569 12.433-.828.914-.259.828 2.276 1.121 6.863"/><path fill="#011816" d="M111.771 284.557c.19.431-.276.362-2.949.983-1.121.259-.138-2.535-1.362-7.053-.155-.534-.293-.431 2.845-1.138.725-.104.466-.362 1.466 7.208M89.75 286.368c0 .897.639 1.724-.085 1.724-3.053.104-2.536 1.432-2.622-7.036 0-1-.103-1.103.345-1.086 3.225.172 1.863-1.207 2.363 6.398"/><path fill="#E4FD6F" d="M216.827 190.176c-1.104 11.313-.811 12.072-3.087 14.279-3.139 3.104-3.277 3.777-7.105 4.691-6.984 1.724-11.537-7.226-14.486-13.71a10.7 10.7 0 0 0-2.345-2.966c-.983-1.138-.983-.879.259-1.311a24.27 24.27 0 0 0 11.243-8.898c1.277-1.931.932-3.035 1.621-2.483 0 0 9.278 6.639 9.313 6.656.896.311 1.431-.379 1.034-.983-2.104-3.052-10.726-7.605-10.726-7.639 0-.035-.276-.655-.5-.914-.811-.949-1.725-1.725-2.483-2.794-1.552-2.017-4.105-.793-4.449-.776-1.346 0 .655-1.517 1.914-6.898.69-2.781.429-5.713-.742-8.329-1.259-2.397-1.845-4.57-2.776-6.225-.224-2.811 1.724-5.174 1.862-11.192 0-.604.828-6.674.845-6.708.69-4.743.897-4.001 0-4.346-1.724-.742-2.604 18.176-3.949 20.107-.707-.638-.897-1.724-2.776-3.931-1.069-1.242-2.311 2.431 2.828-8.312.845-1.725 1.362-3.26 0-4.467-4.604-3.863-8.864-2.88-7.45-4.277q.23-.258.517-.448c6.898-3.914 7.709-1.724 5.174-8.622-.517-1.449-1.932-3.898-.311-2.466 3.156 2.776 9.416 4.397 10.503 7.174 1.086 2.776 3.931 3.552 5.828 15.865a174 174 0 0 0 3.311 18.848c.449 1.483 6.157 16.866 6.933 31.075"/><path fill="#E4FD6F" d="M193.53 202.299c3.173 5.346 3.794 4.691 3.725 5.519-.69 9.277-.707 8.105-1.139 8.467-1.017.862-.517.862-1.827.224-1.725-.88-2.087-1.311-3.449-.673a.57.57 0 0 1-.69 0c-6.312-4.345-3.673-2.397-7.45-7.398-.655-.845.293-.534 1.604-1.724a2.758 2.758 0 0 0-.207-4.38c-1.259-1.035-2.449-.535-8.019-3.673-2.914-1.725-7.95-1.501-7.881-2.466.086-.999.086-2.003 0-3.001-.19-3.966.793-4.294.793-9.054 0-8.122 0-7.242.535-8.26a76 76 0 0 0 3.742-7.622 4.33 4.33 0 0 0 .38-4.104c-.001-.59.214-1.16.603-1.604a3.76 3.76 0 0 0 .949-2.414 1.88 1.88 0 0 0-.828-1.725.36.36 0 0 1-.155-.362 4 4 0 0 0 .155-.621c0-2.414-1.535-1.724-1.345-2.949 5.587-35.058 7.105-35.886 5.587-42.232-.845-3.449-2.19-1.966-1.052-3.07 1.5-1.465 1.725-1.828 2.535-1.172a28.24 28.24 0 0 1 10.243 15.52c0 .397-.379.724-2.621 1.724-11.519 4.898-.241 6.726.707 7.209 4.57 2.311 4.432.724-.552 10.83-.655 1.362-.534 1.983-1.414 2.103-2.483.345-1.448 2.639-2.517 3.622a3.25 3.25 0 0 0-.797 1.524 3.25 3.25 0 0 0 .09 1.718c.155.293-14.314 35.369-10.847 36.524 1.052.345-.138-1.259 5.811-18.969.535-1.586 3.725-10.847 4.76-12.071 1.172 1.241 2.517 6.57 2.897 8.208-1.88 8.864-1.259 8.623 1.724 13.089 1.242 1.828-5.001 4.294-2.414 8.812 1.414 2.449 1.725 2 2.156 2.777.431.776-.259 1.724 1.448 3.293 2.518 2.104 2.277 4.156 4.76 8.381M198.272 251.585c.275 1.846-6.14 1.311-7.847.69a23.5 23.5 0 0 0-8.829-.655c-3.328 0-8.536-2-10.451-2.069a7.25 7.25 0 0 1-4.414-1.587c-.19-.155-.173-.414-.466-3.535 1.138-10.588-.655-16.193 1.88-14.762s4.139 0 5.587.414c3.104.931 5.036-1.397 6.57-1.724 2.673-.656 2.087-2.518 3.122-1.725s1.5.345 1.017 1.518c-1.086 2.569-2.983 5.932-.517 7.087a20.4 20.4 0 0 0 3.707 1.725c.966.224-.724.983.742 2.569a15.7 15.7 0 0 0 7.088 4.018c1.034.294.396.552 1.517 3.346q.777 2.309 1.294 4.69M163.938 229.718c.621.397.914-.224-.862 6.019-.638 2.259-1.535 1.966-1.725 5.759-.172 3.449-.517 4.156-1.552 4.45a21.5 21.5 0 0 1-5.07 1.414c-5.053-.569-5.035-.742-6.898-.225a8.2 8.2 0 0 1-4.604.518c-1.845.003-3.684-.2-5.484-.604-3.449-.724-3.07.207-5.432-.138-.345 0-1.604-.431-1.725-.948-.724-4.311-.81-4.208-.31-4.346 4.208-1.293 5.294-1.724 4.949-5.484 0-.672-.155-.414 6.105-2.069 2.483-.638 4.139-1.086 4.035-3.725-.31-8.157-1.259-7.398 0-7.76 5.984-1.725 4.587-1.207 10.916.138 1.88.396 1.725-.259 1.725 1.897a4.6 4.6 0 0 0 2.328 3.759 3.9 3.9 0 0 0 1.724.311c1.466.138.621.275 1.88 1.034M167.558 178.95c.535.673 0 7.674-.465 10.347a27 27 0 0 0-.138 6.501c0 .983-1.156 0-3.863 1.052-2.138.88-6.898 3.794-11.882 4.708-2.19.397-6.26 3.311-10.347 3.777-2.828 0-.724-2.139-9.157 1-2.138.793-1.724-1.621-4.345-1.018-1.242.294-.725-.724-1.07-2-.344-1.276 2.76-.845 6.036-.707.88 0 1.725-.207 2.656-.224 4.811 0 5.173 1.121 7.432.31 1.294-.448.725-1.052 1.587-1.034a10.36 10.36 0 0 0 5.967-1.725c.879-.517.758-1.086 1.258-2.311 1.001-2.448 2.346-1.724 11.365-9.657.586-.517.414-.724 1.586 1.725a.594.594 0 0 0 .785.284.59.59 0 0 0 .284-.784c-1.241-2.587-1.431-2.622-1.086-3.122a22.6 22.6 0 0 0 3.397-7.122M161.161 162.861c.413.586.758.621-1.139 2.776-4.707 5.329-1.879 2.449-4.207 5.639-1.259-1.517-11.468-22.418-12.072-23.832-6.725-16.279-7.07-13.675-4.673-15.727a42 42 0 0 1 5.829-4.812c1.379-.948 1.31-1.965.534-2.638-1.724-1.431-3.449-1.535-7.501-2.552-1.259-.328-1.294-.414-.949-1.725 2.587-9.208 12.348-17.107 12.296-14.02a2.16 2.16 0 0 1-.724 1.621c-3.553 3.656.879 9.433 6.449 35.197 1.483 6.932 6.157 20.038 6.157 20.073"/><path fill="#E4FD6F" d="M138.518 192.177c.38 7.622 4.794 8.881 3.329 9.14a4.25 4.25 0 0 1-2.535-.207c-1.207-.414-.518-.173-11.658-.328-3.104 0-1.276.966-2.69-9.261-1.725-12.071-2.414-11.105-1.311-11.226 14.676 3.449 14.727.845 17.245 1.725.742.207-2.621 4.914-2.38 10.157M154.764 172.914c.241.483.431.345-2.139 5.174a40 40 0 0 1-2.017 3.569c-.225.328-.225.328-.449-.31a2.02 2.02 0 0 0-1.724-1.155 9.3 9.3 0 0 0-5.501.793c-.742.327-2.466-1.156-4.691-.518-3.276.932-11.468-1.241-14.934-1.724-1.19-.138 0-.517 2.156-10.192 2.035-9.364-.121-4.535 1.121-15.71.465-4.294 1.948-11.657-1.535-17.589-.345-.604-1.311-.311-.983.534 4.328 11.037-.931 17.435.638 24.833.655 3.104-2.311 14.503-2.828 15.072-2.656-3.329-3.967-35.456-11.865-44.354-.414-.483-.448-.828.224-1.949 2.742-4.535 3.156-5.88 5.898-7.053a35 35 0 0 0 10.071-5.328c1.966-1.535 3.208-1.501 8.002-3.449 2.121-.742 4.535-1.863 4.949-2.018.604.155-3.018 5.329-3.863 8.778-.914 3.845 5.174 2.69 8.623 4.794.241.155.258.276 0 .431a28 28 0 0 0-4.794 4.001c-4.363 3.949-6.795-1.259 15.641 43.37"/><path fill="#C4905C" d="M256.697 145.374c-.241 0-.396 0-.448.259-.414 1.725-1.621 4.984-.138 7.777s-1.725 2.587-2.001-1.362c-.5-7.036 2.518-6.691-1.345-6.191-4.707.604-6.001 1.207-9.157-.931-.431-.31-.293-.448-2.328 2.69-1.621 2.483-5.57 7.743-5.173 13.417a18.97 18.97 0 0 0 3.897 11.416c.587.724 1.035.189 1.38-.173 1.966-1.879 2.828-.655 3.449-2.155 1.069-2.311 2.328-1.897 1.724-2.984-4.363-6.898-.81-12.813-.327-15.52 0-.466.793-.224.638-.759 2.828.793-4.312 7.95 1.155 15.521.414.569.517 0 1.587-.69 5.294-3.156-.276 1.017 8.76-8.933.983-1.069 2.035.103 1.966-.966-.586-9.053-.621-9.743-3.639-10.416M298.137 162.24s2.622 1.724 3.898 2.483c2.742 1.466 4 .845 10.467 7.433 2.725 2.759 2.708 4.776 3.449 5.466 1.018-1.88.914-5.656.742-7.795-.828-10.208-11.589-16.882-8.623-24.246 5.691-14.227 7.709-26.367 3.691-44.612-2.639-12.071-4.104-12.071-13.555-20.694-4.156-3.794-5.415-5.45-14.761-5.88-.345 0-2.018.19-1.414.603a15.2 15.2 0 0 1 4.414 4.018c.535.845 1.397 1.432 1.725 2.45.328 1.017 1 1.724 1.241 2.845.242 1.12.949 2.88.932 3.345a.707.707 0 0 1-1.363.276c-1.276-3.656-1.897-6.277-5.656-9.743a18.8 18.8 0 0 0-8.053-4.277 32 32 0 0 0-7.398-.742c-4.105 1-3.622.31-.293 2.121 2.862 1.553 2.379 1.294 5.449 4.501.638.673 1.207 1.156.655 1.828-.879 1.104-2.673-2.155-5.173-3.81-11.123-7.502-28.885-.45-25.264 7.156a12.6 12.6 0 0 0 2.414 3.19q.707-.604 1.311-1.31c2.914-3.45 3.673-2.57 4.363-3.915-1.018-.431-3.449.552-4.38.759a.694.694 0 0 1-.5-1.294c2.742-1.724 6.294-1.465 9.674-.758a13.56 13.56 0 0 1 9.329 5.915 47 47 0 0 1 4.57 10.122 48 48 0 0 1 2.018 17.693c-.207 5.588 0 6.502-.241 9.071-.69 7.226.655 8.347 3.069 11.123.569.638.552.707.914 0 5.174-11.519 3.777-14.692 4.242-17.555 4.122-25.557-4.88-28.092-4.035-30.023a.79.79 0 0 1 .907-.192.8.8 0 0 1 .266.192c8.622 9.57 4.69 28.264 4.294 31.954a36.94 36.94 0 0 1-4.087 16.21c-1.604 3.156-5.036 14.676-3.018 18.97 4.363 9.208 7.881 11.398 16.262 15.623s20.245 9.985 23.539 14.21c1.224 1.552 1.724 2.777 1.569-.224-.879-14.572-13.158-16.796-18.331-21.297-.742-.638-.397-1.828.741-1.19m1.483-72.532c1.001-5.363 9.83 22.108 2.139 43.561-.38 1.034-1.587.758-1.414-.173.172-.931 2.966-8.898 2.897-13.796-.362-29.316-4.122-27.04-3.622-29.592m-.672 50.338c.241-.656 1.448-.794 1.19 0-1.466 5.173-2.811 5.932 1.034 12.571 1.07 1.845 10.089 10.088 8.623 11.192-.328.241-.621 0-.845-.207-7.657-8.208-10.657-9.967-11.709-17.555.129-2.1.712-4.147 1.707-6.001m-10.347 12.399c.379 1.069 1.207 2.052 1.224 2.707 0 1.173-1.276.5-1.621-.276-5.173-12.071-.689-8.622 4.932-43.112.449-2.724-.689-7.432.449-7.501.621 0 .586.448 1.293 6.346-3.639 26.764-9.778 32.368-6.311 41.836z"/><path fill="#FF9C9F" d="M251.851 132.216c3.069-.793 2.949.604 2.483 1.156-1.587 1.724-4.622 3.087-5.846 2.138-.931-.724.293-2.518 3.363-3.294"/><path fill="#fff" d="M245.436 126.922c10.243 1.483 12.657-.293 13.795-.293a4.07 4.07 0 0 1-1.5 2.311c-1.155.758-7.208 1.328-11.174-.121-.863-.31-1.018-.569-1.208-1.035s-.448-.931.087-.862M175.612 94.226c.345 0 .448.103.293.396-1.725 3.035-5.432 10.451-7.985 7.088-1.172-1.552-4.845-8.45-4.845-8.484.069-.362 7.156 1.793 12.537 1"/><path fill="#C49E91" d="M190.839 149.755c1.587 2.776 5.415 9.657 5.174 12.83 0 6.105-3.587 9.278-2.191 11.244 1.725 2.466 1.621 2.362 1.466 2.604a23.7 23.7 0 0 1-4.242 5.035c-.586.5-.535-.31-1.724-2.38-2.294-3.983-3.363-4.087-2.984-6.897.776-5.881 1.156-5.398.638-7.519a27.4 27.4 0 0 0-2.483-7.053c-1.397-2.622-.535-4.725.845-2.104a92 92 0 0 1 3.708 8.743c.207.483 1.396 1.724.793-.621a42.2 42.2 0 0 0-3.673-9.002c-.949-1.724-1.276-.948-1.845-3.069-.104-.431 0-1.466.603-1.518.604-.052.224-.672 5.863 11.434.604 1.31.604 1.293 1.139 1.189 1.069-.103-3.225-7.432-5.174-12.071-.966-2.328-1.397-3.828-.397-3.949.604 0 .914 1.293 1.346 2.242a66 66 0 0 0 3.259 6.501c.465.966 2.069 4.863 2.069 4.863.311.604.811.448.742-.138-.449-3.983-4.329-8.95-5.26-11.95-.121-.38-.414-1.001-.103-1.397.31-.397.569-.535 1.086.345.276.5.655 1.465 1.345 2.638M173.888 159.515c.414.88 0 1.449-.535 2.294-.879 1.259-3.138 3.88-3.552 4.501-4.501 6.897-5.174 7.087-4.294 7.708.638.397 1.931-1.483 3.259-3.828a32.4 32.4 0 0 1 3.19-4.725c.725-.828 1.363-.138.914 1.086a44.8 44.8 0 0 1-5.535 9.502c-1.966 2.19-.949 3.449-3.674 7.691-2.5 3.846-2.362 3.449-7.76 8.053a25.1 25.1 0 0 1-6.811 4.398c-1.363.431-2.277 0-2.449-2.311-.173-2.311-.845-1.845-.293-5.398.327-2.155.362-2.776 1.241-3.121 3.173-1.276 3.449-.172 8.433-10.933 4.363-9.468 0-.104 8.967-13.899.259-.397 1.156-2.001 1.621-2.673s1.173-1.518 1.173-1.518c.259-.259.707-.759 1.138-.5a1.24 1.24 0 0 1 .38 1.724 16 16 0 0 1-1.208 1.725c-1.983 3.069-5.811 7.363-6.363 9.14-.31.983.483 1.121.966.448 5.173-6.898 4.449-6.691 6.363-8.898 1.914-2.208 2.345-3.208 2.811-3.708s1.138 0 1.155.828-.482 1.19-.914 1.724a67 67 0 0 0-4.707 5.657c-1.173 2.931-4.967 6.173-3.691 6.535s4.536-5.984 5.415-7.173a50 50 0 0 0 3.449-4.191c.362-.483 1.052-.69 1.311-.138M184.46 85.052c.345 1.845 1.621 6.898 0 10.347-1.621 3.45-5.019 9.692-7.726 12.072-3.552 3.121-12.071 3.311-15.658 1.465-1.587-.793-1.932.725-.949 1.483 2.587 1.966 9.657 1.57 12.848.845.534-.12.603.104.569 1.363 0 .827-2.949 2.104-4.018 2.224-1.621.19-2.001.983-2.225 2.277-.138.793-.517.293-2.707.465-1.639.121.276-1.535-2.242-2.862-1.656-.794-8.95-3.036-11.537-6.036-.81-.897.483-.379 0-5.518-.535-6.019-2.673-11.675-2.121-12.744 1.414-2.76-.517-3.45-.914-2.328a3.12 3.12 0 0 1-2.173 2.293c-3.035.621-5.604-4.19-5.846-7.553a7.9 7.9 0 0 1 .621-4.053 3.224 3.224 0 0 1 4.759-.672 15.3 15.3 0 0 1 1.966 3.121c.552.983 1.725.431 1.345-.517a7.17 7.17 0 0 0-2.569-3.846c-3.052-1.397-4.001-18.09 6.329-23.642 2.638-1.414 12.347-3.587 20.556-1.725a16.67 16.67 0 0 1 10.812 6.984c7.605 12.606-.552 18.797.88 26.557m-1.173-14.175c1.104-.414-.138-3.932-3.846-4.294-.724 0-3.69.724-3.604 1.621.121 1.328 1.449.62 2.811.224 2.794-.828 3.311 2.984 4.639 2.45m-3.897 22.315c.586-.259.517-1.483-.345-1.38-2.14.623-4.345 1-6.57 1.121a53 53 0 0 1-9.727-1.397c-.396-.103-.517-.138-.275-.586.241-.448 0-1-.69-.914a2.96 2.96 0 0 0-1.986 3.071c.039.438.176.862.399 1.24.38.587.897.449 1.173 0 .276-.448.276-.465.569 0 2.983 4.329 3.915 10.037 7.622 9.744 3.553.344 6.812-6.898 8.226-9.968.293-.724.621-.5 1.604-.931m-.794-16.141c.88-2.208-1.724-2.915-1.828-.466a.95.95 0 0 0 .705 1.055.95.95 0 0 0 1.123-.59m-2.776 9.915a4.25 4.25 0 0 0 2.324-3.177 4.23 4.23 0 0 0-1.289-3.72c-1.397-1.363-3.311-1.553-3.811-3.57 0-.259-.38-.31-.673-.259-.828.138-.448 2.052.31 2.777 1.38 1.293 2.432 1.483 3.277 2.655a2.23 2.23 0 0 1 .448 1.846c-.241 1-.81 2.483-3.863 2.224-3.448-.293-2.655-2.621-3.966-1.724-.655.43-.569.845-1.897.914a.727.727 0 0 1-.759-.707 3 3 0 0 1 .311-.949c.552-1.276-.914-1.483-1.311-.724-1.362 2.621 0 4.242 1.966 4.087 1.725-.12 1.432-.742 2.449-.104a6.66 6.66 0 0 0 6.484.431m-8.829-20.693c.534.224 2.293 1.293 2.241-.345 0-1.328-3.017-1.725-4.207-1.725a20.7 20.7 0 0 0-4.036 1.207c-2.431.949-3.207 4.64-1.189 3.553a4.63 4.63 0 0 1 2.673-2.328 5.48 5.48 0 0 1 4.518-.293zm.465 9.588c.104-.776 0-1.725-.81-1.725-.811 0-.845.673-.914 1.276.138 1.88 1.586 1.57 1.724.518zm-21.814 9.812a1.534 1.534 0 0 0 .741-1.724c-1.914-6.967-5.915-5.019-5.656-1.897a.672.672 0 0 0 1.328.172c.12-.38.276-1.724 1.017-1.086 1.207 1.034 1.018 1.396 1.483 2.535.466 1.138-1.328.672-1.224 2.845-.276 2.104 2.707 3.052 2.742 1.466.034-1.587-2.346-.828-.431-2.31"/><path fill="#011816" d="M169.783 139.425c2.121 11.743 2.776 10.829 1.724 15.658 0 .207-.724 1.121-.983.759a6 6 0 0 1-.31-.535c-3.449-4.725-8.346 11.847-7.984 4.536 0 0 0-7.588.414-15.366.396-7.104 1.155-14.451 1.879-14.537 1.069-.138 3.449-1.173 3.691.845.482 3.57 1.121 6.26 1.569 8.64M168.369 120.197c.31.466.655 1.466.224 3.897-.759 4.432-1.017 4.018-1.621 4.018-2.587 0-3.104.932-3.449.121a15.2 15.2 0 0 1-1.276-2.742 6.22 6.22 0 0 1 .69-4.759 3.32 3.32 0 0 1 2.576-1.684 3.328 3.328 0 0 1 2.856 1.149"/><path fill="#fff" d="M176.526 125.491c.517-.931-3.691 21.194-3.915 21.401-.517-1.259-2.931-17.073-3.621-17.883.127-2.018.433-4.02.914-5.984.224-1.242 0-2.431 0-2.863s.465-.482.603-.327c.673 1.276.552 5.691.759 7.915.345 3.035 4.432-.914 5.26-2.259"/><path fill="#fff" d="M177.043 111.833c1.725 5.863.776 11.347-4.242 15.072-.914-1.983.224-9.967-3.259-8.467-.19 0-.5.31-.518.276-.017-.035-.827-.293-.793-.776.259-2.639 1.983-1.173 4.777-3.018 1.845-1.224 3.949-1.949 2.018-3.104a.604.604 0 1 1 .413-1.138c.656.19 1.38.362 1.604 1.155M162.73 118.594c0 .138-.327.431-.379.569-.19-.345-.88-3.57-2.639-1.725s-1.828 3.225-2.69 9.485c-.155 1.069-3.742-2.035-4.242-1.949-.897.138-.966-.448-1.966-4.449-2.173-8.622-2.776-9.864-1.724-11.347 2.017 1.724 0 1.448 9.795 5.898 3.483 1.638 3.449.586 3.845 3.518"/><path fill="#fff" d="M161.746 127.613c1.139 2.224 1.19 2.034 1.087 2.552-1.828 8.312-1.966 25.867-2.259 26.488-2.001-4.501-7.76-28.23-7.881-29.817 1.5.621 5.001 3.622 5.587 1.484.862-3.139.138-6.502 2.018-9.209.293-.431.431-.293.534 0s.69 1.397.604 1.724a7.33 7.33 0 0 0 .31 6.778M266.837 178.674c.742 6.278 1.225 3.725 4.691.794 6.984-5.881 1.466 0 9.329-10.864 1.518-2.087 1.19.896-5.328-7.536-.449-.57-.449-.914-2.604 1.5-5.312 6.018-5.743 7.105-7.899 7.363-1.724.225-2.276 1.501-2.569 3.191-.103.534-.155 1.103-.224 1.724-.242 2.69-1.207 3.777-2.173 6.277-.811 2.104-.621 3.156-1.242 3.104-2.362-.189 1.725-7.087 1.915-9.588q.189-1.743.603-3.449a1.97 1.97 0 0 0-.103-1.224c-.621-1.397-2.087-2.501-1.449-4.777 1.293-4.622 1.035-10.347-2.156-5.432-1.983 2.983-4.673 4.311-4.863 7.312 0 .948 0 2.673-.086 4.19a52 52 0 0 0 .155 7.415c.156.914 1.035 1.725 1.363 1.621.327-.103 0-1.569.862-3.897.172-.5 1.207-2.69 1.724-4.018.397-.931 1.501-1.949 2.449-1.276.949.673.656 1.224.845 1.931.104.397-.12.57-.483.673-.362.103-.482-.742-1.052-1.19-.569-.448-.965.448-2.552 4.742-.69 1.915-.103 2.018-.931 4.036-.362.896-2.035.758-2.638-.5-1.121-2.311-1.397 12.554-.673 13.623 4.087 6.036 4.397 8.502 3.777.431a10.6 10.6 0 0 1 1.431-5.484 1.94 1.94 0 0 1 1.186-.974 1.94 1.94 0 0 1 1.521.198c1.363.949.518 3.363.932 8.847a55 55 0 0 1 1.034 10.554q.048.96.276 1.897c.173 1.086 3.449-9.037 3.553-9.071 1.575-3.546 3.348-7 5.311-10.347 2-3.932.776-4.26 2.794-8.174 2.586-5.053 4.708-7.26-3.76.655-1.724 1.587-3.362 1.725-3.673-.465s-1.104-3.777-.638-5.743c.259-1.086-.103-3.449-.586-3.57-.483-.12-.362 1.225-1.173 1.19-.345-.086-.483-.586-.431-1.138a1.73 1.73 0 0 1 1.138-1.5c.983-.328 1.725.483 2.07 1.431 1.103 2.552.172 4.311.327 5.518"/><path fill="#024840" d="M313.64 283.677c.259 1.173.207 1.173-.638 1.915-12.881 11.261-25.867 6.811-33.179 8.432a43.3 43.3 0 0 1-10.95 1.139c-.535 0-4.415-.552-4.777-1.432-2.207-5.277-2.794-4.38-3.449-16.124-.517-9.329-3.19-7.174-3.018-19.659.104-6.811.207-9.122.483-9.846 3.863 2.931 8.243 13.019 12.072 16.089 3.449 2.811 4.362 3.035 5.983 5.725 2.88 4.708 3.794 7.036 7.019 7.605 7.536 1.328 15.52 3.449 22.694-7.657.19-.293.345-.241.5 0 5.019 8.606 5.933 7.761 7.26 13.813M251.455 166.878v2.001a44.3 44.3 0 0 1-.638 9.847c-1.466 12.364-.396 11.588-.845 12.64-.362-.345-2.707-4.139-2.949-4.57-5.535-9.295-7.691-3.673-2.259-13.037 1.725-3.052 1.725-3.776 3.449-5.001 3.139-2.414 3.242-2.414 3.242-1.88"/><path fill="#024840" d="M316.036 216.25c.552 6.226-1.983 9.657-3.553 22.677-.707 5.76-2.086 14.503-4.518 19.728-.603 1.311-1.293 5.294-2.69 8.26-2.966 6.278-8.329 11.037-17.141 9.589-4.812-.776-6.105-.794-7.329-2.725-3.311-5.174-3.794-6.519-5.519-7.967a33.5 33.5 0 0 1-6.449-5.708c-2.173-3.035-4.674-8.157-7.398-10.796a23 23 0 0 1-3.035-3.811c-.294-.465-.294-.465.275-.724 18.521-8.26 15.814-16.434 17.521-11.916a21.5 21.5 0 0 0 4.484 5.173c3.173 2.518 3.052 3.725 5.967 6.622 2.259 2.242 5.173 3.846 7.673 7.743.518.828 1.432 2.139 2.173 1.621 2.277-1.586-8.846-10.778-9.691-11.812a32.5 32.5 0 0 0-3.846-4.587c-.638-.587-.276-.276.483-5.433 1.811-12.192 5.553-13.468 4.622-18.555-1.725-9.674 10.346-25.66 10.346-25.695.276-.586-.275-1.586-1.017-.776-6.294 6.795-11.295 19.452-11.192 24.143.621 5.949.638 3.777-3.104 13.623-.862 2.311-.983 3.708-1.724 10.002-.156 1.242.569 1.897-1.725-.241-.97-.928-1.77-2.02-2.362-3.225-1.018-2.138-2.035-.621-3.346-3.19a44 44 0 0 0-3.345-5.381c-1.242-1.879-2.484.466-3.139-1.414-2.052-5.794-.379.328-4.415-7.553-.517-1.017 4.519-13.796 5.829-16.313 9.433-18.004.224-2.898 9.416-20.694 4.949-9.606 4.604-8.381 4.742-8.295 7.122 4.484 6.329 2.604 8.312 5.95 2.501 4.19.914 4.88-3.449 8.449-3.897 3.139-6.449 2.535-3.811 5.967 5.967 7.743 4.932 6.364 0 10.709a110 110 0 0 0-12.554 12.072c-1.38 1.724-3.949 5.328-1.725 4.725 1.138-.294-1.362-.431 11.865-12.348 5.777-5.173 6.122-5.587 6.794-6.104 2.621-2.018.328-5.501-1.931-8.243-3.07-3.725-1.38-1.966 3.569-6.381 2.363-2.121 4.76-3.449 3.76-6.501-.466-1.397-.862-2.276-.949-2.777.983 0 12.227 6.243 12.261 6.26 17.659 8.123 9.692 22.798 10.865 35.852M252.956 236.876c.81 1.155 4.242 5.052 3.449 5.69a1.844 1.844 0 0 0-.138 2.501c1.535 1.535-.397.155 0 19.073.155 6.898 2.087-4.725-2.207 18.796-.328 1.828-.535 10.123-1.397 10.744-2.88 2.121-10.037-2.19-18.97-4.432-2.345-.586-2.293-.638-6.673-3.449-2.846-1.828 1.276-8.105 5.553-19.124 2.741-7.123 6.518-13.348 4.19-18.97a20.9 20.9 0 0 1-.397-5.846c-.31-16.624-1.207-16.399-1.534-19.279-.776-6.709-.173-17.4-1.449-16.935-.741.276-.535 1.449-.431 3.57.414 9.053-.655 8.622.466 13.899 1.603 7.605 1.017 11.416 1.517 23.022a2.651 2.651 0 0 1-.259 2.242 23.8 23.8 0 0 1-7.277 7.501c-3.449 2.225-13.589-4.156-16.952-6.328-7.294-4.726-6.673-2.242-10.036-5.036-4.622-3.828-5.76-2.19-9.64-5.001-2.173-1.569.19 2.035 6.657-14.382 3.345-8.519-3.449-8.623 7.639-3.449 8.364 3.863 9.036 3.587 9.485 5.173 1.724 6.019 1.983 12.348 3.345 13.796a.73.73 0 0 0 .912.144.72.72 0 0 0 .313-.868c-2.38-7.536-.311-3.449-3.449-14.227a13.3 13.3 0 0 0-1.725-1.725c-.5-.465-1.276-.327-1.121-.862.311-1.224 1.725-.69 1.863-.69 2.224.225 3.138 0 3.69.914 1.587 2.484 4.432 6.726 4.553 11.003 0 1.828 2.897 1.828 1.069-3.639-2.483-7.398-4.691-7.795-4.156-9.071 4.121-10.088.328-.897 7.139-23.177 1.397-4.552 4.656-10.347 6.588-15.986a9.4 9.4 0 0 1 3.449-4.966c5.38-2.777 4.121-3.932 5.501-3.57-.966 3.449-3.742 3.949-1.811 7.795.207.414 1.259.948.966 1.259-1.449 1.5.638 4.725.707 5.725-1.087-.983-2.897-4.984-4.639-5.329a1.9 1.9 0 0 0-1.71.569 1.9 1.9 0 0 0-.463 1.742c.897 3.449 2.725 5.173 2.794 6.156-.949-.62-3.553-5.604-5.174-2.207-.707 1.397-.189 2.949 1.57 6.001 8.329 14.382 1.017 1.639-1.518 1.845-1.466.121-2.328 1.604-.362 4.553a71 71 0 0 0 4.518 6.639c2.759 3.104 2.794 3.794 4.38 5.363 1.88 1.88 3.156 3.242 4.036 4.277 2.5 2.915 4.449 5.45 4.742 5.881s.431.62.103 1.069c-.327.448.294 1.483.845 2.518.552 1.034 1.225.448 1.57 1.103 1.362 2.673 1.431 2.828.914 3.328-1.432 1.346-2.208 2.984-1.035 4.657"/><path fill="#fff" d="M259.232 220.441a2.486 2.486 0 0 1 2.914 1.446 2.48 2.48 0 0 1-1.017 3.089c-4.138 2.259-5.121-3.966-1.897-4.535M273.838 231.029a27 27 0 0 1-2.983 3.76c-7.795 7.898-11.295 7.104-11.606 7.536s-1.517-1.725-2.932-3.708c-3.448-4.656-2.207-1.311 1.018-3.777a43.8 43.8 0 0 0 12.623-9.346c.638-.69 1.569 2.242 3.88 5.535m-15.313 6.674c0 1.725 2.259 1.914 2.259.207s-2.242-1.587-2.259-.207M195.186 219.078c1.725.966 1.397.897 1.725 1.363-.449 3.224-5.709 16.192-7.088 15.347-3.449-2.172-5.346-1.207-4.035-3.328 9.674-15.727 3.69-16.624 9.398-13.382m-5.605 14.313c1.311 0 1.535-2.259 0-2.31a1.29 1.29 0 0 0-1.155 1.224 1.22 1.22 0 0 0 1.155 1.086M200.17 176.863c1.172 1.328.896 1.018 1.155 1.483-1.121 5.294-11.054 12.572-12.675 11.209-.603-.517-2.949-2.69-2.155-3.086a35 35 0 0 0 3.569-1.984c11.054-9.622 6.036-12.174 10.106-7.622M147.52 181.588c.172.431-1.621 1.725-2.156 4.846a13.7 13.7 0 0 0-.517 5.639c.397 3.018.604 4.363 1.949 5.587 2.552 2.311 1.828 1.725-.897 2.673-2.725.949-3.708-1.586-4.397-2.414-1.294-1.604-1.346-3.846-1.587-6.208.085-2.777.792-5.5 2.069-7.967.932-2.242 5.277-2.742 5.536-2.156M141.328 225.701c1.052 7.622 4.76 5.397-3.638 7.57-3.932 1-3.915 1.156-4.173.449-1.725-5.07-4.45-25.247-2.794-25.678 7.294-1.931 7.053-2.138 7.036-1.586-.121 3.673-.466-1.07 1.397 10.484 1 6.157 1.81 6.019 2.172 8.761m-6.604 3.811c0 2.328 3.225 2.449 2.811-.104a1.417 1.417 0 0 0-1.452-1.214 1.417 1.417 0 0 0-1.359 1.318M110.495 265.605c0 11.002.621 9.692-.586 9.916-5.691 1.069-7.536 2.276-10.726 1.828-3.708-.517-6.467.483-11.813.862-1.57.121-.724-10.778-.552-12.347a66.4 66.4 0 0 0 1.07-11.071c-.121-7.467.534-2.363 20.693-8.347 2.173-.603 1.811 19.159 1.914 19.159M105.546 209.991c0 1.173-2.604-.604-17.245 2.5-1.035.207 0-.827-1.414-3.017-1.173-1.863 1-1.276-2.828-20.263-1.725-8.209 1.07-24.746-11.278-45.819-.155-.259-.173-.466.276-.466 4.156.103 4.242-16.676 4.966-11.537.276 1.863 1.897 1.225 1.121-2.5a1.4 1.4 0 0 0-1.178-1.199 1.39 1.39 0 0 0-1.477.802c-1.5 2.466-1.415 10.485-3.45 12.209-.482.414-2.241 0-2.983-1.207-.741-1.207-2.173-2.707-4.328-5.828-7.416-10.709-6.726-11.727-6.657-17.073 0-.293.173-.966.38-.759a23.5 23.5 0 0 0 5.173 3.173c2.483 1.294 5.95 5.174 11.226 6.381 4.415 1.017 4.605.483 4.605 5.846-.163 1.967.06 3.947.655 5.829 4.604 13.537 1.345 9.346 3.311 14.296 3.863 9.777 1.017 5.708 3.104 14.365.673 2.811.966 3.224 1.88 3.035s.5-1.345.293-2.173c-2.76-11.278 1-4.035-3.966-17.245-.173-.466-.19-2.311-.431-4.725-.432-4.225 1.138-3.449.793-10.916a76 76 0 0 0-.638-8.209c-.138-.931-.259-1.258 2.88-5.173 1.724-2.156 1.603-3.104 2.086-3.121a2.06 2.06 0 0 1 1.397.965c1.138 2.673 3.139 2.984 2.466 5.622-.31 1.207-.897 4.674-1.5 7.45-.12.552-1.207 4.76-1.725 4.622-.845-.173-.38-6.105-1.724-8.623-1.725-3.225-3.19.362-1.966.725.914.258.724.655 1.724 7.587.38 2.656.26 3.035 1.604 3.346s1.725-.707 2.673-2.777c.552-1.086.483-1.397.776 0 6.57 32.886 6.898 25.471 8.071 43.664.983 16.814 2.621 13.813 3.328 30.213M112.221 93.399c.345 0 .88.345 1.207.431-.569.914-1.724 2.673-2.776 2.552-4.656-1.017-10.726-4.19-11.054-6.19s-.672-2.742 0-2.225a18.6 18.6 0 0 0 6.898 3.776 23.2 23.2 0 0 0 5.725 1.656"/><path fill="#AC8EFF" d="M130.447 271.624c1.035 10.157 4.708 19.262 3.449 20.09a14.6 14.6 0 0 1-7.45 2.621c-7.518 1.052-7.294 3.57-9.829 3.345-.983 0-1.173-1.379-1.259-2.362-.362-3.742-1.725-13.054-2.639-20.039-1.345-10.967 1.121-10.346-1.569-28.971-.172-1.121 2.535-.293 16.538-3.949 1.828-.5 1.742 19.366 2.759 29.265M124.62 205.628c0 .517-.345.483-.897.707-3.311 1.293-2.759 1.586-6.398 1.914-11.433 1.035-9.674 4.26-10.036-1.207s.258-4.001-2.553-18.969c-.81-4.277-.448-15.745-2.345-23.47-10.76-43.647-6.484-32.593-6.294-43.112 0-.638-2.156-2.122-1.587-2.587s4.001 2.621 4.69 3.138c10.658 8.468 6.088 5.312 2.105 15.279-2.173 5.415-.638 4.639.293 5.26 3.363 2.242 5.57 2.932 6.794 4.104a3.67 3.67 0 0 1 1.483 3.708c-.379 3.811-3.104 11.537-3.707 29.575 0 1-.259 2.673.845 3.19.793.379.603-3.587 1.034-7.088 1.518-23.315 5.329-25.539 3.07-28.574a24.7 24.7 0 0 0-8.622-6.433c-1.725-.862 3.931-9.053 4.121-9.398.345-.638.466-.655.88-.121 8.725 11.071 9.501 35.525 12.295 44.13 4.018 12.106 3.242 20.78 4.829 29.954M81.49 181.812c.775 10.899 4.604 25.747 2.638 24.954-1.966-.794-2.776.914-3.277-.397-1.724-4.484-3.707-6.07-5.173-12.382a67 67 0 0 0-2.57-10.45c-2.034-6.208-8.174-17.469-7.277-18.849q.654.768 1.19 1.621c6.674 8.45 10.002 22.108 11.606 21.66s.724-2.259-2.777-9.916c-10.657-23.16-7.225-7.984-15.382-28.316-.241-.586-1.086-.828 0-2.725 3.69-6.311 7.329-4.104-5.794-12.071-6.312-3.863-5.174-2.949-4.605-8.364.073-2.377.6-4.718 1.552-6.898a15.6 15.6 0 0 1 2.156-4.535c1.431-1.931 1.035-2.018 3.276-2.932 1.19-.5-1.293 5.536.915 12.072a42.2 42.2 0 0 0 6.035 10.105 117 117 0 0 1 7.76 11.623 35.9 35.9 0 0 1 5.64 11.692 94.6 94.6 0 0 1 4.086 24.108"/><path fill="#AC8EFF" d="M132.397 237.582c.603 2.242-16.659 5.035-19.918 5.88-24.436 6.295-13.21 2.656-28.54 6.398-3.846.828-7.295 1.897-10.14 2.259-9.692 1.259-15.107-1.483-19.97-8.364a44.4 44.4 0 0 1-7.087-12.33 113 113 0 0 1-5.036-12.502c-6.363-21.763-12.071-27.592-16.83-42.353a95.1 95.1 0 0 1-4.105-24.35c0-.552 0-1.552-.793-1.552-2 0 .241 15.158.603 17.09 3.45 18.262 11.21 27.246 17.866 47.802 3.794 11.658 12.623 35.542 24.66 37.939 14.486 2.983 23.298-3.967 23.005-1.845-.587 4.156-.155 8.622-1.138 13.468-1.121 5.639.103 11.864 0 19.814 0 3.88.12 2.897 2.345 15.607.414 2.379.207 2.741-7.38 3.155-1.957.238-3.932.295-5.899.173-3.449-.414-5.518.931-8.743 1.466-2.897.482-28.126.396-31.35 0-13.297-1.725-8.882-.811-16.556-3.536-13.796-4.845-15.762-1.258-13.796-9.967 1.07-4.604 2-6.795 2.518-10.347 1.966-13.209 2.656-6.708 3.018-17.883.224-6.898 4.553-4.449 2.018-12.778-.518-1.725 1.483-4.587 3.052-3.76 1.88 1.018 2.052.483 4.846 1.811 3.845 1.725 13.364 3.449 13.33 1.069 0-.586-.724-1.224-1.828-.983-2.052.466-6.519-.603-8.622-1.121-2.104-.517-1.294-.827-5.777-2.052-3.087-.845-1.828-.931-2.95-7.346-.448-2.587.104-13.399-1.19-15.796-2-3.777-.913-13.537-.74-15.676 1.275-15.52-1.898-20.366.258-39.318 1.724-14.52 1.724-14.744 4.346-21.521 1.345-3.449 8.277-12.882 14.037-17.245 6.363-4.898 10.347-6.312 16.451-9.002 5.76-2.518 3.087-2.294 2.19 2.656-.344 1.862-.258 1.172-1.069 8.277 0 .794-.138 1.57.483 2.052a34.2 34.2 0 0 0 7.346 4.915c.88.517.173.311 4.864 3.328 1.483.949 1.293.932-1.449 4.277-.81.983-.12.983-3.828-3.759-.794-1.018-1.725-2.087-2.466-1.587-1.242.742 2.086 1.604 7.38 13.037 3.794 8.157 3.622 13.796 6.674 19.866 8.52 16.797 4.605 17.642 10.899 30.593 2.604 5.311 3.26 4.121-3.328 7.173-3.622 1.725-3.69 1.604-7.26 5.381-.707.741.19 1.724.741 1.379.552-.345 1.397-1.259 2.966-2.69s3.915-2.173 8.623-4.449c2.552-1.259 4.138-4.139 6.535.966a1.8 1.8 0 0 1-.138 1.483 9.13 9.13 0 0 1-3.69 3.949c-2.81 2.017-2.638 1.931-5.76 6.639a.847.847 0 0 0 .565 1.252.85.85 0 0 0 .522-.062c.586-.19.862-.845 3.276-4.104.931-1.259 1.725-1.414 5.432-4.329.621-.483.638-1.276 1.621-1.448 7.364-1.38 6.45-1.639 11.675-2.018 9.226-.69 6.76-.103 10.778-1.155 8.157-2.121 9.761-1.001 12.64-2.708a15.7 15.7 0 0 1 4.588-1.724c3.138-.776-1.57 5.397 5.225 30.506M41.465 260.69c.155-1.414-2.207-1.035-5.174-1.138-14.537-.587-20.141-6.398-21.09-3.984-1.035 2.708 25.85 8.795 26.264 5.156z"/><path fill="#FFC6A6" d="M270.027 125.612c-1.173 9.416 4.915 11.692 4.673 12.572-2.742 9.846-3.983 13.795-.741 20.279.586 1.173-.104.587-2.294 3.018-9.26 10.175-4.501 5.036-8.778 7.536-.586.328-.413-.189-1.241-1.224-1.811-2.259 1.5-.69.12-17.486a16 16 0 0 1 1.139-6.191c.879-2.828-2.691-1.466-5.622-.966-16.038 2.776-12.072 2.121-17.09-12.382-1.224-3.449-4.587-9.829 0-18.728 1.966-3.776.449-9.329 2.242-12.174.811-1.276 1.949-2.984 3.449-2.622 2.018.5 2.294.397 2.466 0 .621-1.724-3.311-1.897-4.794-.93-1.811 1.155 3.966-10.451 11.037-12.314 3.449-.896 6.898.156 10.347 6.312a37.95 37.95 0 0 1 4.863 14.486c.516 3.197.742 6.435.672 9.674a97 97 0 0 1-.448 11.14m-5.277-23.384c1.293-.379-1.207-6.346-4.242-6.38-4.984 1.345-5.174 3.57-4.363 3.88s4.552-5.45 6.898.586c.413 1.035.741 2.207 1.707 1.914m-1.552 24.557c.19-1.414-1.621-4.898-2.742-4.122a.486.486 0 0 0-.19.673c.742 1.172.914 1.017-1.552 1.862-4.639 1.604-14.313.552-14.572-.327-.345-1.242-1.879-.294-1.81 1.517 0 1.069.914.138 1.483 1.328 2.949 6.225 1.345 9.554 5.656 9.519 7.605-1 8.864-7.76 11.916-11.33.397-.448.379.38.569 1a.64.64 0 0 0 1.055.262.64.64 0 0 0 .187-.382m-8.536-15.417c.086-1.725-1.483-1.414-1.725-.655-.241.758-.396 2.207.518 2.293.913.086 1.051-.966 1.207-1.638m-5.708 8.26c.5-3.173-3.553 2.001-5.174-1.949-1.121-2.655 3.57-.689 3.949-2.69.38-2-2.673-.189-2.724-.621-4.777 0-3.191 5.933-.276 6.571s4.121-.759 4.225-1.311m-5.381-8.622c.69 1.103 2.052-.535 1.294-1.863a.7.7 0 0 0-.441-.328.71.71 0 0 0-.542.087c-.552.276-.518 1.707-.311 2.035zM267.75 224.994c.483.724-3.88 3.915-4.604 4.397-7.053 4.725-6.105 3.949-7.243 1.621-1.534-3.155-2-2.673.828-4.19 1.518.655 2.414 1.311 4.104.655 4.674-1.724 1.914-3.811 4.398-4.863 1.121-.552.638-.465 2.517 2.38M260.526 210.715c1.052 6.19 4.432 8.018 3.104 8.622-1.724.741-.879-.517-3.345-.862a4.67 4.67 0 0 0-4.57 2.207c-.794 1.449-.518 2.69-1.276 2.966-1.449.517-1.725 1.069-1.984.5-2.742-4.432-9.174-10.692-14.433-17.245-1.57-1.948-3.087-4.207-4.294-6.07-1.208-1.862-.276-2.173.724-1.069 2.138 2.38 6.501 7.967 8.364 7.984 1.448 0 .12-1.724 0-1.983-1.518-2.259-6.726-10.554-7.916-12.968a3.62 3.62 0 0 1-.534-2.5c.5-2.742 10.829 14.365 11.778 14.434 2.38.155-1.449-4.398-3.328-7.778-.776-1.397-5.174-9.484-5.777-10.83-.604-1.345.448-1.724.672-1.724.931.276 1.638 2.431 5.174 7.674 5.052 7.45 5.604 8.381 6.38 9.743.448.811 1.569.828 1.466 0-.086-.586-3.449-6.622-5.932-11.209a22.2 22.2 0 0 1-2.277-5.794c0-.707.483-1.19.949-.673 1.069 1.156 3.138 5.277 6.501 10.347a29 29 0 0 1 2.777 3.932c.534 1.035 2.362 4.311 3.449 4.001 2.655-.725-.863-10.347 2.276-12.572.414-.293.759 0 .793.88v4.742c.155 3.311.535 5.518.569 6.036.88 11.519-.069 4.725.69 9.209M186.356 215.164c4.346 2.708 4.242 2.759 4.001 3.449a60 60 0 0 1-2.949 7.312c-.397.879 0 .724-3.76-1.018-.189-.103-.793-.12-.758-.413 0-.932 0-.621-4.57-9.209-.207-.414-.794-2.777-1.397-4.277-1.569-3.759-11.209-5.346-8.381-7.087 5.863 1.914 8.967 2.31 11.951 4.587 2.31 1.862 2.328 4.501 5.863 6.656"/><path fill="#FFC6A6" d="M182.562 203.213c2.19.811.138 3.294-1.397 2.984-1.155.103-4.983-1.88-8.915-2.449-1.018-.155-3.449-1.121-4.173-1.104a1.72 1.72 0 0 0-1.512 1.746c.005.283.08.56.218.806 1.069 2.122 3.208 2.691 5.725 3.846 4.795 2.19 2.604 5.174 6.157 10.606.207.293 2.759 3.656 2.673 5.38 0 1.173-1.466 2.432-2.552 1.328a19.3 19.3 0 0 1-3.829-5.312c-.5-.827-.966-1.086-1.069-1.345-.483-1.241-3.139-2.621-3.759-.31-.362 1.293-1.276-3.139-3.691-2-.759.362-.896 1.207-1.517.551a2.47 2.47 0 0 0-3.26-.689c-.724.551 0-.638-2.5-.932-.845 0-1.931.932-1.725 3.191.173 1.224.656 1.966-.224 1.724-7.432-1.379-3.828-2.811-13.468-.103-1.983.552-1.931.5-2.207-.742-1.294-5.622-1.311-7.915-2.397-12.071-.414-1.535.224-.931 4.087-1.914 1.397-.363 4.414-1.949 6.794-2.88 1.725-.69 5.001-.759 8.329-2.656 2.898-1.724 6.398-3.621 9.433-2.897 4.536 1.104 6.312 1.155 7.071 1.724a22.8 22.8 0 0 0 7.708 3.518"/><path fill="#FFC6A6" d="M176.836 226.753c1.035 1.052 1.035 1.052-.344 1.569-3.95 1.483-4.398-3.622-5.174-8.002 0-.172.173-.414.276-.672a7.22 7.22 0 0 1 2.449 4.983c.517 3.001 1.569.88 2.793 2.122M170.111 224.89c1.069 3.449 2.517 3.707.621 3.69-1.897-.017-1.863-.328-2.742-2.259a36.6 36.6 0 0 1-1.242-6.087c-.19-1.311.948-1.501 1.38-.621a25.3 25.3 0 0 1 1.983 5.277M163.058 218.613c1.724-.5 3.777 9.605 3.742 9.622-2.38 1.535-3.707-2-3.707-5.449-.639-4.053-.777-4.035-.035-4.173M161.937 226.752c.121.311 0 .311-.276.294-3.138-.156-2.845-7.726-2.707-8.623s.948-.793 1.449.293c1.966 4.363.534 5.174 1.534 8.036"/><path fill="#FFD152" d="M129.757 27.524c0 2.086-2.776 5.415-2.673 7.329a.916.916 0 0 0 1.363.793c.983-.431 1.017-.448 1.19.586.586 3.587-3.794 8.123-6.209 8.623-6.898 1.483-7.587 1.724-9.105-.656-2-3.155-4.052 3.139-12.071-2.638-2.794-2.018-2.277-3.742-3.76-3.242-2.293.759.828 1.621-1.172 5.173a4.4 4.4 0 0 1-1.225 1.466 1.498 1.498 0 0 0 .121 2.328 5.35 5.35 0 0 1 2.673 4.88c.259 10.882-7.26 9.606-7.83 14.02-.327 2.57 1.553 6.33-3.034 7.364a2 2 0 0 1-.897-.224c-.914-.328-.966-1.121-1.052-1.914-1-9.14-16.658-11.83-16.624 4.104 0 5.95 3 7.088 1.57 7.536-1.104.362-1.725.259-2.173 1.448-1.104 2.898-3.812 3.57-5.053 2.139s-2.139-.776-3.777-.12a2.637 2.637 0 0 1-3.621-1.932c-.81-2.984-4.674-4.156-7.07-8.364a4.81 4.81 0 0 1 1.724-6.174c.948-.483 2.38-2.138 2.276-3.104-.362-3.276-3.81-3.966-2.81-11.02.655-4.483 2-4.983 3.845-7.139 2.794-3.242 1.12-9.312 3.57-15.382a9.36 9.36 0 0 1 4.656-5.57c1.724-.604 1.828-1.19 3.673-1.138 2.759 0 4.225 2.328 4.915.138 2.052-6.363 12.071-6.898 13.795-3.19.949 1.966.811 2.517 1.622 2.604 1.345.137 0-1.311 5.052-4.553a9.5 9.5 0 0 1 5.915-.724 4.83 4.83 0 0 1 2.897 5.294c-.293 1.966.845 2.535 1.725 1.88a5.7 5.7 0 0 1 1.724-1.277c3.001-1.207 5.588 2.104 5.76 2.69.172.587 2.863 1.173 2.052-1.034-2.5-6.898.586-10.537 3.225-5.415a1.05 1.05 0 0 0 1.697.2 1.05 1.05 0 0 0 .269-.597c.638-2.914.362-3.845 1.724-4.207a1.536 1.536 0 0 1 1.863.534 12.5 12.5 0 0 1 2.086 3.45c.811 3.19-.207 4.466 1.035 4.741 1.242.276 1.259-.62 2.552-2.776.966-1.345 3.518-1.948 3.587 3.07"/><path fill="#FFC6A6" d="M127.655 82.38a2.83 2.83 0 0 1 1.626 2.625 2.83 2.83 0 0 1-1.747 2.547 11.36 11.36 0 0 1-5.759 1.018c-1.828 0-.966 1.362-3.449 6.105-1.104 2.19-.88.827-5.363 8.415-1.639 2.794-4.053 7.64-6.898 10.106-1.259 1.086-3.242 2.879-10.744 0a42.2 42.2 0 0 1-10.036-6.14c-.604-.517-1.294-1.138-2.139-1.897-1.448-1.293-4.19-.155 4.001 7.83 3.052 3.052 1.845 3.88-2.345 9.053-2.208 2.708 0 4.346-.431 6.795-.431 2.81 1.172 9.398-.656 11.554-.293-.483-.88-3.173-1.397-4.915-1.051-3.622-.19-6.553-.741-8.847-.466-1.931-1.724-1.966-6.26-2.949a29.2 29.2 0 0 1-6.656-3.794c-3.984-3.155-6.502-3.207-8.209-5.018-2.38-2.517.207-4.207 4.139-21.814.603-2.76-.276-3.605.776-3.45 2.587.294 4.052-1.43 5.294-3.724.5-.931 1.31-.535 1.966-1.087 1.052-.88 1.983 1.19 5.467 1.725a6.14 6.14 0 0 0 5.173-1.725c.31-.603.328-1.328-.155-1.552-1.138-.5-2.742 1.828-5.467.931-5.829-1.88-7.174-7.19-5.673-12.985 1.88-7.329 11.243-6.139 12.45.638.31 1.725.449 3.173 2.311 3.69 2.966.828 7.105-1.724 6.329-6.897-.88-5.484 4.294-2.518 7.053-10.64a13.56 13.56 0 0 0-.672-10.537c-.673-1.07-1.725-1.242-1.311-1.724 1.949-2.587 1.259-3.639 1.983-3.156 3.104 2.07 5.174 3.914 10.209 3.535 1.5-.12 2.242-.966 2.535-.328 1.725 3.622 6.777 2.121 10.657 1.139.414-.121.38 0 1.087 2.069 2.655 7.984.293 12.727-1.501 20.883-2.414 10.968.121 10.52 4.553 12.52m-4.915-24.661c1.328.466 1.483-1.31.725-2.57-4.139-6.897-14.831 4.484-11.882 5.83.379.154.828-.484 1.293-1.208 2.001-3.19 7.554-7.105 9.106-3.31.206.447.293 1.051.758 1.206zm-5.708 12.589c.19-1.432-1.069-1.966-1.862-1.121-3.294 3.432 1.259 5.742 1.862 1.12m-10.347 33.403c2.208-1.587 12.072-10.537 7.364-11.537-8.795-1.914-10.347-3.138-15.227-6.536-.535-.362-.104-.552.62-.776 1.242-.38 2.156-.19 2.587-.448a.52.52 0 0 0 .328-.517c0-1.725-3.26-1.19-4.708-.449A6.9 6.9 0 0 0 94.2 87.88c0 1.138.949 1.156 1.431.449s.811-1.57 1.035-.828c2.26 6.898 1.725 12.071 4.018 15.71a4.1 4.1 0 0 0 2.919 1.588 4.09 4.09 0 0 0 3.134-1.105zM81.939 75.567c.897-9.191-8.622-7.518-8.157-2.931a.62.62 0 0 0 .604.62c.655 0 .724 0 1.035-.81a2.156 2.156 0 0 1 4.052-.103q.395 1.054.638 2.155c.31 1.587-4.915.88-4.57 4.57-.103 2.035 1.88 3.07 2.828 2.483.949-.586 1.276-2.517 0-2.31s-.655-.846.19-1.225c1.931-.931 3.277-.81 3.38-2.449"/><path fill="#FF9C9F" d="M100.235 96.347s5.691.673 7.174 3.897c1.483 3.225-8.467 7.226-7.174-3.897"/><path fill="#fff" d="M257.731 268.191s2.449 8.123 1.863 9.709-4.035-.207-4.035-.207z"/><path fill="#FFF59E" d="M255.956 278.919h4.431l.121 5.207-5.501-.189z"/><path fill="#000001" d="M328.436 60.84a5.57 5.57 0 0 1-1.724 2.57c-2.259 1.725-3.208 2.949-7.14 3.639-5.708.983-10.967 4.242-12.244 9.415 0 .207-.448.932-.931.104-.086-.173-.327-.517 0-1.518a17 17 0 0 1 1.725-3.587c2.379-3.535 7.277-4.914 10.433-5.69a21 21 0 0 0 5.363-2.173 20.5 20.5 0 0 0 3.19-2.777c.845-.741 1.328-.327 1.328.018M320.864 20.591c.983-1.052 1.88.259 1.294.845-4.26 3.535-1.466 5.38-10.503 14.641-3.121 3.19-4.983 2.604-6.277 4.139a6.4 6.4 0 0 0-1.724 3.552 25.9 25.9 0 0 1-1.104 6.38c-4.708 9.779-10.519 11.33-11.537 15.262-.241.932-1.172 1.156-1.276-.396 0-3.708 11.054-10.175 12.072-17.9.517-4.174.138-5.536 1.724-7.26 4.242-4.794 2.397.948 10.14-8.123a17.5 17.5 0 0 0 3.828-5.966c.639-1.995 1.8-3.781 3.363-5.174M317.778 317.27c.156.897.138 1.949-.793 1.914-2.328 0-1.138-14.796-8.053-27.591-.811-1.501-.086 1.034-10.623 3.173-7.329 1.483-13.606.172-17.728 1.052-11.157 2.345-18.521.603-18.4-1.811 0-1.862-1.966-2.449-2.518-8.312-.172-1.725-1 0-3.759-.862-.949-.311-.621 9.105-1.638 9.829-5.174 3.622-13.037-1.931-21.263-3.673-1.725-.379-1.863-.759-1.897.086-.845 17.073 4.397 26.402 2.156 26.695-.777.086-1.07-.517-1.225-1.293-1.379-6.898-3.897-18.487-2.38-26.212.242-1.242-1-.707-3.725-3.104-4.242-3.708 1.104-10.795 4.639-19.987.673-1.724 1.259-3.57 1.966-5.311 1.311-3.294 2.018-2.725 2.621-6.088.845-4.794.863-4.052.466-5.725-2.587 3.449-4.828 6.346-9.433 8.105-3.035 1.155-12.778-4.38-15.52-6.191-8.933-5.794-6.898-2.345-12.072-6.553-1.31-1.086-.724-.362.363 3.121.914 2.949 1.724 5.174-1.363 5.691-3.535.569-4.345-.155-4.259.88.983 12.381-4.208 31.678-3.173 61.909 0 2.379-1.483 1.81-1.501.689-.776-30.592 4.829-61.012 3.294-63.236-.19-.276-.793-.207-1.207-.363-3.777-1.414-8.484-.81-9.864-.81-1.828 0-3.052-.655-9.467-2.069-1.052-.242-4.053-.087-5.967-2.363-.983-1.155-.914 6.898-6.243 19.366a.45.45 0 0 1-.534.328c-1.725-.19 1.724-4.329 3.449-12.779 1.966-9.226 2.172-5.518 3.173-14.968 0-.621 0-.621-.518-.69a7.3 7.3 0 0 0-1.259-.121c-.327 0-.465.19-.569.638-.103.449-.172 2.018-.517 4.518-.31 2.139-1.431 2.053-5.173 3.553-.69.276-.207 3.138-2.053 11.709 0 0-1.724 7.846-1.845 8.019-3.207 4.466 3.691-19.832 2.121-19.504-2.397.5-4.811-1.069-7.984 0-4.208 1.449-9.295-.466-13.02-.414s-3.569-.207-3.449.242c1.725 23.125 0 17.434 4.587 38.387.475 1.399.714 2.867.707 4.345.207 2.449-4.156 4.104-5.88 4.449-2.656.535-2.828.5-2.707.983.707 2.759 0 3.811 0 12.882 0 5.294 1.258 8.967-.777 8.623-1.069-.19-.879-.518-1-5.433-.31-12.519 1.121-16.365-.845-16.054-3.932.62-4.742 2.621-7.174 2.948-4.207.552-3.949-1-5.725-12.537 0-.5-.259-.482-2.673.121-8.295 2.052-6.449 2.19-20.159 2.587-1.587 0-1.724 0-1.517.948.327 1.88 1.552 8.847 1.724 10.175.397 7.087-12.571 3.328-21.332 5.88-6.208 1.725-17.52.707-20.918.776-9.26.19-5.622.845-15.52-.431-8.019-1.017-8.295-.776-10.778-1.862a46.5 46.5 0 0 0-8.191-2.794c-1.725-.448-.466 4.553-.397 13.141 0 2.673-2.242 1.396-2.138-.173.19-3.087-.26-6.139-.276-9.209 0-7.173 1.276-3.155-6.191-6.346a4.674 4.674 0 0 1-3-4.794c.827-1.948.344-3.794 2.344-10.347 1.346-4.449.794-7.622 2.673-12.761 2.363-6.501-.138-10.002 3.553-15.83.948-1.501.293-2.518-.276-5.898a5.45 5.45 0 0 1 3.035-5.053c.517-.172-.19-1.931-.828-8.053-.138-1.414 0-5.605-.258-9.588-.518-7.14-2.122-5.001-2.053-14.538 0-1.19.932-11.174.794-14.14-.69-13.434-.707-11.382-.828-14.314-.483-11.209 2.432-31.282 2.863-32.765 4.07-14.071 14.778-26.039 32.61-33.334 4.656-1.897 4.035-2.293 5.363-2.587 3.052-.672 2.57-4.725 7.57-5.897 1.07-.242 5.57-17.435 5.622-20.694 0-3.69-4.829 2.173-8.07-3.035a6.14 6.14 0 0 0-2.415-3.45c-3.26-2.413-6.346-6.242-5.57-10.346.845-4.415 4.811-5.38 4.087-6.277a28 28 0 0 1-1.57-2.897c-1.258-2.104-1.293-5.863-.724-9.123 1.07-5.984 3.777-4.914 5.019-8.622 1.724-5.398-.518-8.14 3.449-15.762 1.724-3.087 3.57-3.76 6.467-5.07s5.5.897 5.966-.241c2.311-5.76 13.606-7.381 16.538-3.225 1.052 1.483.931 1.345 1.57.759 2.12-2 3.069-2.915 5.638-3.311 10.14-1.587 7.898 6.432 9.83 5.863 4.57-1.328 5.673 1.724 5.742.362a16 16 0 0 1 .535-4.38c.776-1.931 3.001-2.897 5.536-.949.707.552.413-.724.914-1.603a4.034 4.034 0 0 1 5.57-1.139c3.19 3.087 2.88 6.226 3.604 5.38 1.224-1.413 3.104-.74 3.449-.74 2.517 0 3.259 4.173 2.949 6.673a11 11 0 0 1-1.725 4.242c-.397.76 1 .293 1.345 2.052a7.87 7.87 0 0 1-.759 6.433 12.2 12.2 0 0 1-4.345 4.656 1.175 1.175 0 0 0-.414 1.466 25.86 25.86 0 0 1 .914 16.124c-5.76 21.435-.449 13.26 3.914 18.624 1.121 1.38 2.294 8.622-7.484 8.622-1.897 0-.586 1.725-3.552 6.277-9.468 14.141-10.451 22.677-22.09 19.263-5.502-1.587-6.588-4.76-6.433-1.276 0 .603 1.052.189 1.914 1.586.638 1.052 1.914-.638 5.173 2.035 12.072 9.692 8.847 6.898 10.054 10.623a.55.55 0 0 0 .328.259s.19-.173.259-.276c7.139-11.761 4.673-5.036 16.52-13.244 3.449-2.415 2.19-.863 13.261-5.76 5.07-2.242 2.087-.69 5.363-3.449 5.829-4.846 6.019-.552 4.622-7.795-1.518-7.829-1.362-7.294-1.724-7.156-5.571 1.983-10.002-7.26-8.192-12.692.397-1.19 1.621-3.311 3.829-3.208 2.207.103-.569 0 0-9.209.465-7.105 5.173-14.882 12.899-16.296 8.743-1.587 9.588-2.138 18.831-.345 2.259.431 8.916 3.346 11.451 8.622 5.449 11.192 2.19 15.314.603 21.712-.966 3.862.914 6.605.793 11.398-.172 6.07-6.897 14.124-6.363 14.59a27.6 27.6 0 0 1 5.898 5.742c2.5 3.449 11.364 7.381 12.968 8.295 2.932 1.724 2.397 2.949 4.087 5.173 5.329 6.898 5.398 22.988 6.467 26.557 9.502 31.886 9.277 36.37 7.415 49.527-.828 5.881-11.382 13.296-18.124 7.571-.656-.569-.414 0-.638 2.552-.38 4.311-.725 4.38.172 4.846a79 79 0 0 0 10.606 5.173c1.862.811 2.052 1.173 2.259.621 1.293-3.449 6.225-.259 6.898-1.897 5.863-15.693.62-8.795 12.606-36.214 2.793-6.398 2.103-6.536 7.622-9.674 1.517-.88-11.054-10.192.638-26.937 2.845-4.104 3.19-3.449 2.518-5.363-1.639-4.466-.742-2.724-3.794-12.071-1.966-6.053-3.311-10.864.655-18.969 2.138-4.381-.793-12.64 5.691-20.987.465-.57-3.587-3.45-3.208-6.898-1.328-5.053 6.812-8.916 12.572-9.76 2.656-.397 7.691.689 10.019-.673 1.914-1.121 5.949-1.173 8.174-.931 7.019.724 6.26 2.362 8.623 1.62a23.4 23.4 0 0 1 6.328-.465c1.704.124 3.376.526 4.95 1.19 3.069.31 5.828 3.276 7.484 4.76 10.347 9.398 12.468 8.898 15.848 31.126a73.6 73.6 0 0 1-3.449 31.541c-2.483 6.656-3.846 6.777.241 13.106 4.553 7.088 8.881 15.417 5.553 23.97-1.104 2.811 0 1.138-.19 7.967 0 1.621-.431 2.587-.086 3.449 2.811 6.898.38 18.745.518 22.677.431 12.468.12 7.433-2.708 20.332-.259 1.172-.862 7.622-1.345 11.14-.966 6.898-6.381 23.022-6.45 23.229-.603 1.465 6.898 8.07 8.399 17.038.276 1.724-.466 2.034-2.725 3.69-2.932 2.121-3.035 1.845-2.552 2.552 4.018 5.881 6.053 18.918 7.294 26.35m-1.724-139.683c1.017-1.879.914-5.656.741-7.794-.827-10.209-11.588-16.883-8.622-24.246 5.691-14.227 7.708-26.368 3.69-44.613-2.638-12.071-4.104-12.071-13.554-20.693-4.156-3.794-5.415-5.45-14.762-5.881-.345 0-2.017.19-1.414.604a15.2 15.2 0 0 1 4.415 4.018c.535.845 1.397 1.43 1.724 2.448.328 1.018 1.001 1.725 1.242 2.846s.949 2.88.931 3.345a.706.706 0 0 1-1.362.276c-1.276-3.656-1.897-6.277-5.656-9.743a18.8 18.8 0 0 0-8.054-4.277 32 32 0 0 0-7.398-.741c-4.104 1-3.621.327-.293 2.12 2.863 1.553 2.38 1.294 5.45 4.502.638.672 1.207 1.155.655 1.828-.88 1.103-2.673-2.156-5.174-3.811-11.226-7.468-28.988-.414-25.367 7.19a12.6 12.6 0 0 0 2.415 3.19c.47-.4.908-.84 1.31-1.31 2.914-3.449 3.673-2.57 4.363-3.914-1.017-.431-3.449.552-4.38.758a.694.694 0 0 1-.5-1.293c2.742-1.724 6.294-1.466 9.674-.759a13.56 13.56 0 0 1 9.33 5.915 47.2 47.2 0 0 1 4.569 10.123 48 48 0 0 1 2.018 17.693c-.207 5.587 0 6.501-.241 9.071-.69 7.225.655 8.346 3.069 11.123.569.638.552.707.914 0 5.174-11.52 3.777-14.693 4.242-17.555 4.122-25.557-4.88-28.092-4.035-30.024a.79.79 0 0 1 .907-.19.8.8 0 0 1 .266.19c8.622 9.571 4.69 28.265 4.294 31.955a36.94 36.94 0 0 1-4.087 16.21c-1.604 3.156-5.036 14.675-3.018 18.969 4.363 9.209 7.881 11.399 16.262 15.624s20.245 9.985 23.539 14.21c1.224 1.552 1.724 2.776 1.569-.224-.879-14.572-13.158-16.797-18.331-21.298-.707-.62-.362-1.828.776-1.172 0 0 2.621 1.724 3.897 2.483 2.742 1.466 4.001.845 10.468 7.432 2.69 2.742 2.673 4.76 3.483 5.45zm-3.535 61.306c1.569-13.02 4.104-16.452 3.552-22.677-1.173-13.055 6.795-27.73-10.864-36.025 0 0-11.278-6.26-12.261-6.26 0 .501.483 1.38.948 2.777 1 3.069-1.397 4.38-3.759 6.501-4.949 4.415-6.639 2.656-3.57 6.381 2.259 2.742 4.553 6.225 1.932 8.243-.673.517-1.018.879-6.795 6.104-13.227 11.917-10.726 12.072-11.864 12.348-2.277.603.293-2.949 1.724-4.725a110 110 0 0 1 12.554-12.072c4.95-4.345 5.984-2.966 0-10.709-2.638-3.449 0-2.828 3.812-5.966 4.397-3.57 5.983-4.26 3.449-8.45-1.984-3.346-1.19-1.466-8.312-5.95-.138 0 .206-1.31-4.743 8.295-9.191 17.883 0 2.776-9.415 20.694-1.311 2.5-6.347 15.296-5.829 16.313 4.035 7.881 2.362 1.725 4.414 7.553.656 1.88 1.897-.465 3.139 1.414a44 44 0 0 1 3.345 5.381c1.311 2.569 2.329 1.052 3.346 3.19a11.4 11.4 0 0 0 2.363 3.225c2.241 2.138 1.517 1.483 1.724.241.759-6.294.879-7.691 1.724-10.002 3.743-9.829 3.725-7.674 3.105-13.623-.104-4.725 4.897-17.383 11.191-24.143.742-.81 1.294.19 1.018.776 0 0-12.071 16.021-10.347 25.695.931 5.087-2.811 6.363-4.622 18.555-.758 5.174-1.121 4.846-.482 5.433a32.5 32.5 0 0 1 3.845 4.587c.845 1.034 11.968 10.226 9.692 11.812-.742.518-1.725-.793-2.173-1.621-2.501-3.897-5.415-5.501-7.674-7.743-2.914-2.897-2.794-4.104-5.967-6.622a21.4 21.4 0 0 1-4.483-5.173c-1.725-4.518 1 3.656-17.521 11.916-.569.259-.569.259-.276.724a23 23 0 0 0 3.035 3.811c2.725 2.639 5.173 7.761 7.398 10.796a33.5 33.5 0 0 0 6.45 5.708c1.724 1.448 2.207 2.793 5.518 7.967 1.242 1.931 2.518 1.949 7.329 2.725 8.812 1.448 14.175-3.311 17.141-9.589 1.397-2.966 2.087-6.897 2.69-8.26 2.398-5.018 3.777-13.761 4.484-19.521zm.517 46.664c.845-.724.897-.742.638-1.914-1.345-6.053-2.242-5.174-7.174-13.796-.155-.276-.31-.328-.5 0-7.225 11.123-15.158 8.985-22.694 7.657-3.225-.569-4.139-2.897-7.019-7.605-1.621-2.69-2.448-2.915-5.984-5.726-3.897-3.069-8.277-13.157-12.071-16.089-.276.724-.379 3.035-.483 9.847-.172 12.485 2.501 10.347 3.018 19.659.638 11.744 1.224 10.847 3.449 16.124.362.879 4.242 1.397 4.777 1.431a43.3 43.3 0 0 0 10.95-1.138c7.26-1.604 20.177 2.845 33.059-8.416zm-32.179-116.954c1.518-2.087 1.173.897-5.328-7.536-.449-.569-.449-.914-2.604 1.5-5.312 6.019-5.743 7.105-7.899 7.364s-2.569 2.569-2.793 4.897c-.242 2.69-1.207 3.777-2.173 6.277-.811 2.104-.621 3.156-1.242 3.104-2.362-.189 1.725-7.087 1.914-9.588.19-2.5.966-3.587.501-4.604-.638-1.38-2.087-2.501-1.449-4.777 1.293-4.622 1.035-10.347-2.156-5.432-2.017 3.035-4.673 4.277-4.863 7.312 0 .948 0 2.673-.086 4.19a52 52 0 0 0 .155 7.416c.156.913 1.035 1.724 1.363 1.621.327-.104 0-1.57.862-3.898.172-.5 1.207-2.69 1.724-4.018.397-.931 1.501-1.949 2.449-1.276.949.673.655 1.224.845 1.931.104.397-.121.57-.483.673s-.483-.759-1.052-1.19-.965.431-2.552 4.742c-.69 1.915-.103 2.018-.931 4.036-.362.896-2.035.758-2.639-.5-1.12-2.311-1.396 12.554-.672 13.623 4.087 6.036 4.397 8.502 3.777.431a10.6 10.6 0 0 1 1.431-5.484 1.94 1.94 0 0 1 1.186-.974 1.94 1.94 0 0 1 1.521.198c1.363.949.518 3.346.932 8.847a55 55 0 0 1 1.034 10.554c.032.639.124 1.274.276 1.897.173 1.086 3.449-9.037 3.553-9.071 1.575-3.546 3.348-7 5.311-10.347 2-3.932.776-4.26 2.794-8.174 2.586-5.053 4.707-7.277-3.76.655-1.724 1.587-3.363 1.725-3.673-.465s-1.104-3.777-.638-5.743c.259-1.086-.103-3.449-.586-3.57-.483-.12-.362 1.225-1.173 1.19-.81-.034-.707-2.121.707-2.638.983-.293 1.725.483 2.069 1.431 1.035 2.501.104 4.26.259 5.467.742 6.277 1.225 3.725 4.691.793 7.053-5.88 1.535-.034 9.398-10.864m-6.156-30.42c.241-.879-5.846-3.156-4.674-12.571.358-3.708.502-7.434.432-11.158a53.5 53.5 0 0 0-.656-9.657 37.9 37.9 0 0 0-4.811-14.554c-3.449-6.157-6.898-7.209-10.347-6.312-7.07 1.862-12.865 13.468-11.037 12.313 1.483-.966 5.415-.725 4.794.93-.172.484-.448.587-2.466 0-1.465-.361-2.604 1.346-3.449 2.622-1.724 2.845-.275 8.398-2.241 12.175-4.622 8.898-1.259 15.193 0 18.728 5.052 14.503 1.052 15.158 17.089 12.382 2.932-.501 6.502-1.863 5.622.965a16 16 0 0 0-1.121 6.191c1.38 16.797-1.931 15.227-.121 17.486.811 1.035.656 1.552 1.242 1.225 4.277-2.501-.483 2.638 8.778-7.536 2.19-2.432 2.88-1.845 2.293-3.018-3.311-6.467-2.086-10.364.673-20.211m-3.846 96.571a27 27 0 0 0 2.984-3.76c-2.329-3.293-3.243-6.225-3.881-5.535a43.9 43.9 0 0 1-12.623 9.347c-3.225 2.466-4.432-.88-1.017 3.776 1.414 1.932 2.673 4.053 2.931 3.708.259-.345 3.812.465 11.606-7.502zm-7.708-5.398c.724-.483 5.173-3.673 4.604-4.397-1.88-2.846-1.397-2.863-2.518-2.38-2.483 1.052.276 3.087-4.397 4.863-1.725.655-2.587 0-4.104-.655-2.828 1.517-2.363 1.034-.828 4.19 1.138 2.363.19 3.156 7.243-1.586zm.483-10.14c1.327-.517-2.053-2.345-3.104-8.622-.759-4.484.189 2.311-.725-9.088 0-.517-.414-2.725-.569-6.036v-4.742c0-.793-.379-1.173-.793-.88-3.173 2.242.397 11.83-2.276 12.572-1.121.31-2.949-2.966-3.449-4.001a29 29 0 0 0-2.777-3.932c-3.449-5.173-5.432-9.243-6.501-10.347-.466-.517-.88 0-.949.673a22 22 0 0 0 2.277 5.794c2.449 4.587 5.846 10.623 5.932 11.209.103.845-1.017.828-1.466 0-.776-1.362-1.328-2.293-6.38-9.743-3.553-5.173-4.26-7.398-5.174-7.674-.224 0-1.19.31-.672 1.725.517 1.414 4.983 9.432 5.777 10.829 1.879 3.449 5.708 7.933 3.328 7.778-.949 0-11.278-17.245-11.778-14.434a3.62 3.62 0 0 0 .534 2.5c1.19 2.415 6.398 10.709 7.916 12.968.207.345 1.534 1.983 0 1.983-1.863 0-6.226-5.604-8.364-7.984-1-1.104-1.845-.638-.724 1.069 1.121 1.708 2.724 4.122 4.294 6.071 5.259 6.466 11.692 12.726 14.433 17.244.345.569.535 0 1.984-.5.758-.276.482-1.517 1.276-2.966a4.67 4.67 0 0 1 4.57-2.207c2.5.258 1.569 1.517 3.38.776zm-2.449 5.76a2.483 2.483 0 0 0-1.897-4.535c-3.277.586-2.294 6.794 1.897 4.535m-2.759-68.1c.983-1.069 2.035.104 1.966-.965-.587-9.175-.621-9.847-3.639-10.537-.242 0-.397 0-.448.259-.414 1.724-1.621 4.984-.138 7.777s-1.725 2.587-2.001-1.362c-.5-7.036 2.518-6.691-1.345-6.191-4.708.603-6.001 1.207-9.157-.931-.431-.311-.293-.449-2.328 2.69-1.621 2.483-5.57 7.743-5.173 13.416a18.97 18.97 0 0 0 3.897 11.416c.586.725 1.035.19 1.38-.172 1.965-1.88 2.828-.655 3.449-2.156 1.069-2.31 2.328-1.897 1.724-2.983-4.363-6.898-.811-12.813-.328-15.52 0-.466.794-.224.638-.759 2.829.793-4.311 7.95 1.156 15.52.414.569.517 0 1.586-.69 5.243-3.035-.327 1.19 8.709-8.812zm-.794 126.491c1.604-.155 1.897 0 1.828-.655-.379-3.122 0-3.329-.672-3.311-1.897.103-2.363-.363-2.483.396-.638 3.829-1.173 3.173 1.276 3.57zm.104-5.605c1.345 0 2.052.397.362-6.294-.31-1.19-.621 1.897-1.207 5.277-.242 1-.259 1 .845 1.017m-1.311-35.196c.828-.656-2.604-4.536-3.449-5.691-1.172-1.725-.465-3.311 1.018-4.708.517-.5.448-.655-.914-3.328-.345-.655-.897.155-1.569-1.104-.673-1.259-1.346-1.828-.846-2.518s.121-.724-.103-1.069-2.242-2.966-4.742-5.88c-.88-1.035-2.156-2.397-4.036-4.277-1.586-1.569-1.621-2.259-4.38-5.363a71 71 0 0 1-4.518-6.639c-1.966-2.949-1.104-4.432.362-4.553 2.535-.207 9.847 12.537 1.518-1.845-1.725-3.052-2.277-4.604-1.569-6.001 1.724-3.449 4.259 1.586 5.173 2.207 0-1.069-1.897-2.69-2.794-6.156a1.9 1.9 0 0 1 1.246-2.243c.299-.099.617-.123.927-.068 1.725.345 3.553 4.346 4.639 5.329 0-1.001-2.156-4.225-.707-5.726.293-.31-.759-.845-.966-1.259-1.931-3.845.845-4.414 1.811-7.794-1.38-.345-.121.793-5.501 3.569a9.4 9.4 0 0 0-3.449 4.967c-1.932 5.57-5.174 11.433-6.588 15.986-6.898 22.28-3.017 13.089-7.139 23.177-.535 1.276 1.725 1.724 4.156 9.071 1.828 5.466-1.017 5.466-1.069 3.638-.121-4.276-2.966-8.519-4.553-11.002-.552-.862-1.466-.69-3.69-.914-.121 0-1.552-.535-1.863.69-.155.534.621.396 1.121.862a13.3 13.3 0 0 1 1.725 1.725c3.087 10.812 1.017 6.691 3.449 14.227a.707.707 0 0 1-.362.931c-2.087.948-2.277-7.278-4.208-14.037-.448-1.553-1.121-1.277-9.485-5.174-11.019-5.087-4.294-5.053-7.639 3.449-6.467 16.417-8.83 12.813-6.657 14.382 3.88 2.811 5.019 1.173 9.64 5.001 3.449 2.794 2.742.311 10.037 5.036 3.449 2.172 13.571 8.622 16.951 6.328a23.8 23.8 0 0 0 7.278-7.501 2.66 2.66 0 0 0 .258-2.242c-.5-11.606 0-15.417-1.517-23.022-1.121-5.328 0-4.845-.466-13.899-.103-2.121-.31-3.294.431-3.57 1.276-.465.673 10.227 1.449 16.935.327 2.88 1.224 2.655 1.535 19.279a20.8 20.8 0 0 0 .396 5.846c2.328 5.571-1.431 11.796-4.19 18.97-4.277 11.019-8.399 17.245-5.553 19.124 4.38 2.828 4.328 2.88 6.674 3.449 9.019 2.242 16.175 6.553 18.969 4.432.862-.621 1.069-8.915 1.397-10.743 4.294-23.522 2.362-11.83 2.207-18.797-.448-18.97 1.483-17.538 0-19.073a1.845 1.845 0 0 1 .104-2.414zm-4.983-73.653v-2c0-.569-.104-.587-3.449 1.879-1.621 1.225-1.621 1.949-3.449 5.002-5.433 9.346-3.277 3.742 2.259 13.037.241.431 2.586 4.225 2.949 4.569.448-1.052-.621-.275.845-12.64a44.4 44.4 0 0 0 .793-9.847zm-37.646 35.542c2.276-2.242 1.983-2.966 3.087-14.279-.776-14.21-6.484-29.592-6.898-31.041a174 174 0 0 1-3.311-18.848c-1.897-12.313-4.673-12.917-5.829-15.865s-7.346-4.398-10.502-7.174c-1.621-1.432-.207 1.017.311 2.466 2.5 6.898 1.724 4.69-5.174 8.622a2.6 2.6 0 0 0-.517.449c-1.414 1.396 2.845.413 7.45 4.276 1.414 1.207.896 2.69 0 4.467-5.174 10.743-3.898 7.07-2.829 8.312 1.88 2.224 2.07 3.293 2.777 3.931 1.345-1.931 2.224-20.848 3.949-20.107.81.345.603-.397 0 4.346 0 0-.828 6.104-.845 6.708-.207 6.087-2.087 8.381-1.863 11.192.932 1.724 1.518 3.828 2.777 6.225a12.83 12.83 0 0 1 .741 8.329c-1.259 5.433-3.259 7.002-1.914 6.898.345 0 2.897-1.241 4.449.776.759.983 1.725 1.846 2.484 2.794.224.259.258.707.5.914.241.207 8.622 4.622 10.709 7.639.396.604-.138 1.294-1.035.983 0 0-9.26-6.639-9.312-6.656-.69-.552-.345.552-1.621 2.483a24.28 24.28 0 0 1-11.244 8.898c-1.241.432-1.241.173-.258 1.311a10.7 10.7 0 0 1 2.345 2.966c2.949 6.484 7.501 15.348 14.485 13.71 3.76-.914 3.898-1.621 7.036-4.725zm-12.416-26.109c-.259-.465 0-.155-1.156-1.483-4.069-4.57.966-2-10.105 7.622a35 35 0 0 1-3.57 1.983c-.793.397 1.552 2.57 2.156 3.087 1.569 1.363 11.502-5.915 12.623-11.209zm-10.899 73.929c1.725.62 8.122 1.155 7.847-.69a44 44 0 0 0-1.294-4.674c-1.121-2.793-.483-3.052-1.517-3.345a15.7 15.7 0 0 1-7.088-4.018c-1.466-1.587.224-2.345-.742-2.57a20.3 20.3 0 0 1-3.707-1.724c-2.466-1.155-.569-4.518.517-7.088.483-1.172-.207-.879-1.017-1.517-.811-.638-.449 1.052-3.122 1.724-1.534.38-3.449 2.708-6.57 1.725-1.448-.449-3.259.914-5.587-.414s-.742 4.173-1.88 14.761c.293 3.122.276 3.449.466 3.536a7.24 7.24 0 0 0 4.414 1.586c1.915 0 7.123 2.052 10.451 2.069a23.6 23.6 0 0 1 8.829.639m6.898-44.458c0-.827-.552-.172-3.725-5.518-2.483-4.225-2.242-6.277-4.742-8.622-1.725-1.552-1.052-2.535-1.449-3.294-.396-.759-.741-.328-2.155-2.776-2.587-4.519 3.656-6.898 2.414-8.813-3.001-4.466-3.621-4.224-1.725-13.088-.379-1.639-1.724-6.898-2.897-8.209-1.034 1.311-4.225 10.571-4.759 12.072-5.95 17.744-4.76 19.348-5.812 18.969-3.449-1.156 11.002-36.214 10.847-36.525a3.26 3.26 0 0 1 .707-3.242c1.069-.983 0-3.276 2.518-3.621.88-.121.759-.742 1.414-2.104 4.984-10.105 5.174-8.519.552-10.83-.949-.483-12.227-2.311-.707-7.208 2.242-.948 2.707-1.276 2.621-1.725a28.25 28.25 0 0 0-10.243-15.52c-.863-.655-1.035-.293-2.535 1.173-1.138 1.103.207-.311 1.052 3.069 1.569 6.295 0 7.174-5.605 42.198-.19 1.156 1.38.535 1.345 2.949a4 4 0 0 1-.155.621.367.367 0 0 0 .155.362 1.88 1.88 0 0 1 .828 1.725 3.76 3.76 0 0 1-.949 2.414 2.43 2.43 0 0 0-.603 1.604 4.33 4.33 0 0 1-.379 4.104 76 76 0 0 1-3.743 7.622c-.534 1.018-.551.138-.534 8.26 0 4.76-.983 5.174-.793 9.054.086.998.086 2.002 0 3.001 0 .965 4.966.81 7.88 2.466 5.57 3.138 6.76 2.638 8.019 3.673a2.755 2.755 0 0 1 .207 4.38c-1.31 1.173-2.259.862-1.604 1.724 3.777 5.001 1.139 3.053 7.45 7.398a.566.566 0 0 0 .69 0c1.38-.638 1.724-.207 3.449.673 1.311.638.81.638 1.828-.224.31-.086.328 1.086 1.017-8.192zm-.31 12.624c-.363-.466 0-.397-1.725-1.363-5.708-3.242.276-2.345-9.364 13.382-1.31 2.121.518 1.156 4.036 3.329 1.224.845 6.484-12.124 6.932-15.348zm-.932-57.857c.242-3.173-3.586-10.053-5.173-12.83-.69-1.172-1.069-2.138-1.414-2.707-.517-.88-.897-.569-1.087-.345s0 1.017.104 1.397c.931 3 4.811 7.967 5.26 11.95 0 .587-.432.742-.742.138-4.173-10.157-1.517-2.811-5.329-11.364-.431-.948-.741-2.294-1.345-2.242-1 .121-.569 1.621.397 3.949 2 4.725 6.294 12.072 5.173 12.072-.534.103-.534.12-1.138-1.19-5.639-12.072-5.535-11.451-5.863-11.434s-.707 1.087-.604 1.518c.57 2.121.897 1.276 1.846 3.07a42.2 42.2 0 0 1 3.673 9.001c.603 2.38-.587 1.104-.793.621a92 92 0 0 0-3.794-8.657c-1.38-2.621-2.242-.517-.845 2.104a27.5 27.5 0 0 1 2.483 7.053c.517 2.121.138 1.725-.638 7.519-.38 2.794.672 2.897 2.983 6.898 1.207 2.069 1.156 2.88 1.725 2.38a23.8 23.8 0 0 0 4.242-5.036c.155-.241.276-.138-1.466-2.604-1.362-1.983 2.156-5.156 2.225-11.261zm-5.656 56.115c.242-.707.345-.742-4.001-3.449-3.552-2.225-3.552-4.863-5.863-6.639-2.983-2.277-6.087-2.673-11.951-4.587-2.828 1.724 6.898 3.328 8.381 7.087.604 1.501 1.19 3.863 1.397 4.277 4.484 8.622 4.639 8.277 4.57 9.209 0 .293.569.31.759.414 3.69 1.724 3.363 1.896 3.759 1.017a60 60 0 0 0 2.828-7.329zM184.528 95.45c1.724-3.587.396-8.622 0-10.347-1.432-7.76 6.725-13.95-.949-26.556a16.67 16.67 0 0 0-10.743-7.002c-8.209-1.845-17.918.328-20.556 1.725-10.347 5.552-9.381 22.16-6.398 23.642a7.18 7.18 0 0 1 2.501 3.742c.31.949-.794 1.5-1.346.518a15.3 15.3 0 0 0-1.965-3.122 3.23 3.23 0 0 0-4.76.673 7.9 7.9 0 0 0-.621 4.052c.242 3.363 2.811 8.174 5.846 7.554a3.12 3.12 0 0 0 2.173-2.294c.397-1.069 2.328-.431.914 2.328-.552 1.07 1.586 6.726 2.121 12.744.483 5.174-.81 4.622 0 5.518 2.656 2.915 9.95 5.174 11.554 6.088 2.518 1.328.604 2.983 2.242 2.862 2.19-.172 2.569.328 2.707-.465.225-1.294.604-2.087 2.225-2.276 1.069-.121 4.001-1.397 4.018-2.225 0-1.259 0-1.483-.569-1.362-3.19.724-10.261 1.121-12.847-.845-.983-.759-.639-2.277.948-1.483 3.656 1.845 12.071 1.724 15.658-1.466 2.708-2.311 6.088-8.485 7.726-12.003zm-3.363 110.746c1.535.311 3.587-2.172 1.397-2.983a22.8 22.8 0 0 1-7.622-3.449c-.759-.552-2.535-.603-7.071-1.724-3.035-.725-6.536 1.241-9.433 2.897-3.328 1.897-6.605 1.966-8.329 2.656-2.38.931-5.398 2.517-6.794 2.879-3.863.983-4.501.38-4.087 1.915 1.086 4.173 1.103 6.466 2.397 12.071.275 1.242.224 1.293 2.207.741 9.64-2.707 6.036-1.276 13.468.104.88.172.397-.569.224-1.725-.293-2.259.794-3.276 1.725-3.19 2.552.293 1.724 1.483 2.5.931a2.467 2.467 0 0 1 3.26.69c.62.655.758-.19 1.517-.552 2.414-1.138 3.328 3.294 3.69 2.001.621-2.311 3.277-.932 3.76.31.103.259.569.517 1.069 1.345a19.3 19.3 0 0 0 3.828 5.312c1.087 1.103 2.501-.156 2.553-1.328 0-1.725-2.484-5.087-2.673-5.381-3.553-5.397-1.363-8.415-6.157-10.605-2.518-1.156-4.656-1.725-5.725-3.846a1.722 1.722 0 0 1 1.293-2.552c.69 0 3.156.948 4.174 1.104 3.845.5 7.674 2.483 8.829 2.379m-8.364-79.326c5.018-3.724 5.984-9.208 4.242-15.072-.224-.793-.948-.965-1.603-1.155a.604.604 0 1 0-.414 1.138c1.931 1.156-.173 1.88-2.018 3.104-2.794 1.845-4.518.38-4.777 3.018 0 .483.552.517.794.776.241.259.327-.19.517-.276 3.483-1.535 2.345 6.519 3.259 8.502zm3.691 101.417c1.379-.517 1.379-.517.344-1.569-1.034-1.052-2.276.879-2.707-2.121a7.23 7.23 0 0 0-2.449-4.984c-.103.259-.189.5-.276.672.69 4.415 1.139 9.52 5.088 8.037zm-3.881-81.516c.225-.207 4.432-22.418 3.915-21.401-.828 1.431-4.915 5.38-5.173 2.259-.207-2.173-.104-6.656-.759-7.915-.138-.155-.483 0-.604.327-.12.328.155 1.621 0 2.863a34.3 34.3 0 0 0-.914 5.984c.604.845 3.018 16.659 3.535 17.917zm.742 15.003c.586-.845.948-1.414.535-2.294-.259-.552-.949-.345-1.311.276a50 50 0 0 1-3.449 4.191c-.879 1.19-3.949 7.605-5.415 7.174s2.518-3.605 3.691-6.536a67 67 0 0 1 4.707-5.657c.432-.569.914-1 .914-1.724s-.672-1.362-1.155-.828-1.086 1.725-2.811 3.708-1.259 1.914-6.363 8.898c-.483.673-1.276.535-.966-.448.552-1.725 4.38-6.07 6.363-9.14a16 16 0 0 0 1.207-1.724q.136-.209.18-.454a1.224 1.224 0 0 0-.206-.934 1.2 1.2 0 0 0-.353-.337c-.431-.259-.879.242-1.138.5a28.6 28.6 0 0 0-2.794 4.191c-9.002 13.796-4.604 4.432-8.967 13.899-4.967 10.761-5.26 9.657-8.433 10.933-.879.345-.914.966-1.241 3.122-.552 3.552.103 3 .293 5.397s1.069 2.708 2.449 2.207a25.1 25.1 0 0 0 6.897-4.466c5.398-4.553 5.174-4.208 7.761-8.053 2.724-4.191 1.724-5.501 3.673-7.691a45.2 45.2 0 0 0 5.535-9.502c.449-1.225-.189-1.914-.914-1.087a32.5 32.5 0 0 0-3.19 4.725c-1.328 2.346-2.621 4.225-3.259 3.829-.914-.621-.207-.811 4.294-7.709.327-.552 2.587-3.173 3.466-4.432zm-1.845-6.691c1.103-4.811.396-3.915-1.725-15.658-.431-2.38-1.069-5.07-1.586-8.623-.293-2.017-2.621-.983-3.691-.845-.724 0-1.483 7.433-1.879 14.538-.414 7.777-.414 15.365-.414 15.365-.362 7.311 4.501-9.261 7.984-4.536q.14.276.311.535c.241.345 1-.569 1-.776m-.742 73.497c1.897 0 .431-.327-.621-3.69a25.3 25.3 0 0 0-1.983-5.277c-.431-.88-1.569-.69-1.379.621a36.7 36.7 0 0 0 1.241 6.087c.845 1.932.983 2.242 2.708 2.259zm-2.138-104.486c.431-2.432 0-3.449-.224-3.897a3.35 3.35 0 0 0-2.832-1.176 3.34 3.34 0 0 0-2.6 1.624 6.2 6.2 0 0 0-.823 2.311 6.2 6.2 0 0 0 .133 2.449c.333.984.767 1.932 1.293 2.828.328.81.845-.138 3.449-.121.552 0 .811.414 1.569-4.018zm-1.535 65.203c.483-2.673 1-9.675.466-10.347a22.6 22.6 0 0 1-3.449 7.053c-.345.5-.155.534 1.086 3.121a.59.59 0 0 1-1.069.5c-1.173-2.397-1-2.19-1.586-1.724-9.02 8.001-10.347 7.208-11.365 9.657-.5 1.224-.379 1.724-1.259 2.311a10.35 10.35 0 0 1-5.966 1.724c-.863 0-.294.586-1.587 1.035-2.276.81-2.621-.397-7.432-.311-.88 0-1.725.259-2.656.225-3.277-.138-6.381-.604-6.036.707s-.172 2.293 1.069 2c2.553-.604 2.208 1.724 4.346 1.017 8.433-3.138 6.329-.931 9.157-1 4.104-.465 8.174-3.449 10.347-3.776 5.035-.914 9.743-3.829 11.882-4.708 2.707-1.121 3.88 0 3.862-1.052a27 27 0 0 1 .19-6.432m-.293 38.921s-1.983-10.123-3.742-9.623c-.742.207-.604.19 0 4.174.034 3.397 1.379 6.984 3.742 5.397zm-1.862 10.554c.758 0 .5-.293.431-2.983-.121-4.519-.104-1.121-1.345 1.724-.656 1.311-.673 1.293.914 1.207zm-1.863-2.983c1.725-6.243 1.483-5.622.862-6.019-1.259-.845-.414-.897-1.966-1.035a3.9 3.9 0 0 1-1.724-.31 4.61 4.61 0 0 1-2.328-3.759c0-2.156.19-1.501-1.725-1.897-6.328-1.345-4.932-1.897-10.916-.138-1.207.362-.258-.397 0 7.76.104 2.638-1.552 3.087-4.035 3.725-6.26 1.724-6.156 1.397-6.104 2.069.344 3.811-.742 4.191-4.95 5.484-.5.138-.414 0 .311 4.346.103.517 1.362.896 1.724.948 2.363.345 1.897-.586 5.432.138 1.8.404 3.639.607 5.484.604a8.23 8.23 0 0 0 4.604-.518c1.932-.517 1.915-.345 6.898.225a21.5 21.5 0 0 0 5.07-1.415c1.035-.293 1.38-1.051 1.552-4.449.276-3.845 1.173-3.552 1.811-5.811zm-.19-105.625c.104-.517 0-.327-1.086-2.552a7.33 7.33 0 0 1-.31-6.743c0-.379-.397-1.293-.604-1.724s-.241-.414-.535 0c-1.879 2.707-1.155 6.07-2.017 9.208-.587 2.139-4.087-.862-5.588-1.483.121 1.587 5.881 25.316 7.881 29.817.242-.69.362-18.211 2.259-26.523m-.482-10.933c0-.138.396-.431.379-.569-.397-2.983-.362-1.949-3.794-3.449-9.898-4.501-7.829-4.208-9.898-5.95-1.104 1.484-.501 2.656 1.724 11.348 1 4 1.069 4.587 1.966 4.449.5 0 4.087 3.018 4.242 1.948.862-6.259.776-7.484 2.69-9.484 1.915-2.001 2.449 1.362 2.639 1.707zm-.69 107.814c.276 0 .396 0 .276-.293-1.018-2.862.431-3.673-1.535-8.019-.5-1.086-1.311-1.12-1.449-.293s-.483 8.45 2.656 8.605zm-1.725-61.408c1.897-2.156 1.552-2.19 1.138-2.777 0 0-4.656-13.14-6.139-20.004-5.57-25.763-10.002-31.54-6.449-35.196a2.16 2.16 0 0 0 .724-1.621c0-3.087-9.709 4.811-12.296 14.02-.344 1.241-.31 1.328.949 1.724 4.07 1.018 5.829 1.121 7.501 2.552.776.673.845 1.725-.534 2.639a42 42 0 0 0-5.829 4.811c-2.397 2.052-2.069-.552 4.691 15.727.569 1.414 10.778 22.315 12.071 23.833 2.311-3.26-.517-.38 4.191-5.708zm-7.38 12.537c2.535-4.932 2.379-4.777 2.138-5.174-22.418-44.647-20.004-39.421-15.658-43.319a28 28 0 0 1 4.828-4.087c.259-.155.242-.276 0-.431-3.345-2.104-9.485-.948-8.622-4.794.81-3.449 4.432-8.622 3.828-8.829-.448.155-2.828 1.276-4.949 2.155-4.794 1.984-6.036 1.949-8.002 3.449a35 35 0 0 1-10.071 5.329c-2.742 1.173-3.156 2.518-5.897 7.053-.673 1.121-.639 1.466-.225 1.949 7.898 8.898 9.209 41.025 11.865 44.353.517-.569 3.449-11.968 2.828-15.072-1.569-7.398 3.69-13.795-.638-24.832-.328-.845.638-1.138.983-.535 3.449 5.933 2 13.296 1.535 17.59-1.242 11.175.914 6.346-1.121 15.71-2.087 9.674-3.346 10.054-2.156 10.192 3.449.396 11.658 2.569 14.934 1.724 2.225-.621 3.949.845 4.691.518a9.3 9.3 0 0 1 5.501-.794 2.02 2.02 0 0 1 1.724 1.156c.224.638.224.638.449.31a44 44 0 0 0 2.052-3.621zm-5.174 3.621c.535-.879-4.501-.5-5.518 1.983a18.56 18.56 0 0 0-2.07 7.967c.242 2.363.294 4.605 1.587 6.208.638.794 1.931 3.26 4.397 2.38s3.449-.362.897-2.673c-1.345-1.224-1.552-2.569-1.949-5.587a13.7 13.7 0 0 1 .518-5.639 10.86 10.86 0 0 1 2.207-4.639zm-5.587 19.573c1.466-.293-2.949-1.518-3.328-9.14-.242-5.173 3.121-9.95 2.345-10.209-2.483-.827-2.535 1.863-17.245-1.724-1.104.12-.362-.776 1.311 11.226 1.414 10.226-.414 9.209 2.69 9.261 11.14.155 10.45 0 11.657.327a4.38 4.38 0 0 0 2.57.259m-4.156 31.903c8.398-2.173 4.69 0 3.638-7.571-.379-2.742-1.172-2.604-2.172-8.76-1.863-11.554-1.518-6.812-1.397-10.485 0-.552.258-.345-7.036 1.587-1.725.431.983 20.607 2.794 25.677.258.707.241.552 4.173-.448m-3.811 58.442c1.276-.827-2.397-9.933-3.449-20.09s-.932-29.764-2.777-29.316c-14.003 3.656-16.71 2.828-16.537 3.949 2.69 18.607.241 18.055 1.569 28.971.862 6.898 2.276 16.297 2.638 20.039 0 .983.276 2.276 1.259 2.362 2.535.225 2.311-2.293 9.83-3.345a14.6 14.6 0 0 0 7.467-2.57m-21.401-48.285c3.259-.845 20.521-3.639 19.918-5.881-6.795-25.142-2.087-31.316-5.295-30.54a15.7 15.7 0 0 0-4.587 1.724c-2.88 1.725-4.483.587-12.64 2.708-4.018 1.052-1.552.465-10.778 1.155-5.174.38-4.311.638-11.675 2.018-.983.172-1 .966-1.62 1.449-3.726 2.914-4.502 3.069-5.433 4.328-2.414 3.259-2.69 3.915-3.276 4.104a.844.844 0 0 1-1.087-1.19c3.121-4.708 2.949-4.621 5.76-6.639a9.1 9.1 0 0 0 3.828-3.915 1.8 1.8 0 0 0 .138-1.483c-2.397-5.173-3.983-2.224-6.536-.965-4.638 2.276-6.898 2.931-8.622 4.449s-2.363 2.276-2.966 2.69-1.449-.638-.742-1.379c3.57-3.777 3.639-3.708 7.26-5.381 6.588-3.052 5.933-1.862 3.329-7.174-6.295-12.951-2.363-13.796-10.9-30.592-3.051-6.018-2.879-11.709-6.673-19.866-5.294-11.433-8.622-12.296-7.38-13.037.827-.5 1.724.569 2.465 1.586 3.708 4.743 3.018 4.743 3.829 3.76 2.742-3.346 2.931-3.328 1.448-4.277-4.69-3.018-3.983-2.811-4.863-3.328a34.2 34.2 0 0 1-7.346-4.915c-.62-.483-.57-1.259-.483-2.052.81-7.105.724-6.415 1.07-8.278.896-4.949 3.569-5.173-2.19-2.655-5.985 2.759-10.02 4.173-16.332 9.088-5.76 4.432-12.692 13.796-14.037 17.245-2.656 6.777-2.69 7.001-4.346 21.521-2.155 18.969 1.018 23.729-.258 39.318-.173 2.139-1.26 11.899.741 15.676 1.294 2.397.742 13.209 1.19 15.796 1.121 6.415-.138 6.501 2.949 7.346 4.484 1.225 3.915 1.57 5.777 2.052 1.863.483 6.501 1.587 8.622 1.121 1.104-.241 1.811.397 1.828.983 0 2.346-9.484.725-13.33-1.069-2.794-1.328-2.966-.793-4.846-1.811-1.569-.827-3.57 2.053-3.052 3.76 2.535 8.329-1.724 5.828-2.018 12.778-.362 11.175-1.052 4.673-3.017 17.883-.518 3.449-1.449 5.674-2.518 10.347-2.035 8.708 0 5.173 13.796 9.967 7.674 2.725 3.259 1.828 16.555 3.536 3.224.431 28.454.517 31.35 0 3.225-.535 5.347-1.88 8.744-1.466 1.967.122 3.941.065 5.898-.173 7.587-.414 7.794-.776 7.38-3.156-2.259-12.847-2.38-11.726-2.345-15.606.103-7.95-1.12-14.175 0-19.814.983-4.932.552-9.313 1.138-13.469.293-2.121-8.519 4.829-23.004 1.846-12.072-2.466-20.867-26.35-24.66-37.939-6.812-20.607-14.607-29.592-18.056-47.854-.362-1.932-2.604-17.107-.603-17.09.741 0 .776 1 .793 1.552a95 95 0 0 0 4.156 24.384c4.673 14.779 10.468 20.591 16.83 42.354a113 113 0 0 0 5.036 12.502 44.4 44.4 0 0 0 7.088 12.33c4.863 6.898 10.347 9.623 19.97 8.364 2.845-.362 6.294-1.431 10.14-2.259 15.278-3.691 4.052-.104 28.488-6.398zm14.606-208.662c-.103-1.914 2.69-5.173 2.673-7.33 0-5.017-2.621-4.414-3.449-3.051-1.293 2.155-1.5 3.017-2.552 2.776s-.224-1.552-1.035-4.742a12.6 12.6 0 0 0-2.086-3.45 1.54 1.54 0 0 0-1.846-.396c-1.414.362-1.138 1.293-1.724 4.208a1.05 1.05 0 0 1-.838.918 1.05 1.05 0 0 1-1.128-.522c-2.638-5.173-5.725-1.43-3.225 5.415.811 2.208-1.914 1.483-2.052 1.035s-2.759-3.897-5.76-2.69a5.7 5.7 0 0 0-1.724 1.276c-.949.655-2.087.086-1.725-1.88a4.83 4.83 0 0 0-2.897-5.294 9.5 9.5 0 0 0-5.915.724c-4.983 3.242-3.707 4.691-5.052 4.553-.81-.086-.673-.638-1.621-2.604-1.725-3.708-11.813-3.173-13.796 3.19-.69 2.19-2.156 0-4.915-.138-1.845 0-2 .535-3.673 1.139a9.36 9.36 0 0 0-4.656 5.57c-2.45 6.07-.776 12.071-3.57 15.382-1.845 2.156-3.19 2.656-3.846 7.14-1 7.052 2.45 7.742 2.811 11.019.104.965-1.328 2.62-2.276 3.104a4.81 4.81 0 0 0-1.724 6.173c2.397 4.208 6.26 5.38 7.07 8.364a2.64 2.64 0 0 0 3.621 1.932c1.725-.656 2.639-1.173 3.777.12s3.949.76 5.053-2.138c.465-1.19 1.069-1.087 2.172-1.449 1.432-.448-1.569-1.586-1.569-7.536 0-15.934 15.624-13.244 16.624-4.104.087.793.138 1.587 1.052 1.914.278.143.585.22.897.224 4.587-1.034 2.707-4.794 3.035-7.363.57-4.415 8.088-3.139 7.83-14.02a5.35 5.35 0 0 0-2.674-4.88 1.5 1.5 0 0 1-.12-2.328c.51-.393.929-.893 1.224-1.466 2-3.45-1.121-4.38 1.172-5.174 1.484-.5.966 1.225 3.76 3.242 8.001 5.777 10.054-.517 12.071 2.639 1.518 2.414 2.139 2.138 9.106.655 2.414-.517 6.794-5.053 6.208-8.622-.173-1.035-.207-1.018-1.19-.587a.917.917 0 0 1-1.46-.294.92.92 0 0 1-.058-.568zm.449 52.786a2.83 2.83 0 0 0 .12-5.173c-4.466-1.949-6.898-1.5-4.552-12.468 1.724-8.157 4.156-12.9 1.5-20.884-.707-2.138-.673-2.19-1.086-2.069-3.881.931-8.916 2.432-10.641-1.19-.293-.638-1.034.207-2.535.328-5.069.38-7.104-1.466-10.208-3.535-.725-.483 0 .569-1.984 3.155-.379.483.639.656 1.311 1.725a13.55 13.55 0 0 1 .673 10.536c-2.777 8.123-7.95 5.157-7.088 10.606.776 5.173-3.449 7.708-6.329 6.898-1.862-.517-2-1.966-2.31-3.69-1.208-6.778-10.572-7.968-12.451-.638-1.5 5.794-.156 11.105 5.673 12.985 2.725.896 4.329-1.431 5.467-.931.483.224.465.948.155 1.552a6.14 6.14 0 0 1-5.174 1.724c-3.449-.552-4.414-2.621-5.466-1.724-.655.551-1.466.155-1.966 1.086-1.225 2.225-2.604 3.95-5.277 3.656-1.052-.104-.172.742-.776 3.449-3.932 17.607-6.519 19.297-4.139 21.815 1.725 1.724 4.225 1.862 8.209 5.018a29.2 29.2 0 0 0 6.656 3.794c4.622.983 5.794 1.017 6.26 2.949.552 2.293-.31 5.173.742 8.846.517 1.725 1.103 4.432 1.397 4.915 1.827-2.156.224-8.743.655-11.554.362-2.449-1.725-4.087.43-6.795 4.191-5.173 5.398-5.949 2.277-9.001-8.191-7.985-5.45-9.123-4-7.83.844.759 1.534 1.38 2.138 1.897a42.2 42.2 0 0 0 10.191 5.967c7.502 2.966 9.485 1.173 10.744 0 2.845-2.466 5.26-7.312 6.898-10.105 4.484-7.588 4.259-6.226 5.363-8.416 2.397-4.742 1.535-6.07 3.449-6.105a11.37 11.37 0 0 0 5.674-.793m-3.812 118.869c.552-.225 1.001-.19.897-.707-1.569-9.175-.81-17.849-4.742-29.92-2.794-8.623-3.57-33.058-12.296-44.13-.414-.534-.534-.517-.879.121-.19.345-5.76 8.623-4.122 9.399a24.7 24.7 0 0 1 8.623 6.432c2.224 2.983-1.57 5.587-3.07 28.575-.431 3.448-.241 7.467-1.035 7.087-1.103-.517-.862-2.19-.845-3.19.604-18.038 3.329-25.764 3.708-29.575a3.68 3.68 0 0 0-1.483-3.708c-1.224-1.172-3.449-1.862-6.794-4.104-.932-.621-2.466.155-.294-5.26 3.984-9.967 8.623-6.811-2.103-15.278-.69-.552-4.019-3.622-4.691-3.07-.673.552 1.604 1.949 1.587 2.587-.19 10.502-4.467-.552 6.294 43.112 1.897 7.725 1.535 19.193 2.345 23.47 2.811 14.882 2.19 13.313 2.552 18.969s-1.396 2.242 10.037 1.207c3.552-.517 3.018-.793 6.311-2.104zm-14.899 79.205c2.673-.621 3.138-.552 2.949-.983-1-7.57-.742-7.381-1.466-7.208-3.139.707-3.001.603-2.845 1.138 1.224 4.432.241 7.294 1.362 6.967zm1.086-10.019c1.207-.224.587 1.086.587-9.916-.104 0 .258-19.763-1.845-19.159-20.229 5.984-20.884.88-20.694 8.347a66.4 66.4 0 0 1-1.07 11.071c-.172 1.569-1.017 12.468.552 12.347 5.346-.379 8.105-1.38 11.813-.862 3.121.362 5.001-.845 10.657-1.914zm-3.931 10.571a.572.572 0 0 0 .482-.673c-.293-4.587-.207-7.122-1.207-6.898-5.173 1.397-3.035.138-12.433.828-1.466.104-.518 5.898-.276 7.364.241 1.465 0 1.121 6.467.724a21.7 21.7 0 0 0 6.967-1.345M88.215 212.56c14.727-3.104 17.383-1.328 17.245-2.501-.724-16.451-2.345-13.468-3.449-30.264-1.19-18.194-1.5-10.761-8.07-43.664-.294-1.466-.225-1.156-.776 0-1.035 2.069-1.19 3.104-2.673 2.776-1.483-.327-1.225-.69-1.604-3.345-.966-6.898-.776-7.329-1.725-7.588-1.224-.362.276-3.949 1.966-.724 1.363 2.587.897 8.519 1.725 8.622.586.138 1.724-4.07 1.724-4.621.604-2.777 1.19-6.243 1.5-7.45.673-2.639-1.327-2.949-2.465-5.622a2.05 2.05 0 0 0-1.156-.966c-.483 0-.327.966-2.086 3.122-3.087 3.862-3.087 4.19-2.915 5.156.349 2.769.544 5.555.587 8.346.344 7.398-1.225 6.691-.794 10.916.242 2.415.259 4.26.431 4.725 4.967 13.175 1.207 5.933 3.967 17.245.207.828.534 1.983-.293 2.173-.828.19-1.208-.224-1.88-3.035-2.087-8.623.759-4.587-3.104-14.365-1.966-4.949 1.293-.759-3.311-14.296a15.2 15.2 0 0 1-.656-5.829c0-5.363-.19-4.828-4.604-5.846-5.277-1.207-8.743-5.173-11.226-6.38a23.6 23.6 0 0 1-5.174-3.173c-.207-.207-.38.465-.38.758 0 5.346-.758 6.364 6.657 17.073 2.156 3.121 3.64 4.656 4.329 5.829.69 1.172 2.5 1.621 2.983 1.207 2.018-1.725 1.932-9.744 3.45-12.21a1.398 1.398 0 0 1 2.655.397c.776 3.725-.845 4.363-1.121 2.501-.724-5.174-.81 11.64-4.966 11.536-.449 0-.432.207-.276.466 12.347 21.073 9.64 37.611 11.278 45.819 3.828 18.97 1.724 18.4 2.828 20.263 1.328 2.104.345 3.156 1.38 2.949m1.449 75.532c.724 0 .138-.828.086-1.725-.5-7.604.862-6.208-2.362-6.397-.449 0-.363 0-.345 1.086.086 8.467-.431 7.139 2.621 7.036m-5.536-81.326c1.966.793-1.862-14.055-2.638-24.954a94.6 94.6 0 0 0-4.087-24.142 35.9 35.9 0 0 0-5.64-11.692 116 116 0 0 0-7.76-11.623 42.2 42.2 0 0 1-6.035-10.106c-2.207-6.518.276-12.554-.914-12.071-2.242.914-1.845 1-3.276 2.931a15.7 15.7 0 0 0-2.19 4.605 18.6 18.6 0 0 0-1.553 6.898c-.655 5.415-1.724 4.501 4.605 8.363 13.123 8.019 9.484 5.812 5.794 12.072-1.104 1.897-.259 2.138 0 2.724 8.157 20.332 4.725 5.174 15.382 28.316 3.45 7.657 4.243 9.52 2.777 9.916s-4.932-13.209-11.606-21.659a14 14 0 0 0-1.19-1.621c-.897 1.379 5.174 12.64 7.277 18.848a68 68 0 0 1 2.57 10.451c1.517 6.311 3.449 7.898 5.173 12.381.518 1.277 1.363-.413 3.311.363"/><path fill="#000001" d="M301.171 152.704c1.069 1.845 10.089 10.088 8.623 11.192-.328.241-.621 0-.845-.207-7.657-8.209-10.658-9.968-11.709-17.556.13-2.129.718-4.205 1.724-6.087.241-.655 1.449-.793 1.19 0-1.483 5.277-2.759 6.019 1.017 12.658M300.345 133.096c.155-.81 2.966-8.898 2.897-13.796-.362-29.316-4.087-26.953-3.622-29.505 1-5.364 9.83 22.107 2.139 43.56-.38.948-1.587.759-1.414-.259M293.549 104.332c.621 0 .587.448 1.294 6.346-3.605 26.695-9.744 32.3-6.277 41.767.379 1.069 1.207 2.052 1.224 2.707 0 1.173-1.276.501-1.621-.275-5.174-12.072-.673-8.623 4.932-43.112.448-2.656-.69-7.364.448-7.433M277.097 19.729c3.604 10.674-6.691 14.606-4.26 20.694 1.294 3.242 5.174 3 2.88 9.726-1.948 5.708-2.811 6.07-2.103 9.346q.395 1.422.62 2.88c-.879 2.363-2.604-1.586-2.552-4.07s1.035-4.19 2.69-9.14a5.172 5.172 0 0 0-.207-4.5c-1.017-1.414-2.776-2.26-3.242-4.777-1.207-6.64 7.502-10.105 4.432-19.452-.983-3.035-2.759-4.035-3.19-9.192-.19-2.207.207-2.19 1.328-9.708.138-.949.103-1.5 1-1.535s.742 1.12.586 2.638c-.258 2.639-1.328 6.726-1.276 8.14.155 4.432 1.794 4.5 3.294 8.95M260.508 95.848c3.035 0 5.536 6.001 4.242 6.38-.965.293-1.293-.845-1.724-1.914-2.345-6.036-5.984-.224-6.898-.586s-.586-2.535 4.38-3.88M260.456 122.663c1.414-.983 4.035 4.898 2.034 4.673a.62.62 0 0 1-.534-.431c-.19-.621-.173-1.448-.569-1-3.053 3.57-4.311 10.347-11.916 11.33-4.312 0-2.708-3.294-5.657-9.519-.569-1.19-1.431-.259-1.483-1.328 0-1.725 1.466-2.759 1.811-1.518.259.88 9.933 1.932 14.572.328 2.466-.845 2.293-.69 1.552-1.862a.464.464 0 0 1 .19-.673m-1.173 3.966c-1.19 0-3.604 1.725-13.796.293-.535 0-.224.294 0 .828.224.535.345.724 1.207 1.035 3.967 1.466 10.019.879 11.175.121a4.07 4.07 0 0 0 1.414-2.277m-5.001 6.743c.466-.552.586-1.949-2.483-1.155-3.07.793-4.294 2.569-3.449 3.293 1.362.949 4.397-.379 5.932-2.138M260.784 237.91c0 1.725-2.294 1.587-2.259-.207.017-1.379 2.034-1.69 2.259.207M255.283 61.41c1.621 4.12-.793 3.172-1.086 2.551-.759-1.724-2.052-7.398-5.346-10.191-2.139-1.725-3.949-1.984-4.898-3.725-.517-.949-.759-2.26-.414-7.33a5.36 5.36 0 0 0-.62-3.672c-.725-1.139-2.053-1.57-4.105-2.242-7.001-2.328-6.898-5.725-5.863-11.778 1.293-7.554-4.432-10.9-5.001-12.192-.569-1.294.914-.811 1.293-.483 4.156 3.69 3.329 3.07 4.674 5.708 2.793 5.552-2.259 12.485 1.966 15.348 4.587 3.086 8.622 1.827 9.139 6.897.449 4.26-.776 8.02 1.052 9.433 6.053 4.657 5.312 1.777 9.209 11.675M252.954 110.712c.224-.759 1.725-1.138 1.725.655-.156.673-.225 1.725-1.19 1.725-.966 0-.759-1.57-.535-2.38M243.747 117.679c1.725 3.949 5.708-1.225 5.174 1.948-.104.552-1.346 1.949-4.26 1.311s-4.501-6.57.276-6.57c0 .431 3.07-1.173 2.725.621-.345 1.793-5.036.034-3.915 2.69M244.868 109.074c.793 1.311-.604 2.967-1.294 1.863a2.6 2.6 0 0 1 .121-1.932.74.74 0 0 1 .604-.265.73.73 0 0 1 .569.334M240.866 69.635c.742.655.397 2.104-.845 1.724-.448-.138-.793-.327-2.587-2-1.258-1.173-1.845-.81-6.501-.862s-5.777-7.795-9.795-6.898c-3.328.724-4.19 2.017-7.674 1.62-4.587-.534-5.277-7.346-3.449-7.225 1.345 0-.569 4.708 3.863 5.38 2.328.363 4.76-1.724 7.915-1.724 2.38 0 3.691 1.294 6.329 4.984 1.725 2.38 3.604 1.862 7.726 1.948 1.949-.017 2.914 1.19 5.018 3.053M189.597 231.081c1.517 0 1.293 2.26 0 2.311a1.22 1.22 0 0 1-1.138-1.086 1.294 1.294 0 0 1 1.138-1.225M179.44 66.583c3.708.362 4.949 3.88 3.846 4.294-1.104.414-1.845-3.277-4.639-2.449-1.362.397-2.69 1.104-2.811-.224-.086-.897 2.88-1.57 3.604-1.621M179.044 91.812c.863-.103.932 1.121.345 1.38-.983.431-1.31.207-1.603.845-1.415 3.035-4.674 10.347-8.226 9.967-3.708.294-4.639-5.414-7.622-9.743-.294-.448-.311-.414-.57 0s-.793.656-1.172 0a2.964 2.964 0 0 1 1.586-4.311c.725 0 1.052.276.69.914s-.121.483.276.586a53 53 0 0 0 9.726 1.397 29.2 29.2 0 0 0 6.57-1.035m-3.138 2.811c.155-.293 0-.43-.293-.396-5.381.793-12.468-1.363-12.537-1 0 0 3.673 6.897 4.845 8.484 2.553 3.363 6.295-4.053 7.985-7.088M176.767 76.585c0-2.449 2.708-1.724 1.828.466a.944.944 0 0 1-1.123.589.95.95 0 0 1-.705-1.055M176.853 79.999a4.24 4.24 0 0 1 1.29 3.72 4.24 4.24 0 0 1-2.325 3.178 6.65 6.65 0 0 1-6.484-.552c-1.017-.638-.776 0-2.448.103-1.966.156-3.329-1.465-1.966-4.087.396-.758 1.862-.551 1.31.725-.103.241-.207.483-.293.724a.73.73 0 0 0 .137.652.74.74 0 0 0 .605.28c1.328 0 1.241-.484 1.897-.915 1.31-.845.5 1.483 3.966 1.725 3.052.258 3.621-1.225 3.863-2.225a2.22 2.22 0 0 0-.449-1.845c-.845-1.173-1.897-1.362-3.276-2.656-.759-.724-1.138-2.638-.311-2.776.294 0 .604 0 .673.258.5 2.139 2.414 2.328 3.811 3.69M169.231 65.997c0 1.724-1.725.569-2.242.345a5.48 5.48 0 0 0-4.518.276 4.64 4.64 0 0 0-2.673 2.328c-2.018 1.086-1.242-2.604 1.19-3.553 1.3-.538 2.653-.943 4.035-1.207 1.19.155 4.173.483 4.208 1.81M166.644 74.17c.828 0 .914.984.81 1.725-.137 1.052-1.586 1.363-1.724-.483.069-.569.052-1.19.914-1.241M163.214 270.123c.983.293.759 1.432-.259 1.397-4.259-.086-7.156-.983-7.208 4.88-.19 18.125-1.362 15.245-.672 20.694.258 2.104.258 19.918.258 19.952 0 1.501-1.448 1.242-1.483.225-.034-1.018 0-12.399 0-12.434.362-15.037-1.224-.259.431-20.194 0-.914.259-10.536.138-12.485a.48.48 0 0 0-.151-.392.474.474 0 0 0-.401-.125c-.689 0-.327 2.069-1.12 5.518-3.07 13.244-1.846-.828-6.898 32.765-1.087 7.122-.207 7.898-1.363 8.054-1.604.206-.552-5.708.138-10.175 2.621-17.124 1.5-14.192 3.742-21.332 3.449-10.864 3.57-10.122 2.846-12.933-.293-1.225-3.139-2.208-4.708-1.845-3.449.81-3.449-1.208-1.414-1.294.724-.052 17.469-.483 18.124-.276M146.33 83.965a1.534 1.534 0 0 1-.741 1.725c-1.846 1.5.517.793.482 2.31-.034 1.518-3.017.639-2.741-1.465-.104-2.173 1.724-1.725 1.224-2.846s-.276-1.5-1.483-2.535c-.742-.655-.897.707-1.018 1.087a.67.67 0 0 1-.742.517.67.67 0 0 1-.585-.69c-.259-3.138 3.742-5.087 5.604 1.897M137.536 229.408c.414 2.552-2.845 2.431-2.811.103a1.42 1.42 0 0 1 1.359-1.318c.35-.013.691.104.959.329.269.224.444.54.493.886M123.464 55.098c.742 1.259.604 3.035-.724 2.57-.466-.156-.552-.76-.759-1.26-1.552-3.794-7.105.121-9.105 3.311-.466.725-.914 1.363-1.294 1.207-2.948-1.345 7.743-12.657 11.882-5.828M115.169 69.17c.793-.845 2.052-.31 1.863 1.12-.604 4.64-5.157 2.311-1.863-1.12M114.099 92.157c4.622 1-5.173 9.951-7.363 11.537a4.08 4.08 0 0 1-3.074 1.032 4.09 4.09 0 0 1-2.858-1.532c-2.242-3.57-1.725-8.864-4.001-15.64-.224-.743-.673.292-1.035.827s-1.431.69-1.431-.449a6.9 6.9 0 0 1 3.449-4.431c1.448-.742 4.777-1.294 4.708.448a.52.52 0 0 1-.328.517c-.431.259-1.345 0-2.587.449-.724.224-1.155.413-.62.776 4.742 3.328 6.346 4.552 15.14 6.466m-.672 1.725c-.328 0-.862-.38-1.207-.431a24 24 0 0 1-5.743-1.725 18.6 18.6 0 0 1-6.898-3.776c-.638-.518-.258.448 0 2.224.259 1.776 6.398 5.174 11.054 6.191 1 .138 2.242-1.62 2.794-2.535zm-7.622 7.743c1.362-1.242-2.484-2.742-4.208-3.45-.948-.344.259 2.639.845 3.536s2.328.845 3.363-.086M73.78 72.636c-.534-4.587 9.037-6.26 8.157 2.931-.155 1.725-1.448 1.518-3.449 2.449-.845.38-1.62 1.431-.19 1.224 1.432-.206 1.173 1.621 0 2.311-1.172.69-2.931-.448-2.828-2.483-.344-3.69 4.88-2.983 4.57-4.57a16 16 0 0 0-.569-2.156 2.156 2.156 0 0 0-4.052.104c-.31.742-.397.81-.949.793a.603.603 0 0 1-.69-.603M36.308 259.587c2.949.103 5.312-.276 5.173 1.138-.413 3.639-27.298-2.449-26.246-5.173.931-2.363 6.536 3.466 21.073 4.035"/></svg>