<svg xmlns="http://www.w3.org/2000/svg" width="472" height="468" fill="none"><path fill="#A5B5B3" d="M401.712 51.24c-.248-5.62.687-10.577-5.374-10.334a29.4 29.4 0 0 0-4.995-.347c-11.105-2.42-30.102-1.595-33.267-1.984-27.421-3.487-52.553-2.15-73.656-4.263-22.384-.514-22.421-1.582-23.959 8.256-7.857 50.23-11.564 103.021-12.348 106.474-4.27 18.788-15.15 122.66-15.113 123.722.355 10.225 7.457 8.253 11.495 9.773.484.182 15.024 1.967 15.951 2.322 4.405 1.679 15.235 2.452 17.05 2.666.055 0 7.331 1.659 16.864 3.008 11.55 1.634 8.559.436 20.021 2.532.055 0 35.258 6.341 35.896 6.351 7.001.105 16.251 6.431 23.6-1.753 3.593-7.991 22.887-203.035 26.637-230.992.308-2.27 1.228-14.717 1.198-15.43"/><path fill="#FFD1BA" d="M76.246 169.056c-6.108-2.757-8.075-4.327-10.763-4.982-4.517-1.101-4.589-2.009-5.094-1.062-5.52 10.307-6.094 8.928-11.706 31.37-1.091 1.763-6.272 18.24-8.013 24.364-4.928 17.34-4 14.299-7.408 20.956-1.62 3.162-.367 2.023-1.679 4.287-3.603 6.23-.324.204-5.29 9.204-2.663 4.823-2.125 6.215-4.372 10.664-2.862 5.654-8.132 9.515-6.001 10.897.466.302.796.049 1.098-.266 7.396-7.648 7.773-10.686 9.303-9.751 1.649 1.007-3.534 5.126-4.464 7.398-.727 1.798-6.448 7.15-3.745 7.304 1.36.076 1.91-1.04 3.889-3.472 3.057-3.765 4.51-4.075 7.37-7.701 3.095-3.928 3.455.605-4.533 6.944a4.7 4.7 0 0 0-.846.898c-1.27 1.711 4.432-1.768 5.759-3.142 1.641-1.702 3.563-4.268 4.002-4.613.608-.479 1.808 0 1.169 1.009-6.2 9.784-1.632 4.288-8.053 11.448-.992 1.099-.248 2.277 1.21 1.265 3.185-2.202 2.361-1.488 5.664-6.299 5.057-7.351 1.469-2.701 6.173-13.536a40.2 40.2 0 0 0 2.756-10.88c.495-2.309 14.57-26.409 16.501-31.392 8.514-14.113 15.691-37.448 21.742-49.409-2.718-1.242-2.909-.707-4.67-1.503"/><path fill="#fff" d="M199.792 151.349c-5.952-6.778-8.241-7.936-9.218-9.831-5.24-10.153-5.615-8.452-7.343-13.92a59 59 0 0 0-4.851-11.083c-1.382-8.129-4.4-7.619-9.982-14.818-.09-1.984-4.648-9.397-5.166-7.854-.459 1.369-1.24 1.766-.593 3.968a17.58 17.58 0 0 1-1.24 12.772 2.837 2.837 0 0 1-3.509 1.27c-5.379-.727-3.99-2.929-9.9-7.014-4.397-3.038-3.901-4.752-6.448-7.777-3.547-4.216-1.295-5.83-5.166-10.389-3.224-3.784-2.039-6.607.347-7.497.444-.166.861-.374.774-1.061-.04-.325-1.357-.266-2.579-.352-3.224-.229-5.325 2.61-6.54 3.811-4.02 3.968-8.167 1.937-14.724 5.28-3.058 1.558-.33.186-6.874 1.057-2.399.317-10.387 5.317-14.384 11.048-.86 1.24-2.51 3.147-2.838 3.67-11.67 18.576-5.582 6.148-12.248 18.992-9.657 18.6-6.696 11.269-10.27 18.613-2.976 6.11-4.628 4.655-7.36 9.895-5.93 11.376-7.12 7.968.314 10.136a73 73 0 0 1 10.863 3.933c9.9 5.456 10.74 3.38 15.825 7.113.855.627 1.014.662 2.65-3.599a38.6 38.6 0 0 1 4.663-7.988c2.359-3.663 2.669-7.098 6.27-12.648a35.6 35.6 0 0 0 5.153-10.451c3.296-9.845 11.128-16.817 11.083-27.5a.667.667 0 0 1 1.31-.1c2.073 8.204-7.54 18.6-10.664 28.602-2.562 8.184-5.858 9.823-8.802 17.459-3.053 7.919-6.277 9.424-7.32 14.002 0 1.538-8.37 12.299-7.228 20.319-4.397 13.189 1.816 7.222-6.2 22.266-1.983 3.72-.317 6.378-2.2 9.977-2.876 5.5-3.618 5.428-4.29 8.749-1.126 5.573 3.39 11.973 2.954 7.74-1.057-6.14 5.79-2.988 11.53-.297 19.733 9.247 16.164 5.661 21.935 6.832 2.664.541 6.984 2.413 12.227.935 4.739-1.339 6.448-2.743 11.197-3.351 6.916-.88 8.31-3.224 17.347-6.599.848-.317 14.454-3.896 17.876-4.402 4.675-.689 5.568 2.852 6.426 1.129.97-1.955.35-2.818.049-7.207-.183-2.651-1.153-2.391-2.405-5.335a18 18 0 0 1-1.181-2.887c-1.143-13.602-2.051-10.969 0-17.722 4.886-16.105-.168-9.684 2.309-24.222a5.85 5.85 0 0 1 3.063-1.413c.89 1.148 3.331 3.439 3.834 4.255a9.9 9.9 0 0 0 3.648 3.594c.347.186.459.33.66-.154 3.648-8.784 8.915-18.493 9.937-20.72 3.132-6.833 8.112-8.284 7.279-9.226"/><path fill="#B2B2B2" d="M79.728 176.253c4.67.142 12.11 1.3 18.002-1.699l2.267 10.999a94 94 0 0 1-11.002 2.882c-1.6-.047-6.901-1.039-7.326-2.264s-1.612-9.258-1.941-9.918M168.571 98.76c2.897-1.37 5.592 3.304 8.63 7.327a18.6 18.6 0 0 1-1.021 11.973c-.417 1.24-10.811 22.856-15.892 29.289-1.401 1.778-9.999 11.408-15.019 13.861-5.02 2.452-6.398-9.725-6.398-9.725a98 98 0 0 0 13.124-10.981c.885-.957 10.356-15.009 11.408-17.469 0 0 2.976-8.058 3.769-10.999s2.257-12.07 1.399-13.275"/><path fill="#EDF5FF" d="M432.582 13.508a24.6 24.6 0 0 1 2.289 11.049c-.712 33.088-18.649 174.592-17.533 184.353.453 3.968-3.113 34.7-3.118 34.757a65 65 0 0 0-1.403 8.839 23.4 23.4 0 0 0-.191 3.531c.248 1.781-.821 3.909-.913 6.984-.38 12.464-1.545 16.534-1.354 20.165a32.7 32.7 0 0 1-.764 6.626c-1.029 7.79-.248 6.25-.92 13.201-.189 1.984 1.173-10.812-4.928 43.502-.149 1.319-.374 7.849-.637 10.242-1.615 14.685 1.555-22.2-9.672 81.858-1.193 11.056 1.399 16.735-7.388 23.981a14.735 14.735 0 0 1-11.904 2.895c-5.538-.732-4.018.22 1.183-3.609 6.051-4.464 7.013-12.685 7.217-19.773.178-6.232.714-5.126 1.101-10.562.072-2.503.279-5 .62-7.48.545-2.663.563-4.915 1.354-14.002 2.882-33.19 7.44-53.642 7.44-64.056 0-6.616 5.456-43.618 5.302-50.25-.109-4.61 1.24-9.778 1.381-13.92.992-28.865 4.37-36.302 6.468-64.195 1.24-16.554-.58-4.201 1.24-22.709.315-3.209 14.61-126.88 16.904-172.206.615-12.182-5.456-15.659-5.64-15.952.333-.131 10.87.372 13.866 6.731"/><path fill="#fff" d="M415.998 7.358c10.389 6.515 5.327 24.708 2.882 58.473-4.407 60.909-15.073 132.07-14.183 141.157.399 4.087-2.852 32.681-2.862 32.736-2.81 17.538-4.181 40.439-4.124 41.542a33 33 0 0 1-.764 6.602c-1.114 8.578-.184 5.952-.94 13.333-.427 4.136-3.74 30.536-3.757 30.799-1.984 31.401-4.928 38.083-4.896 44.568a66 66 0 0 1-1.304 8.476c-.032.248-5.952 54.769-5.724 60.877.345 9.764-7.021 19.227-18.848 17.608a268 268 0 0 1-33.091-7.971c-15.872-3.881-48.836-10.964-68.944-16.169-6.396-1.655-12.648-2.349-16.638-3.157-3.99-.809-17.05-4.231-22.402-5.104-14.6-2.386-20.485-8.928-16.985-27.446.597-3.165 4.989-48.479 5.952-46.781 1.326 2.351 13.01 21.668 11.142 23.652-1.371 1.456-2.48 5.131-.352 7.036 5.181 4.633-.905 2.534 5.545 15.294 3.827 7.571 1.659 2.936 3.041 8.278 2.133 8.246 14.299 3.472 22 .09 3.13-1.372 3.983-7.478 15.242-6.855 11.996.664 15.319-7.157 10.168 2.944-.608 1.192-1.59 1.736-2.006 2.37a5.13 5.13 0 0 1-3.82 2.079c-.496.082-.868 0-.858-.705a.969.969 0 0 0-.714-.849.966.966 0 0 0-1.039.388c-1.27 2.48 2.101 4.596 5.719 2.48 4.29-2.522 8.544-10.155 7.916-17.447-.288-3.34 4.786-12.806-.307-18.652-2.099-2.408-1.446-3.546-4.732-6.051a4.634 4.634 0 0 0-7.15 1.964c-.248.588.578 1.704 1.431.913.302-.28.588-.551.875-.868a2.97 2.97 0 0 1 2.108-.875 2.98 2.98 0 0 1 2.108.875c2.602 2.616 2.039 4.072 4.333 6.17.798.729-1.865.992-3.08.67-1.216-.323-1.826.134-4.725.364-1.649.129-.039-.776-4.191-1.557-2.145-.404-3.016.969-4.032-.628a6.08 6.08 0 0 0-5.456-2.199c-1.58 0-1.903-1.102-2.637-2.565-.887-1.77-1.984-2.333-3.266-4.521-.456-.769.213.605-3.224-2.886-2.267-2.299-3.514-1.736-5.907-.814-3.849 1.476-2.188 6.448-4.96-4.566-4.839-19.306-1.325-5.456-4.811-23.312-.953-4.86-5.456-17.263-4.291-17.985 1.912-1.18.08-7.192-.605-9.019-.779-2.086-1.793-.781-2.311-2.433-3.105-9.9.295-9.672-1.563-15.225-1.009-3.018-2.083-7.936-4.35-9.62-1.55-1.156-.729 1.034 2.453-33.616 5.208-56.681 7.242-56.103 7.832-65.452.221-3.472.134-4.164 1.272-4.534 11.319-3.663 11.096-4.037 10.999-3.107-1.443 13.984-7.013 54.513-9.734 84.027-1.27 13.779-2.44 17.757 4.025 22.211 3.12 2.148 9.863 1.428 33.15 6.329 4.363.92 3.452-.315 9.191 1.061 2.346.563 4.791.658 6.2 1.035 9.283 2.519 19.218 1.716 40.553 6.095 19.096 3.919 33.426 5.675 34.251 6.252 1.335.94 15.396 3.986 18.211-10.212 2.897-14.612 25.013-228.904 26.504-243.628.342-3.37-.298-7.576-3.157-9.617-2.701-1.93-33.48-3.72-36.967-3.554-10.235.461-22.231-2.061-39.348-2.366-37.401-.662-35.712-2.031-43.115-1.92a52 52 0 0 1-6.083-.389c-15.401.218-14.937.407-17.293 12.616-1.808 9.37-13.462 111.736-13.476 111.984-.053.957-3.626.201-11.577 1.129-1.121.131 15.681-133.065 16.504-137.71 3.569-20.12 9.199-17.405 38.76-16.554 10.32.295 11.758-.27 12.199 2.001 3.197 16.406 4.7 9.806 32.684 12.787 1.029.11 5.384.33 7.376.32 23.652-.129 23.808 5.704 32.287-10.324 2.083-3.943 6.428-2.606 10.746-3.053.092 0 14.208.618 16.665.407 7.785.506 10.826.141 14.275 2.304"/><path fill="#4A6B66" d="M361.927 111.83c3.343.144 3.665 5.952 3.68 8.591 0 .055-3.115 55.304-3.559 57.449-.759 3.68-4.888 4.186-11.772 3.527-.248-.025-48.757-5.794-49.561-6.381-1.86-1.101-13.392-1.751-16.583-2.557-1.404-.357-1.617-1.322-1.93-2.059a10 10 0 0 0 3.795-1.183c1.468-.815.466-1.855 2.556-1.77 2.922.119 3.795-2.168 4.68-5.275.412-1.441 1.307.553 3.301-.992 3.854-2.976 3.551-6.766 1.066-10.912-.55-.925-.548-1.101.36-1.488 1.314-.576 2.584-1.255 3.921-1.788 1.617-.643 4.201-1.359 4.258-1.384 1.24-.583 1.21-1.099 3.122 4.246 1.005 2.805 3.549.637 2.691 2.44-2.304 4.836-5.362 8.563-.898 9.781 1.838.496 13.807 1.314 15 1.897.338.119.697.171 1.056.154 5.468.285 7.74 1.012 7.393-2.2-2.669-24.577-5.783-17.784.099-26.104a10.6 10.6 0 0 0 1.225-7.52 13.3 13.3 0 0 0-1.098-2.946c-3.207-9.029-22.167-7.67-20.049 6.659.34 3.658 5.32.357-12.97 7.376-.804.31-1.54.798-2.344 1.101-.054 0-5.168 1.837-5.257 1.837-.248-.049-.345-.59-.601-.793-6.514-5.193-9.017 11.968-1.879-22.353 2.051-9.86 3.124-13.434 8.211-14.366 12.799-2.349 24.611.744 53.474 4.791 2.45.325 8.251 2.205 8.613 2.222"/><path fill="#4A6B66" d="M360.992 88.72a50.7 50.7 0 0 1 0 19.693c-.382 2.048-.069 1.624-11.336-.33-1.146-.198-1.443.094-.551-6.738.685-5.245-.094-12.924-5.126-14.778-8.092-2.976-9.176-2.647-17.36-3.388-6.133.416-10.103 1.24-12.447 6.902-5.927 14.302 1.892 12.881-9.096 12.623-3.614-.084-4.159.121-4.097-.642a56 56 0 0 1 1.436-8.609c2.497-10.43 3.69-10.79 5.555-13.486 8.898-12.871 48.012-10.55 53.022 8.752"/><path fill="#EDF5FF" d="M373.082 5.344c-11.453 16.232 2.85 11.029-55.18 9.553-10.624-.27-11.284-.456-12.38-5.126a40 40 0 0 0-1.409-5.677c-.109-.28.042-.543.276-.466 1.173.387 2.348-.144 3.521 0 18.055 2.214 29.525.548 34.041.878.054-.003 29.579.268 31.131.838"/><path fill="#fff" d="M330.285 138.701c9.892-11.321-2.039-21.375-10.952-15.344a8.04 8.04 0 0 0-2.584 9.29 80 80 0 0 1-.853 9.424c-1.632.524-1.617.204-.61 2.562 1.138 2.669 2.457 4.325.295 5.456a2.3 2.3 0 0 0-1.027.891c-.947 1.706-2.465 4.96-3.388 7.152-1.007 2.398-.85 2.098 20.267 4.337 1.195.129 1.165-.456.622-4.345-2.185-15.621-3.596-17.335-1.77-19.423"/><path fill="#FFD1BA" d="M291.959 147.592c4.136 2.187 7.159 6.52 5.813 9.9a5.58 5.58 0 0 1-2.463 2.991c-.397.315-.935.188-1.91-.429-.974-.618-2.425-6.2-3.035-8.68-.548-2.19 1.156-4.015 1.595-3.782M292.631 141.992c1.597 1.096-1.508 2.081-2.884 2.48-2.069-.551-1.392-.727-2.545-1.458a4.6 4.6 0 0 1 .95-.744c2.773-1.158 3.336-1.057 4.479-.278"/><path fill="#FFF59E" d="M323.529 138.309a27.5 27.5 0 0 0-1.721-3.365c-.152-.325-.412-1.444-.858-1.267-.248.096-19.096 7.266-19.344 7.343-5.012 1.828-11.981 4.98-14.632 2.842-5.379-4.325-14.01.935-13.911 8.432 1.297 8.526 2.617 1.984 5.982 4.568.079.062.236.027.352.045-.044-.104-.062-.236-.139-.303-4.724-4.216-1.599-11.004 2.416-10.969.709 0 1.418.223 2.133.298 3.368.359 3.179 5.242 3.839 5.242 1.101-.126 1.379-.23 1.488-.798.233-1.315.144-3.455 1.761-3.795 1.755 0 1.24-.496 4.057 1.59 1.26.923 2.976-1.723 12.246-4.089 2.495-.638.92-.524 3.856 5.252a.971.971 0 0 0 1.171.132c3.45-1.548 2.636-.66 1.359-4.147a15.3 15.3 0 0 1-.417-2.311c-.21-1.039.097-1.24 2.8-2.173 1.853-.642 1.771-1.039 5.065 5.072.496.93.664.779 4.994-1.451.742-.379-1.58-3.182-2.497-6.148"/><path fill="#FFD1BA" d="M289.895 153.861c1.944 4.497 2.569 5.188.523 10.337a1.96 1.96 0 0 1-2.388 1.302l-.114.203c.325-.478.062-2.408.496-4.186.625-2.621-2.12-7.641.516-8.41.501-.148.759.271.967.754M284.945 155.55c3.021 6.696 1.429 8.316.744 10.721-.441 1.545-1.371 1.54-3.301 2.111-2.48-.665-2.326-.313-1.391-4.333 0-.111.164-.193.248-.288.072.1.186.189.204.298.114.717 1.373 1.012 1.698-.221.628-2.373-3.092-4.769-2.259-7.132.65-1.833 3.261-2.922 4.057-1.156"/><path fill="#FFD1BA" d="M284.36 149.891c1.436-.687 1.89 4.945.111 3.884a2.72 2.72 0 0 0-3.047.213c-.814.813-1.042.669-1.761-.313a3.54 3.54 0 0 1-.342-4.617 3.54 3.54 0 0 1 2.071-1.345 3.54 3.54 0 0 1 2.447.335c-.55.809-1.024.037-3.636 1.937-.992.719-.049 2.656.94 1.61a9.6 9.6 0 0 1 3.217-1.704"/><path fill="#AC8EFF" d="M280.518 381.835c.928-.173.683.744.683 2.354a31.4 31.4 0 0 1-1.608 8.799c-.057 1.942-1.505 1.922-6.973 3.043-6.369 1.304-7.15-.615-9.987-.06-16.549 3.224-12.532 6.374-17.658 8.452-5.746 2.334-4.29 2.413-14.029 2.75-1.101.04-1.099 0-1.476-1.021-2.728-7.458-4.506-8.125-4.697-12.261-.154-3.366-.692-4.043.595-3.758.67.149 1.545.618 1.897-.322.333-1.066-.744-1.624-1.837-1.85-1.736-.141-2.778-1.463-4.087-2.321a.88.88 0 0 1-.33-.702c.248-1.332.6-3.512 1.436-2.57 1.2 1.352 2.954 1.516 5.329 2.26a10.242 10.242 0 0 0 10.33-2.2c1.507-1.178.577-.885 6.574 1.887a1.06 1.06 0 0 0 1.533-.687c.111-3.03-13.001-1.46-4.449-14.18 2.432-3.071 3.635-2.919 4.741-2.976.935-.052 6.557 5.456 8.053 8.618 1.57 3.333.139 2.829.605 6.601.179 1.459-1.151 1.836-2.361 2.81-.925.744-1.617 1.649-2.282 1.788a2.04 2.04 0 0 0-.872 3.725 2.05 2.05 0 0 0 1.582.29c.858-.188 1.138-1.098 1.101-1.969-.055-1.193.974-1.803 2.678-3.053.876-.642 1.099 1.288 1.099 2.366 0 .615-.692 2.019-.615 2.716a1.863 1.863 0 0 0 2.2 1.327 1.91 1.91 0 0 0 1.346-2.2c-.248-.848-.907-.337-1.056-2.096-.248-2.976-1.203-3.345.188-3.911a10.8 10.8 0 0 0 4.811-2.15c.556-.473.39-.354 2.064 3.586.31.725-.275.715-.895 1.488-1.823 2.245-1.536 2.394-2.307 2.795a1.654 1.654 0 0 0-.548 2.25 1.61 1.61 0 0 0 1.872.609 1.61 1.61 0 0 0 1.069-1.653c-.213-1.531.963-2.126 1.793-2.961.3-.301 1.54 1.101.94 2.75s1.652 2.311 2.48 1.294.263-1.259-1.336-5.456c-.34-.897 1.651-1.101 2.48-3.134.27-.655.835-.717 1.2-.144 1.828 2.887 1.803 3.035 1.572 3.432-.297.496-1.155 1.429-1.24 1.935-.367 2.117-2.346 2.926-.992 4.124a1.702 1.702 0 0 0 2.636-.793c.118-.34.125-.708.02-1.052-.384-1.3 0-1.414.769-2.713.59.23.682.776.838 1.282.157.506.474.92.33 1.54a1.335 1.335 0 0 0 1.047 1.592c1.369.285 2.333-1.686 1.547-2.351-1.103-.935-1.205-2.411-1.969-3.519-.228-.333-.317-.496 1.503-3.49.464-.664 1.359-.667 2.663-.91"/><path fill="#fff" d="M279.268 397.432c.159 1.736-.225 2.319-1.946 2.8-3.438.96-2.954.846-3.009.841-2.445-.226-3.162 1.512-7.221 1.101-5.412 0-9.335-.199-13.784 3.72-2.741 2.408-3.008 3.224-4.305 3.72-5.325 2.076-16.798 6.944-18.328 1.272-.426-1.585-.858-1.471 1.171-1.597 4.995-.305 8.722.156 14.85-3.224 4.757-2.626 1.798-4.779 14.714-7.515 5.902-1.24 2.453 1.925 17.276-1.545.387-.133.545-.012.582.427"/><path fill="#FFD1BA" d="M277.537 157.249c-1.984-.605-5.376 2.773-4.712-9.263-1.386 0-8.972 8.184-11.447 8.911a19.4 19.4 0 0 1-6.138 1.173c-3.686-.129-23.61 1.386-27.303 1.324a100.5 100.5 0 0 0-14.257.067c-5.379.791-8.836-2.405-12.018-5.456-.66-.635-.769-.66-1.436-.089a30.6 30.6 0 0 0-3.353 3.224 34.8 34.8 0 0 0-4.601 8.447 57 57 0 0 0-3.72 7.234c-.344 1.012-.476.793 2.882 3.799 7.688 6.9 7.343 6.218 14.211 7.284 1.081-.1 2.153-.284 3.206-.551 23.327-4.436 52.78-18.634 60.894-15.599 6.912 2.587 9.64.295 9.99-4.575.208-2.661-.018-5.26-2.198-5.93"/><path fill="#C5CDF3" d="M274.839 382.056c1.161-.149.551-.397 1.53.139-1.101 1.567-1.319 1.984-1.557 1.694-1.506-1.848-.749-1.741.027-1.833M267.248 380.675c2.16.496 3.224.543-.082 2.991-.362.27-.945-1.203-1.465-2.332-.164-.377.86-.496 1.547-.659M258.32 377.974c5.037.362 5.491 2.016-.707 3.601-1.183.302-.372-1.808-.664-1.808-.003-1.848-.184-1.905 1.371-1.793"/><path fill="#fff" d="M237.285 374.095c-1.285 3.604.776 5.188.201 5.744a8.51 8.51 0 0 1-9.59 2.304c-.846-.318-3.934-.628-4.765-2.706-7.335-18.382-6.2-12.4-10.014-20.616 6.872-1.027 11.602-4.236 19.309-9.196 1.102-.709 1.317-.605 1.459.687a52 52 0 0 0 1.304 5.545c4.315 19.421 4.849 10.511 2.096 18.238"/><path fill="#E4FD6F" d="M232.674 344.025c1.007 2.284.618 2.795-.496 3.472-9.024 5.493-10.502 6.394-12.434 7.353-.744.372-2.203.618-2.686.898a13.9 13.9 0 0 1-4.553 1.31.636.636 0 0 1-.787-.353c-2.48-5.622-.664-.193 9.206-6.371.072-.022 9.632-4.734 11.75-6.309"/><path fill="#fff" d="M231.454 336.551c.992 5.307 1.134 4.999.657 5.319-2.331 1.563.824 0-7.593 4.521-9.397 5.054-10.622 5.166-14.665 5.831-.548-.496-.156.28-1.604-3.043-.885-2.029-1.101-2.27-.089-2.557a42.2 42.2 0 0 0 12.987-5.136 69.5 69.5 0 0 0 8.745-5.208c1.049-.992 1.381-.682 1.562.273"/><path fill="#E4FD6F" d="M229.192 330.995c.861-.538.744-.186 1.335 2.398a64.1 64.1 0 0 1-23.459 11.656c-.148-.126-.374-.233-.446-.406-1.195-2.924-1.431-3.314-.583-3.423a32.8 32.8 0 0 0 8.641-2.75 62 62 0 0 0 14.512-7.475"/><path fill="#fff" d="M229.056 328.118c.538 1.917-18.528 10.803-21.308 10.965-1.568.089-2.656 1.391-3.202-.859-2.676-11.088-3.785-8.68-1.099-9.483 3.113-.942 1.129-2.855.164-2.316-1.29.721-2.671.248-3.998.429s-2.172-3.224-2.289-4.581c-.275-3.251 4.174-.541 9.66-3.35 1.552-.794 4.399-1.523 4.464-1.65 1.282-1.277 2.844.231 5.704-1.716a20.8 20.8 0 0 1 5.193-2.641c4.332-1.051 4.094-6.093 5.786 2.85.563 2.976-4.449 3.02-3.356 5.334.33.699 1.24.141 2.294-.384.945-.457-.069.044 1.987 7.402"/><path fill="#FFD1BA" d="M223.133 294.232c.427 1.612-.711 6.2-.181 8.38 1.722 7.11 3.301 6.656-3.194 8.893a15.6 15.6 0 0 0-2.113 1.24c-6.319 3.616-2.48.402-8.355 2.976-6.604 2.887-5.248 2.068-7.656 2.641-1.133.268-2.108.598-2.326-.478-2.2-10.766-1.577-9.645-2.587-12.234a14.72 14.72 0 0 0-7.539-5.952c-.325-.109-.302-.236-.161-.469a13.8 13.8 0 0 1 3.703-4.509c5.495-3.72 5.984-6.852 7.556-8.635 6.307-7.147 5.208-6.336 9.638-9.295 1.825-1.22 1.755.481 9.553 8.048 1.802 1.738 3.045 7.065 3.662 9.394"/><path fill="#1D4640" d="M211.249 272.819c1.283 1.655-1.86-.334-10.061 9-6.379 7.259-3.675 6.696-9.293 10.756-3.93 2.84-3.663 5.322-6.76 7.81a26.1 26.1 0 0 0-5.416 7.601c-1.255 2.024-.444 3.306-1.3 2.619-3.777-3.046-13.474-9.643-13.536-9.672-5.704-3.115-9.729-8.474-12.439-10.295-4.665-3.13-6.788-.87-13.115-9.828-1.919-2.728-3.673-2.45-6.696-2.872-1.011-.141-.692-.496 0-2.579.903-1.805-.778-2.549-1.535-.556-2.462 6.498-1.577 6.468-2.48 14.945-1.617 15.081-7.998 20.438-7.078 27.451 0 8.405-3.008 7.973-1.795 19.158.073 1.949-.082 3.9-.461 5.813-.519 3.514-.551 1.22-4.757 1.912s-4.34-2.336-10.022-2.343c-1.337 0-3.301-.343-3.663-.181a28.3 28.3 0 0 1-10.6 0c-.495-.119-7.028-.08-7.546-.077a30.5 30.5 0 0 1-5.687.583c-.439 0-5.704.225-6.128.121-2.48-.598-3.539.863-4.19.551-.445-.214 0-.4.446-3.626a31.3 31.3 0 0 1 1.488-8.636c3.814-12.003.677-16.685 2.904-24.683 3.124-11.215 1.183-9.984 2.09-14.674a82 82 0 0 0 .28-12.608c-.637-11.766-.056-9.955.826-18.459.893-8.626-3.72-8.581 2.183-22.957.268-.655.335-.715.992-.457 11.785 4.727 19.435 9.886 26.647 9.786 4.182-.059 10.632 3.614 17.827.6a41.7 41.7 0 0 1 10.582-2.948c9.148-2.188 10.272-4.921 20.725-7.688 1.83-.496 3.688-.866 5.501-1.364 9.126-2.512 8.848-4.588 18.327 7.452 3.115 3.968 6.567 3.031 10.647 9.399 3.968 6.173 12.256 8.886 15.061 13.477 1.971 3.246 6.408 5.379 8.032 7.469m-61.593-30.752a.91.91 0 0 0-.089-.723.904.904 0 0 0-1.677.356c-.962 5.501 1.26 6.391-2.398 20.944a28.2 28.2 0 0 1-3.375 8.521 21.2 21.2 0 0 1-4.216 3.849c-1.223.896-.352 3.614 3.405-.022 6.626-6.411 7.618-20.024 7.688-20.274 1.007-3.291.097-9.734.662-12.656zm-8.928 3.45c-.077 0 .037-1.557-.233-1.54-2.711.171-.665 2.421-3.74 18.816-.91 4.858-5.022 7.968-3.08 8.839.518.233.789.153 1.156-.358 4.771-6.653 4.342-9.515 5.895-25.762zm-32.292 11.45c.456-.461 1.862-1.46 1.183-2.326-1.188-1.508-2.639 1.488-6.051 3.824-7.996 5.456-8.167 3.876-10.709 5.131a12.9 12.9 0 0 1-5.767.987 12.9 12.9 0 0 1-5.609-1.664c-.141-.116-.285-.28-.444-.302-.302-.04-.704-.099-.902.054-2.252 3.346 14.03 8.695 28.297-5.709z"/><path fill="#FFD1BA" d="M187.052 64.956a1.7 1.7 0 0 1 .426 1.36 1.69 1.69 0 0 1-.77 1.2c-1.54 1.147-3.968.622-7.036 1.802-.171.065-.33.248-.479.23-.956.054-1.9.24-2.805.551-1.257.221-.744-.461-2.899.452-7.41 3.147-5.734 3.519-6.435 3.849-1.027.496-1.097 1.488-1.31 2.41-1.086 4.712.03 1.806-.218 5.34a.5.5 0 0 0 .131.374c1.178.858.157 2.073.496 3.063.035.1-.158.32-.295.419-2.058 1.488-2.368 3.303-4.732 8.31-.548 1.161-1.773 2.032-.808 2.977 1.267 1.24 1.969 7.192-.407 11.77-.496.94-.724 1.026-1.736.731-1.55-.449-2.678-.379-3.613-1.689-3.261-4.565-7.113-4.789-9.672-9.602-1.796-3.36-2.976-3.088-3.988-7.192-1.535-6.2-5.612-6.486-3.179-8.906.992-2.438 2.038-4.858 2.931-7.326.836-2.316.159-4.012 1.302-4.258 3.807-.818 4.102-4.511 4.781-3.251a4.1 4.1 0 0 1 .859 3.125c.153 9.736 11.001 8.084 11.549 3.491.166-1.379-1.223-1.282-1.649-.587-2.364 3.846-8.331 2.757-7.993-3.09.183-3.153-1.372-2.977-3.113-8.802a5.86 5.86 0 0 1 3.943-7.09c2.2-.437 2.617-1.907 5.786 3.02.836 1.3 3.224-.67 7.688-.51 12.103.428-1.389 9.671 18.184 5.12 1.349-.314 1.691-.34 2.167.174.786.873 2.649 2.294 2.894 2.535m-30.164 6.232a3.1 3.1 0 1 0-6.198.039 3.1 3.1 0 0 0 6.198-.039m-1.476-5.682c.992-.213.226-2.358.1-2.86-1.984-7.97-8.313-5.703-7.557-1.924.072.263.248.945.709.968 1.173.054.767-1.377.854-1.65.161-.51.813-1.024 1.24-.92 1.919.484 2.011 1.052 2.623 3.093.496 1.65-1.877-.645-2.69 3.224 0 1.458 1.79 1.666 1.897.496-.005-2.39 1.451-.127 2.827-.427z"/><path fill="#fff" d="M183.029 50.168c.67 9.22.774 8.838-4.684 9.49-5.704.685-4.943.496-6.275-7.913a2.12 2.12 0 0 1 1.583-2.567 26.5 26.5 0 0 1 6.629-1.113c2.708-.087 2.683 1.215 2.747 2.102m-3.858 5.877c1.287-.111 1.411-2.445.771-3.472-.514-.826-1.806-.952-2.031.181s.039 3.4 1.26 3.291"/><path fill="#FFD1BA" d="M181.331 44.667c.151.55-.355.444-1.825.444a13.4 13.4 0 0 0-4.179.647c-3.72.685-6.803 1.58-7.085 5.067-.12 1.488-.12 1.488-1.682 1.758-3.085.558-11.825 3.038-10.374 1.101a5.86 5.86 0 0 0-.682-5.778c-.32-.424 2.232-2.361 2.684-3.51.602-1.547-1.461-2.271-.615-2.75a3.57 3.57 0 0 0 1.562-4.868c5.024 0 6.55.588 5.84-3.452-.062-.347 1.446-.318 2.887-.618 1.19-.419 2.433-.669 3.693-.744 6.115 2.334 2.383-3.839 6.763 4.618 1.314 2.537-3.901.55-4.4 4.464-.077.61-.843 1.458-.032 2.26.811.8 1.736-1.947 5.158-2.86 1.33-.347 1.285.61 2.287 4.22M179.305 81.728c.225 1.391.248 1.66-.32 2.078-1.337.975-.71 3.043-4.395 2.284a1.985 1.985 0 0 1-1.721-1.984c-.092-1.7-.341-3.39-.744-5.044.419.055.744.07.848.194a4.257 4.257 0 0 0 5.853-.288c.553-.595.221 1.15.479 2.76"/><path fill="#fff" d="M178.008 75.952c1.371-.114-.883 2.75-2.676 2.855-1.585-.551-1.907-.938-.992-1.722a5.95 5.95 0 0 1 3.668-1.133"/><path fill="#000" d="M174.476 25.4c2.917-.886 2.907 6.512-.667 5.285-2.894-.992-4.863-2.818-4.913 0 0 .632.466 1.086-1.148 1.24-.719.067-6.418-1.461-3.928 2.078.766 1.349-.786 1.907-1.858 1.828-.55-.043-2.949-.479-2.949-.479a1.46 1.46 0 0 0-1.604 1.373c-.015.264.042.526.164.76.362 1.024 2.068 2.073.225 2.795-.335.193-2.187.496-1.537 2.123.58 1.45.992 1.183.764 1.77-.199.496-.174 1.106-.864 1.278-.158.04-.27.248-.429.312-.496.208-1.088.332-1.205.967-.379 2.093 1.193 3.02.903 3.812-.456 1.24-.548 2.748-1.431 2.135-1.133-.786-2.314-.22-3.452-.082a6.83 6.83 0 0 0-4.876 3.172c-1.949 2.813-1.488 5.377-.417 8.608.546 1.652-.54 1.347-1.373 2.976-.479.933-2.198 1.736-2.714 1.275-1.634-1.488-4.268.992-4.575-1.51-.365-2.976-4.425-2.287-3.542-6.833.221-1.143.159-1.297-.816-1.874-4.362-2.594-3.298-2.922-3.035-5.42a1.69 1.69 0 0 0-.992-1.901 2.34 2.34 0 0 1-1.193-3.1c.169-.377.434-.702.769-.943 1.654-1.575.853-2.36.615-3.261-.878-3.33 4.603-2.438 3.581-6.051-.548-1.937.226-2.679 1.513-2.778 6.15-.48 1.133-5.788 5.473-5.758s3.547-.76 4.635-2.976c.744-1.51 3.41-.744 3.703-.61.692.314 1.24-.122 1.865-.15.853-.036 1.188-3.451 3.41-2.529 1.188.496 3.472 2.48 4.236.55a4.7 4.7 0 0 1 1.24-1.594c.744-.722 1.083-.615 2.695 1.143a4.34 4.34 0 0 0 5.543-.081c2.287-1.97 5.228 3.35 8.184 2.45"/><path fill="#B2B2B2" d="M155.328 167.065a13.3 13.3 0 0 1 1.099 4.65 11.84 11.84 0 0 1-3.011 8.33 52.6 52.6 0 0 1-9.387 7.805 50 50 0 0 1-7.618 5.418c-3.105 1.873 1.178.93-14.741 7.701-2.872 1.22-4.663 1.711-5.241 1.942a10.1 10.1 0 0 1-8.504-.881c-1.403-1.436-6.162-6.696-4.29-7.402 19.991-7.584 7.688-1.223 21.214-7.936 21.727-10.821 29.926-21.77 30.479-19.627"/><path fill="#fff" d="M155.229 70.95a1.5 1.5 0 0 1-.281 1.106 1.491 1.491 0 0 1-2.67-.677c-.367-2.602 2.968-2.607 2.951-.43"/><path fill="#D9D9D9" d="M153.805 162.849c.95 2.542.886 1.793-8.251 9.077a158 158 0 0 1-25.296 15.586c-3.075 1.531-2.618 1.042-8.766 2.751-5.456 1.515-6.696 2.584-8.517 2.963-1.274.104-.788-.392-1.433-1.468-.744-1.225-.481-.533 3.968-2.557 2.279-1.039 3.422-.206 6.758-1.847a21.4 21.4 0 0 1 6.696-2.872c2.83-.387 8.911-4.489 10.644-5.771 3.103-2.294 6.475-3.299 9.176-5.245 2.019-1.464 5.659-3.549 6.049-3.968 2.418-2.666 5.907-4.4 8.328-7.068.255-.385.52.089.644.419"/><path fill="#B2B2B2" d="M152.391 159.6c.685 1.158.41.955-6.651 6.882a18.7 18.7 0 0 1-6.314 4.464c-1.357.779-3.328 2.257-3.383 2.284a40 40 0 0 0-7.623 4.174 35.4 35.4 0 0 1-9.823 5.439c-5.655 1.287-6.696 4.183-12.981 4.62-2.386.166-5.483 4.184-6.336.816-1.317-5.208-4.13-4.601-4.025-10.766.052-3.085 3.035-4.96 5.917-6.049 5.888-2.254 28.607-18.173 28.865-18.367 1.649-1.24 9.064-7.936 14.037-8.275 2.728.126.267 1.096-2.002 3.008-2.554 2.148-2.2 2.976-.709 7.308.193.407.451.779.764 1.102 1.959 2.524 1.227 3.806 3.883 4.464 1.327.322 2.922-1.392 4.616-2.877.893-.784.781.111 1.765 1.773"/><path fill="#fff" d="M126.044 457.061c1.689 4.318.764 6.805-4.96 6.815-16.167.025-9.23 1.079-20.125-.446a16.57 16.57 0 0 1-8.558-2.354c-5.74-3.886-11.55-.964-14.21-.704-3.852.377-4.465.109-12.103-1.535-1.59-.342-2.954-.868-3.113-2.344-.233-2.15-.825-3.13.397-2.909 6.138 1.106 17.422 3.415 21.532 2.597 6.66-1.327 9.696 3.196 23.651 3.988 4.278.248 14.223 1.066 16.765-2.384q.334-.39.724-.724"/><path fill="#AC8EFF" d="M124.08 453.745a2.66 2.66 0 0 1 .183 2.403 2.66 2.66 0 0 1-1.832 1.565 31 31 0 0 1-9.729.573c-14.384.558-20.584-5.907-28.113-4.087-3.15.762-13.992-1.396-15.195-1.599-9.578-1.617-6.729-.496-6.146-10.451.113-1.768.484-3.51 1.101-5.171.14-.379.303-.496.655-.104 1.05.843 2.257-.295 1.429-1.431-3.272-3.271-.94-8.608-.462-7.133a10.19 10.19 0 0 0 10.23 8.708c3.143-.179 4.43-1.543 5.275-.551q1.021 1.179 2.2 2.2a.95.95 0 0 0 1.24 0c1.084-.92-2.036-2.817-3.17-5.389a3.315 3.315 0 0 1 .948-4.038c.992-.652 1.101-1.557 2.976-2.289 7.71-3.018 7.44-3.541 8.802-2.036 3.295 3.624 1.527 4.167 4.57 8.747.588.886.796.543-1.694 4.097a4.96 4.96 0 0 1-3.278 1.24q-1.323.553-2.552 1.292c-2.09 1.047-1.947-.622-3.08.092-2.024 1.277.225 5.23 2.358 3.72 1.104-.786-.188-.992 1.54-2.2.863-.602 3.901-1.82 3.852-1.098-.035.461-.692 1.488-.908 2.276a2.96 2.96 0 0 1-1.488 1.858c-1.882 1.488.593 4.174 2.413 2.673 1.183-.974-.365-1.188.479-3.184 1.334-3.157 1.376-4.152 2.834-4.075 4.241.224 4.628-.553 4.4.787-.496 2.866-.948 3.159-.32 3.849.392.431-1.141.52-3.321 2.244-.727.511-1.6-.248-2.145 1.525a1.4 1.4 0 0 0 2.309 1.429c.992-.923-.248-.992 2.304-2.359 1.22-.652-.295 2.264-.471 3.256-.447 2.503 3 2.007 2.44.209-.34-1.101.102-1.563.496-3.542.285-1.488.397-.496 1.736-.826 1.877-.458 2.48-.835 2.532-.086.191 2.571.424 3.402-.866 3.429-.181 0-.362-.064-.548-.059a1.6 1.6 0 0 0-1.343.816 1.6 1.6 0 0 0 .002 1.572c1.143 2.001 3.816-2.031 4.526-1.101a2.01 2.01 0 0 1 .158 2.358c-.6 2.711 3.745 2.012 3.13-.091a1.5 1.5 0 0 0-.615-.821c-.722-.417-.355-1.171-.6-1.721-.122-.276 2.453-1.359 2.832-1.488a13.1 13.1 0 0 1 4.159.496c1.238 1.267 2.969 1.827 3.767 3.516"/><path fill="#C5CDF3" d="M111.517 446.325c1.874.962 3.66 1.578 2.675 2.25-1.403.954-2.48 1.706-2.688.54-.444-2.624-.208-2.361.013-2.79M108.195 442.357c.769 1.907 1.761 2.193-1.011 2.661-.868.147-2.029-.85-1.875-1.651s.248-1.689.374-2.532c.127-.844 2.061.399 2.512 1.522"/><path fill="#FFD1BA" d="M107.432 345.672c.062 12.745-3.07 13.052-4.362 17.682-.077.276-.194.39-.467.248-4.855-2.641-3.849-2.559-10.951-3.492-2.937-.386-3.03-1.666-7.344-2.199-5.843-.722-7.727 2.155-7.38.439 1.27-6.292 2.197-3.968 2.145-10.999 0-.479.176-.791.704-.799 6.091-.094-1.274-2.306 25.257-1.689 2.266.043 2.393-.434 2.398.809"/><path fill="#C5CDF3" d="M101.584 435.664c4.151 3.531 2.938 2.805-2.039 2.805-.082 0-.248-.248-.213-.31 1.359-2.307 1.704-2.969 2.252-2.495"/><path fill="#fff" d="M102.794 366.928c1.563 2.956-1.597 3.311-2.205 5.736-.932 3.735-3.02 9.672-3.338 10.749-.176.597-.449.793-1.011.55a26.7 26.7 0 0 0-5.556-1.349c-17.759-3.569-19.096 1.902-17.627-4.08 2.413-9.9 1.872-10.289 2.814-11.266.437-.449.11-1.183-.496-1.488-.057-.028-1.096-.342-1.069-.92.072-1.397.127-2.753 1.052-3.172 3.913-1.773 5.704-2.458 8.013-1.964 2.157.463 2.014-.134 4.042.945 4.606 2.45 7.376.709 11.584 3.201 3.676 2.175 2.862 1.275 3.797 3.058m-7.71 1.419c1.689-2.113-4.945-1.717-7.05-2.8-8.066-4.142-11.553.089-9.264.513.618.112 2.57-.58 3.472-.429 4.99.831 3.537 2.269 12.167 3.073.251-.067.482-.193.675-.367z"/><path fill="#D9D9D9" d="M98.407 192.405c.496-.694 1.027.11 1.587.705-.796.744-1.054 1.267-1.785.796-.593-.377-.303-.791.198-1.501M97.576 197.698c-1.649 4.818-1.651 5.255-2.586 5.047s-1.022-.219-.496-1.183c1.763-3.167 4.253-7.289 3.082-3.864"/><path fill="#E4FD6F" d="M92.939 384.856c4.484.992 3.74.786 2.507 4.112a74.2 74.2 0 0 0-19.344-2.713c-4.4 0-4.509 1.098-4.4-.744.425-2.535.266-2.312 1.392-2.503a84.2 84.2 0 0 1 19.845 1.848"/><path fill="#fff" d="M94.556 390.57a.635.635 0 0 1 .523.836c-1.458 6.512 1.736 1.902-18.104.845-5.396-.287-6.002.953-5.87-.325.357-3.442.166-3.591 1.039-3.695 7.55-.612 15.15.181 22.412 2.339"/><path fill="#E4FD6F" d="M86.223 394.977c8.256 2.006 7.846.744 7.234 3.588-.466 2.158.548.167-17.948-1.418-4.464.392-4.685.61-4.647-.248.094-2.299-.236-2.634.647-2.75a26.1 26.1 0 0 1 8.382.176c2.125.043 4.243.262 6.332.652"/><path fill="#fff" d="M88.936 400.626c4.087.729 3.995.625 3.811 1.312-1.115 4.172-.302 1.736-3.4 13.11a31.2 31.2 0 0 0-2.2 8.37c-.037.791-.843 1.135-1.649 1.388-2.05.471-3.224 2.158-4.692 3.403-2.02 1.709-.439 5.682-1.26 5.925-4.516 1.334-8.256 1.289-10.971-3.988-2.388-4.635.035 0 1.793-20.951.918-10.935-.828-10.072 2.386-10.153 3.7-.095 2.894-.784 16.182 1.584"/><path fill="#FFB2B5" d="M67.918 177.808c.027 1.379-1.5 3.239-3.085 5.498-.479.682-.342.687-3.899-2.147-2.527-2.012-.208-7.081 2.002-3.763 1.207 1.818 1.413.122 2.94-1.44.437-.444 2.109.012 2.042 1.852"/><path fill="#fff" d="M364.584 231.892c.057-5.071-3.527-1.376-91.458-15.527-2.453-.394-7.777-.878-10.51-1.22a2.84 2.84 0 0 0-2.196.702 2.85 2.85 0 0 0-.956 2.098 48 48 0 0 0-1.392 7.936c-.535 8.308-2.822 11.006 1.166 12.058 12.566 3.313 21.804 3.38 98.704 16.561 2.887.496 2.904-1.508 4.4-5.816-.37-3.107.768-2.549 2.242-16.792"/><path fill="#000" d="M402.991 11.747c2.574-.054 3.774 1.397 3.767 3.944 0 4.169-.33 5.294-2.106 6.36a88.4 88.4 0 0 1-13.26-.701c-3.688-.481-3.224-4.196-2.674-7.832.566-3.74 8.933-1.659 14.273-1.77m.441 8.108c1.577-.02 1.424-2.669 1.424-4.34 0-1.59-1.464-1.407-2.448-1.451-2.2-.102-3.078-.46-2.904.548.823 4.784-2.535 5.322 3.928 5.243M365.107 227.669a4.86 4.86 0 0 1 1.984 4.96c-.6 3.149.037.972-2.338 14.136-1.305 7.236-1.305 10.416-7.165 9.888-5.042-.444-15.624-2.55-37.183-6.302-3.504-.61-53.387-7.792-56.792-8.955-4.905-1.677-9.394-.715-8.987-6.682 2.606-18.118 2.383-22.843 9.28-21.61 14.267 2.549 88.33 11.343 101.201 14.565m-.55 4.216c.054-5.072-3.527-1.377-91.458-15.527-2.452-.395-7.777-.878-10.51-1.221a2.85 2.85 0 0 0-2.896 1.65 2.9 2.9 0 0 0-.256 1.15 48 48 0 0 0-1.391 7.936c-.536 8.308-2.823 11.007 1.165 12.058 12.566 3.313 21.804 3.38 98.704 16.561 2.887.496 2.904-1.507 4.4-5.815-.189-1.652 2.75-16.785 2.242-16.785zM306.722 366.06c.104 2.096-.107 2.051.054 2.063-.843 12.815-1.736 5.399-1.701 14.384a23 23 0 0 1-1.098 6.672c-.273 1.205-.945 1.5-1.523 1.309-1.771-.583.955-3.301.625-10.071-.214-4.439 1.617-4.586 1.513-10.099.119-1.658.137-3.322.054-4.982-.431-4.449-3.192-9.092-3.167-11.22a6.18 6.18 0 0 0-2.837-3.806c-3.472-1.766-3.705-3.847-4.809-4.499a28.5 28.5 0 0 0-8.052-2.2c-3.204-.682-1.468-4.018-5.754-5.32a6.71 6.71 0 0 0-5.796 1.221 37.3 37.3 0 0 1-5.835 2.232c-1.468.163-.918-1.563.384-2.118 7.108-3.036 6.496-3.579 9.779-3.586a7.24 7.24 0 0 1 6.805 4.6c.677 1.761 8.804 1.151 10.962 4.625 2.48 3.991 3.799 1.796 6.78 6.905.166.276.258.59.265.912.045 2.478 3.061 7.368 3.351 12.978M302.338 399.676c1.919.072.168 8.078-2.629 11.2-1.984 2.202-.762 3.643-3.39 9.094-4.331 8.975-4.777 12.507-14.335 15.565-1.562.374-1.193-2.016.149-2.292a13.808 13.808 0 0 0 9.087-7.41c1.108-3.246 4.394-7.738 4.883-11.175.764-5.377 4.055-5.275 5.143-12.167.261-1.651.211-2.847 1.092-2.815"/><path fill="#000" d="M293.685 367.826c1.867 4.432 1.795 3.251 1.771 6.77 0 .848-1.24 1.072-1.704.3-.618-1.049.072-1.488-.551-2.832-2.929-6.366-3.472-10.106-8.124-14.208-2.999-2.648-3.574-.808-5.372-2.673-.441-.457-2.443-3.256-5.148-2.751a4.97 4.97 0 0 0-3.13.744 13.12 13.12 0 0 0-7.857 7.192c-.049.092-.369 1.107-1.24.992-2.462-.297 2.728-9.622 10.912-10.998 5.967-1.005 7.078 3.501 9.201 3.777 3.762.496 7.361 5.495 9.28 8.766.382.635.238.821 1.962 4.921M293.878 387.616c.962-.268.94.94 1.101 1.858-.853 4.801-.63 2.398-2.438 7.492-.089.248.276 6.611-1.941 5.929-1.298-.401.374-3.075-.045-5.27-.278-1.455 2.75-6.133 2.542-8.799a1.09 1.09 0 0 1 .781-1.21M287.42 6.765c.975.945.201 3.088-.992 2.75-3.162-.902-4.402-2.346-10.401-.188-2.254.81-3.011 2.728-3.72-.583C275.221 4.24 284.3 3.73 287.42 6.765"/><path fill="#000" d="M284.67 10.8c2.324.496 1.141 3.06-.521 2.683-4.278-.962-7.093 1.764-8.499.712-3.306-2.485 3.683-4.536 9.02-3.395M282.587 417.602c1.17-1.535 3.298.161 2.15 1.188-.633.565-6.2 6.877-9.154 7.894a15.3 15.3 0 0 1-6.049.972v-.099c-10.721 1.101-12.186-3.177-15.341-7.656-.627-.891-.322-1.587-.042-1.699.957-.377 1.257.704 2.48 2.2 3.187 3.901 3.804 5.875 16.006 4.764 3.43-.313 8.104-5.144 9.95-7.564M283.12 15.512a.53.53 0 0 1 .31.535.5.5 0 0 1-.062.209c-.588 1.133-1.171 2.135-2.45 1.93-1.101-.177-1.397 1.039-2.2.094-1.275-1.488-1.24-1.655.548-2.48a5.02 5.02 0 0 1 3.854-.288M274.437 228.311c-.159 2.181.052 2.233-1.103 2.181a16 16 0 0 0-2.137-.184c-.114.254 1.394 1.767 1.29 2.19a3.8 3.8 0 0 1-1.75 1.227c-1.004.369-1.278-1.792-1.932-2.366-.36-.151.036 1.86-.463 2.465-.159.185-.555.155-.901.172-1.566.07-1.327-.718-1.116-2.64.07-.652-1.739 1.463-2.267 1.291-.631-.197-1.46-1.66-.721-2.194a14 14 0 0 1 1.638-.854c.444-.199.072-.369-.191-.38-2.379-.037-3.181.343-2.523-2.509.196-.609 1.572-.176 2.862-.172.932 0-1.442-1.251-1.467-2.544 0-.353.341-.554.721-.91.744-.706 1.164-.568 1.507-.04.812 1.251 1.456 2.847 1.602 1.304.02-.208.068-2.077.104-2.201.229-.801 1.939-.62 2.704-.111.252.172.153.41.108.639-.541 2.717-1.424 3.136 1.227.922.306-.258.541-.437.844-.266.505.359.924.83 1.225 1.379.606 1.081-.595 1.409-1.042 1.78-.292.242-1.425.738-1.261.851.737.55 3.143-.401 3.042.97M290.557 230.116c-.158 1.966.05 2.015-1.102 1.966a18 18 0 0 0-2.136-.166c-.108.211 1.416 1.617 1.29 1.972a3.5 3.5 0 0 1-1.749 1.105c-1.006.332-1.26-1.61-1.928-2.127-.342-.154 0 1.703-.463 2.218-.16.176-.554.148-.91.155-1.44.029-1.33-.374-1.114-2.376.063-.586-1.732 1.316-2.263 1.163-.628-.175-1.46-1.495-.72-1.975q.791-.435 1.638-.769c.441-.18.07-.333-.189-.344-2.246-.067-3.24.402-2.52-2.254.196-.548 1.568-.166 2.858-.158.931 0-1.44-1.126-1.465-2.292 0-.316.339-.499.72-.818.747-.638 1.165-.511 1.505-.033.446.625 1.08 1.839 1.415 1.731s.194-2.238.289-2.542c.231-.72 1.939-.558 2.7-.099.252.154.153.369.108.575-.52 2.39-1.44 2.865 1.226.83.308-.236.54-.394.843-.239.505.323.924.749 1.225 1.244.602.972-.594 1.264-1.042 1.6-.291.217-1.422.664-1.26.765.641.472 3.141-.358 3.044.868M306.677 232.59c-.157 1.969.052 2.015-1.102 1.97a18 18 0 0 0-2.136-.166c-.107.204 1.419 1.621 1.289 1.968a4 4 0 0 1-1.749 1.106c-1.007.342-1.261-1.606-1.929-2.127-.342-.156 0 1.703-.464 2.22-.161.176-.555.138-.901.154-1.578.072-1.302-.65-1.115-2.378.061-.571-1.722 1.319-2.266 1.163-.627-.174-1.461-1.496-.72-1.975q.793-.435 1.641-.771c.439-.178.068-.332-.191-.342-2.255-.049-3.242.43-2.522-2.238.196-.55 1.571-.166 2.86-.166.931 0-1.394-1.129-1.464-2.292-.02-.314.339-.499.72-.82.746-.638 1.166-.507 1.506-.033.825 1.154 1.457 2.557 1.601 1.174.02-.193.069-1.874.105-1.985.232-.715 1.927-.564 2.702-.098.252.153.153.369.108.575-.532 2.433-1.429 2.826 1.226.831.306-.233.541-.396.843-.244.506.324.924.75 1.225 1.246.603.971-.594 1.265-1.041 1.599-.292.218-1.425.665-1.261.772.677.445 3.132-.358 3.035.857M324.037 235.751c-.159 2.181.052 2.233-1.103 2.181a16 16 0 0 0-2.138-.184c-.113.254 1.395 1.767 1.291 2.19a3.8 3.8 0 0 1-1.75 1.227c-1.004.369-1.278-1.792-1.932-2.366-.361-.151.036 1.86-.464 2.465-.158.185-.555.155-.901.172-1.566.07-1.326-.718-1.115-2.64.07-.652-1.739 1.463-2.268 1.291-.63-.197-1.459-1.66-.72-2.194a14 14 0 0 1 1.638-.854c.443-.199.072-.369-.191-.38-2.379-.037-3.181.343-2.523-2.509.196-.609 1.571-.176 2.862-.172.931 0-1.442-1.251-1.467-2.544 0-.353.34-.554.72-.91.745-.706 1.165-.568 1.507-.04.813 1.251 1.456 2.847 1.602 1.304.02-.208.069-2.077.105-2.201.229-.801 1.939-.62 2.703-.111.253.172.153.41.108.639-.54 2.717-1.423 3.136 1.228.922.306-.258.54-.437.843-.266.505.359.924.83 1.226 1.379.605 1.081-.595 1.409-1.042 1.78-.292.242-1.426.738-1.262.851.737.55 3.143-.401 3.043.97M340.157 237.556c-.158 1.966.05 2.015-1.102 1.966a18 18 0 0 0-2.136-.166c-.108.211 1.416 1.617 1.29 1.972a3.5 3.5 0 0 1-1.749 1.105c-1.006.332-1.26-1.61-1.928-2.127-.342-.154 0 1.703-.462 2.218-.161.176-.555.148-.911.155-1.44.029-1.33-.374-1.114-2.376.063-.586-1.732 1.316-2.263 1.163-.628-.175-1.46-1.495-.72-1.975q.791-.435 1.638-.769c.441-.18.07-.332-.189-.344-2.246-.067-3.24.402-2.52-2.254.196-.548 1.568-.166 2.858-.158.931 0-1.44-1.126-1.465-2.292 0-.316.339-.499.72-.818.747-.638 1.165-.511 1.505-.033.446.625 1.08 1.839 1.415 1.731s.194-2.238.29-2.542c.23-.72 1.938-.558 2.7-.099.252.154.153.369.108.575-.521 2.39-1.44 2.865 1.225.83.308-.236.54-.394.843-.239.505.323.924.749 1.225 1.244.602.972-.594 1.264-1.042 1.6-.291.217-1.422.664-1.26.766.641.471 3.141-.359 3.044.867M356.277 240.03c-.157 1.969.052 2.015-1.102 1.97a18 18 0 0 0-2.136-.166c-.107.204 1.419 1.621 1.289 1.968a4 4 0 0 1-1.749 1.106c-1.007.342-1.26-1.606-1.929-2.127-.342-.156 0 1.703-.464 2.22-.161.176-.555.138-.901.154-1.578.072-1.302-.65-1.115-2.378.061-.571-1.722 1.319-2.266 1.163-.626-.174-1.46-1.496-.72-1.975q.793-.435 1.641-.771c.439-.178.068-.332-.191-.342-2.255-.049-3.242.43-2.522-2.238.197-.55 1.571-.166 2.86-.166.932 0-1.394-1.129-1.464-2.292-.02-.314.339-.499.721-.82.745-.638 1.165-.507 1.505-.033.825 1.154 1.457 2.557 1.601 1.174.02-.193.069-1.874.105-1.985.232-.715 1.927-.564 2.702-.098.252.153.153.369.108.575-.532 2.433-1.429 2.826 1.226.831.306-.233.541-.396.843-.244.506.324.924.75 1.225 1.246.603.971-.594 1.265-1.041 1.599-.292.218-1.425.665-1.261.772.677.445 3.132-.358 3.035.857M254.31 355.423c.55-3.663 7.641-10.23 7.561-7.266-.047 1.81-2.408 1.436-4.96 5.972-.672 1.205-1.044 3.296-1.649 3.811-1.017.871-.88 1.843-1.337 3.197s-1.892.841-1.842-.6a8 8 0 0 1 1.508-3.849c.355-.344.605-.783.719-1.265M246.56 428.008c2.522 2.401 3.749 2.827 3.058 3.698-.474.597-1.24.339-1.803-.147a19.7 19.7 0 0 1-5.578-6.599 22.8 22.8 0 0 1-1.299-7.095c2.851.176.468 5.24 5.622 10.143M179.952 52.57c.645 1.027.516 3.366-.771 3.473-1.288.106-1.488-2.088-1.26-3.294s1.51-.994 2.031-.178M150.688 71.228a3.1 3.1 0 1 1 6.2-.04 3.1 3.1 0 0 1-6.2.04m3.194 1.371a1.637 1.637 0 0 0-.171-3.241c-2.058.052-1.897 3.519.181 3.241zM155.415 65.506c-1.369.298-1.773-1.009-2.435-.637-.759.424.037 2.001-1.33 1.877a1.24 1.24 0 0 1-.964-1.262c.813-3.849 3.186-1.572 2.69-3.224-.61-2.041-.704-2.609-2.623-3.09-.42-.107-1.067.41-1.24.917-.085.248.319 1.67-.854 1.65-1.049-.018-1.376-3.785 1.558-4.373 4.394-.89 6.592 7.84 5.198 8.142M147.89 241.688a.92.92 0 0 1 .37-.628.9.9 0 0 1 .714-.152.91.91 0 0 1 .593.423.913.913 0 0 1 .089.724c-.367 1.929 1.094 23.949-8.348 32.925-3.821 3.633-4.597.895-3.405.022a20.2 20.2 0 0 0 4.216-3.849 28.8 28.8 0 0 0 3.376-8.521c3.705-14.496 1.431-15.421 2.395-20.944M140.52 243.972c.268 0 .154 1.528.231 1.54-1.553 16.247-1.119 19.096-5.898 25.762-.367.514-.637.591-1.156.358-1.941-.871 2.17-3.981 3.081-8.839 3.107-16.554 1.014-18.645 3.742-18.821M109.617 254.636c.679.866-.727 1.865-1.183 2.326a28.1 28.1 0 0 1-14.245 8.318c-9.524 4.673-17.405-3.224-13.115-2.668.161 0 .303.186.447.302 2.685 2.18 8.638 2.034 11.373.677 2.547-1.262 2.728.35 10.709-5.131 3.37-2.316 4.826-5.332 6.014-3.824M88.033 365.537c2.116 1.093 8.74.687 7.05 2.8a1.56 1.56 0 0 1-.681.357c-8.63-.804-7.15-2.232-12.167-3.073-.895-.151-2.847.543-3.472.429-2.28-.431 1.23-4.667 9.27-.513M64.47 174.84c2.2-2.111 5.353-.045 5.114 3.152.045 1.951-2.745 5.607-4.216 7.326-1.009 1.178-1.865 0-5.23-2.629a4.996 4.996 0 0 1-.883-7.001c1.206-1.553 2.217-1.372 3.968-.437.665.362.846-.027 1.248-.411m.363 8.466c1.582-2.254 3.112-4.114 3.085-5.498.067-1.842-1.61-2.279-2.041-1.852-1.548 1.542-1.736 3.256-2.941 1.44-2.2-3.298-4.526 1.751-2.002 3.763 3.559 2.839 3.42 2.829 3.899 2.147"/><path fill="#000" d="M470.216 394.456c-8.953-1.175-64.629-.397-69.876.092 0-.796.052-.605.28-4.925a83 83 0 0 1 1.431-9.64c.937-9.072-.625.282 2.849-21.958 1.533-9.814-.496-2.991 2.751-28.991 2.743-22.003 3.278-23.739 3.427-33.232 0-.055 2.232-23.729 2.232-24.652.064-13.64 3.427-25.544 5.754-55.244.925-11.837-.407-6.054.456-13.233 5.538-46.158 13.442-126.79 16.864-165.644 2.569-29.227-4.712-30.537-19.862-32.637-18.087-2.505-54.015-1.24-91.143-1.79-48.568-.554-70.977-9.197-74.648 9.478-4.087 20.742-7.214 45.361-19.041 145.506-.03.248-7.837-.218-7.892-.218-12.851-.248-14.227 3.189-20.99-5.347-7.346-9.275-10.054-9.632-11.16-12.464-1.672-4.286-5.191-7.631-6.925-13.234a45.8 45.8 0 0 0-5.803-12.127c-.669-.992.541-2.299.315-4.07-.588-4.592-1.289-3.856-5.786-10.093-2.311-3.207-4.216-1.203-4.977-2.887-2.346-5.14-4.266-4.806-3.988-5.753a8.9 8.9 0 0 1 1.984-3.55c.89-.962-.183 2.87 3.79 3.527 1.215.201 2.006 3.304 6.115 1.712 1.816-.705 1.714 1.388 5.66-1.102.744-.46.845-.508 1.86-3.504.453-1.344-.806-2.926-1.101-3.655-.764-1.898-1.394-1.102-1.612-2.086a19.9 19.9 0 0 1-.248-6.242c.979-1.984 2.17-3.393 1.143-5.315-.266-.496.285-.555 1.007-.583 5.104-.198 6.944-2.867 6.309-5.384-.407-1.644-2.321-2.678-3.752-3.816-1.072-.854.476-1.489.176-5.184-.64-7.918-.908-9.478-2.552-10.631a20 20 0 0 1-.819-3.224c-.744-2.25-.116-1.965.028-2.25a1.877 1.877 0 0 0-.519-2.024c-1.696-.992-.349 1.06-4.327-5.93a1.248 1.248 0 0 1-.077-1.24c1.813-3.55.555-8.478-3.504-7.23-.935.379-1.079-.484-3.564-2.064a4.62 4.62 0 0 0-5.925.126c-3.045 1.86-4.253-5.156-8.546-.587-.915.972-.88 1.066-2.425.166a3.33 3.33 0 0 0-3.829.34c-.348.296-.631.66-.831 1.07-1.144 1.68-.963.896-3.849.705a3.7 3.7 0 0 0-3.519 2.69c-.315 1.204-1.689 1.24-2.999 1.171a3.88 3.88 0 0 0-3.648 4.363c.037.526.109 1.346-1.55 1.418a3.556 3.556 0 0 0-3.45 4.28c.385 2.94-2.936 1.682-3.472 4.643-.496 2.671.806 2.728-.089 3.773-1.922 2.251-2.2 4.91.226 6.599 1.666 1.16-1.24 3.266 1.825 5.912a6.2 6.2 0 0 0 2.096 1.488c.528.166.652.496.496 1.056a5.46 5.46 0 0 0 2.497 5.39c2.207 1.55.623 4.533 5.126 4.131.794-.072.794-.094.794.705a21 21 0 0 1-.871 4.756c-.3 1.3-3.655-1.02-7.226.962-3.683 2.044-4.345 4.653-7.567 5.474-4.434 1.128-7.246.63-10.733 2.877-1.644 1.059-1.595-.132-6.153.895-8.635 1.944-17.003 11.844-21.48 19.542a56.5 56.5 0 0 1-7.033 9.546c-.66 1.012-5.475 10.835-6.016 11.904-2.334 4.645-5.027 7.837-7.063 12.293-2.768 6.061-3.765 3.204-9.25 12.896-4.137 7.311-4.028 7.304-4.4 8.844-.898 3.702 5.245 4.888 4.142 6.602-5.536 8.578-6.449 21.147-11.195 32.021-2.976 6.796-8.581 31.412-12.648 38.567-2.349 4.132-.479 2.82-2.892 6.855a54.5 54.5 0 0 0-7.113 13.751 31.6 31.6 0 0 1-6.237 10.642c-5.386 6.666.633 6.631.176 8.067a2.634 2.634 0 0 0 3.79 3.472c2.014-1.54 2.261-2.527 2.921-2.247 1.111.469 1.34.062 5.31-1.852.144-.139.208-.181.154-.072l-.154.072c-1.964 2.043-4.69 4.712-2.89 6.879 1.801 2.168 6.2-.885 7.77-3.224 7.565-11.259 3.735-4.464 10.062-20.971 1.63-4.25 1.061-7.96 2.11-9.515.853-1.26 13.472-24.113 13.472-24.173 18.3-34.707 20.122-50.009 20.988-46.753 1.57 5.913.21 7.15 2.663 8.74.62.404.358.612-.55 3.196-2.659 7.564.126 6.925-2.354 12.815-2.653 6.299-4.868 8.499-4.682 13.059.122 3.001-1.351 4.911-3.596 8.623-5.409 8.928 2.041 16.011 1.77 17.311-2.206 10.582.67 10.532.165 16.323a91.3 91.3 0 0 0-1.188 15.785 78.2 78.2 0 0 1-.191 18.206c.124 9.984-2.398 6.448-2.877 24.244-.332 12.4-3.442 14.087-3.256 19.803.104 3.261-3.036 6.215 2.172 9.558a29.3 29.3 0 0 0 8.983 2.552c2.368.588-1.592 4.923-1.36 9.583.09 1.783-1.358.615-1.946 2.376-.496 1.488-1.35 5.272.19 5.686.794.213.269.776.058 1.736-3.296 14.957-3.058 9.828-4.402 24.317-.055.6.027.778-4.216.59a42 42 0 0 0-12.542.218c-19.735.635-33.068-.124-34.36-.116-2.14.014-3.7.414-6.654.369-3.345-.058-6.691.1-10.016.474-.806 0-1.102 1.148-.407 1.319 2.398.848.213-.322 9.317-.131 6.518.134 5.312-.571 10.813-.199 22.402 1.516 48.112-2.244 47.978.665-1.056 22.92-.682 18.635-2.75 28.788-.248 1.19-1.153.87-2.007 2.058a6.41 6.41 0 0 0-.974 6.448c.496 2.163-1.196 2.46-1.754 7.408-.992 8.7-1.098 8.958-.885 9.9.114.516.6.97.655 1.488.054.518-.303 1.101-.308 1.652-.017 1.391.318 4.399 1.099 4.96a24.74 24.74 0 0 0 10.709 3.325c8.543 1.421 11.93-4.178 19.172.816a10.7 10.7 0 0 0 5.022 1.898c3.49.329 6.92 1.111 10.416 1.292a81 81 0 0 0 8.393-.37c9.119-.248 4.853.536 10.416-.927a6.05 6.05 0 0 0 2.552-6.386c-.665-2.364-.551-3.564-1.65-4.216-.92-.546-1.031-2.456-2.42-3.554-4.749-3.75-4.861-2.676-6.632-3.08-.781-.176-1.783 0-1.931-1.24-.139-1.168-4.482-1.488-5.258-3.542-2.031-5.391-3.948-3.293-4.729-5.456-.62-1.699-2.195-2.502-3.428-3.631-3.224-.357-2.832-6.368-6.887-10.775-2.842-3.088-6.909 1.376-6.599-.273.635-3.38 4.154-13.171 6.696-26.04.288-1.461 104.993-.528 105.241-.518 1.759.069.824-.98-.61 14.971a32 32 0 0 0 1.057 9.003c3.315 11.971 14.83 11.634 23.902 13.846 31.957 7.787 80.523 17.434 112.798 26.434 9.92 2.763 39.447 8.568 42.485 7.056 3.038-1.513 12.062-3.529 14.041-16.693.05-.521-.044-1.044 0-1.595 1.984-24.14 1.399-13.003 3.691-39.432 1.222-14.086.808-13.68 3.008-13.685l68.621-.248c1.801-.027 2.518-1.178.169-1.495M304.388 3.636c1.183.364 2.349-.142 3.522 0 18.059 2.172 29.524.555 34.04.877.055 0 29.602.288 31.132.838-11.453 16.232 2.847 11.044-55.18 9.553-10.624-.272-11.279-.448-12.38-5.126a40 40 0 0 0-1.409-5.676c-.109-.28.045-.539.275-.467M201.672 154c3.182 3.056 6.639 6.255 12.018 5.456 4.745-.36 9.509-.382 14.257-.067 3.693.062 23.617-1.451 27.303-1.324a19.4 19.4 0 0 0 6.138-1.173c2.48-.722 10.061-8.911 11.447-8.911-.099 2.133-1.736 6.084 1.054 10.255.216.521.167.556.112 2.123a14.1 14.1 0 0 0-5.374-1.205c-3.777 0-2.937 2.301-1.55 1.932a6.32 6.32 0 0 1 6.373 1.984c.309.559.544 1.156.7 1.775.181.528 1.153 1.225 1.374.496.395-1.925.448-3.904.156-5.848-.092-2.48 3.968-3.157 3.472 3.916-.174 2.448-.308 4.266-2.52 5.134a14.2 14.2 0 0 1-6.874-.794c-8.115-3.035-37.567 11.16-60.894 15.599a21 21 0 0 1-3.207.551c-6.867-1.069-6.512-.382-14.21-7.284-3.358-3.008-3.224-2.787-2.882-3.799a57 57 0 0 1 3.72-7.234 34.8 34.8 0 0 1 4.6-8.447 30.5 30.5 0 0 1 3.353-3.224c.665-.571.774-.546 1.434.089m54.875 17.397c5.309-1.557 8.362-2.623 11.832-1.86 4.533.992 7.539 1.6 10.215.05.248-.146.665-.496.744-.424.382.345 1.032.474 1.017 1.173-.129 5.878 8.509 4.236 19.773 6.532 10.731 2.19 29.613 3.896 31.295 4.067 25.988 2.622 25.271 5.06 31.089.665 1.61-1.218 1.59.598 3.849-41.094.729-13.446 3.274-26.555-3.224-29.596-1.642-.766 4.196-18.6-3.159-28.81-10.585-14.67-43.425-15.748-52.673-4.34-5.669 6.991-7.192 15.532-8.201 24.656-.107.943.089.526-2.113 1.339-4.611 1.702-6.577 8.822-11.5 35.752-.365 1.984-.104 1.803-1.652 1.572a9.817 9.817 0 0 0-8.491 3.279c-.437.528-2.354 1.044-3.026 1.428-2.849 1.642-5.917 5.853-10.185 8.604-2.525 1.626-4.593 1.567-10.835 2.018-4.021.29-3.688 1.176-1.697-7.574.784-3.452 4.489-56.244 12.348-106.473 1.538-9.839 1.575-8.767 23.959-8.256 21.103 2.113 46.235.776 73.656 4.263 3.165.401 22.162-.424 33.267 1.984 1.672-.027 3.343.09 4.995.347 5.996-.248 5.128 4.667 5.374 10.334.248 5.59-26.224 242.048-26.464 242.824-4.179 13.258-18.578 5.436-24.966 5.34-.638 0-35.841-6.352-35.896-6.352-11.462-2.095-8.471-.897-20.021-2.532-9.538-1.346-16.814-3.008-16.864-3.008-1.815-.213-12.648-.992-17.05-2.666-.927-.355-15.468-2.14-15.951-2.321-4.038-1.52-11.138.451-11.495-9.774-.136-3.923 10.83-95.864 10.895-97.062.032-.682-.861-.563 11.155-4.085m87.454-84.816c-8.092-2.976-9.176-2.646-17.36-3.387-6.13.419-10.103 1.24-12.447 6.904-5.929 14.315 1.905 12.896-9.096 12.623-3.614-.092-4.159.119-4.097-.645.254-2.902.734-5.78 1.436-8.608 2.497-10.43 3.69-10.79 5.555-13.486 8.839-12.782 43.422-9.278 51.041 4.132 3.935 6.924 3.415 16.457 1.984 24.304-.372 2.041-.092 1.629-11.336-.328-1.139-.2-1.441.092-.551-6.738.68-5.24-.097-12.928-5.129-14.78zm2.614 20.066c-.173.672.454.937-4.665.325-31.558-3.78-28.892-3.489-28.745-4.742 1.875-16.01 6.163-18.218 19.741-16.554a50.3 50.3 0 0 1 9.791 2.277c6.019 1.989 4.947 14.5 3.871 18.684zm-30.295-1.183c1.165.144 44.109 4.692 47.102 7.75a11.6 11.6 0 0 1 2.185 7.217c0 .054-3.117 55.304-3.559 57.486-.476 2.361-1.984 2.728-3.224 3.224a17.9 17.9 0 0 1-6.879.623c-3.809-1.191-49.124-5.476-51.229-6.696-1.865-1.094-13.392-1.736-16.584-2.557-1.382-.352-1.617-1.319-1.932-2.056a10.05 10.05 0 0 0 3.797-1.183c1.458-.816.466-1.855 2.557-1.771 2.921.119 3.794-2.167 4.679-5.275.412-1.441 1.305.558 3.301-.992 3.849-2.993 3.539-6.758 1.067-10.912-.558-.942-.539-1.101.359-1.488a43.6 43.6 0 0 1 8.184-3.174c1.258-.533 1.213-1.081 3.123 4.246 1.006 2.807 3.548.64 2.69 2.442-2.309 4.846-5.359 8.544-.897 9.779 1.837.496 13.806 1.315 14.999 1.9.339.116.698.168 1.056.154 5.469.262 7.74.992 7.393-2.203-2.678-24.574-5.751-17.759.099-26.104a10.5 10.5 0 0 0 1.225-7.517 14.7 14.7 0 0 0-1.098-2.949c-1.526-4.464-7.862-5.828-9.747-5.731a10.25 10.25 0 0 0-10.379 8.392c-1.304 9.672 8.184 3.224-15.237 12.477-6.787 2.684-5.034 1.699-5.857 1.044-6.515-5.193-9.025 11.969-1.88-22.352 3.311-15.966 4.347-16.301 24.686-13.784zm-35.184 46.17a9.5 9.5 0 0 1 3.224-1.704c1.436-.686 1.887 4.938.109 3.882a2.69 2.69 0 0 0-3.045.215c-.804.787-1.047.67-1.761-.312a3.542 3.542 0 0 1 4.174-5.63c-.539.836-1.025.04-3.636 1.937-.992.722-.057 2.659.935 1.612m-.176 12.452c.027-.109.166-.193.248-.285.072.099.206.186.206.298.119.714 1.374 1.012 1.698-.221.593-2.249-2.425-3.651-1.661-6.991.568-1.811 2.418-2.413 3.202-.677 3.013 6.696 1.703 7.688 1.016 10.098v-.037c-.441 1.54-1.371 1.54-3.333 2.15-2.472-.664-2.341-.322-1.374-4.335zm10.55-12.199c-1.148-1.413-.898-4.511.659-3.668 6.944 3.224 6.468 10.456 2.857 11.622-.297.233-1.378.057-1.398-.727-.03-1.282-.474-1.329-.271-2.634.925.434 1.451.709 1.503-.389.035-.677-1.356-1.756-3.348-4.204zm-1.077 12.274a1.93 1.93 0 0 1-.917 1.199 1.95 1.95 0 0 1-1.498.18l-.117.203c.325-.479.062-2.411.496-4.186.623-2.624-2.123-7.641.516-8.41.511-.149.769.27.98.744 1.927 4.481 2.549 5.198.543 10.27zm24.815-19.528c-.885-2.076-.992-2.095.062-2.388 1.826-.511 1.372-.975 2.26.588 2.328 4.097 2.594 5.823 3.603 5.545a24.6 24.6 0 0 0 6.761-3.398c.396-.404 0-.967-2.168-5.666-4.36-9.424-2.557-7.497-7.733-6.071-1.607.441-1.517-1.575-1.837-3.649a7.85 7.85 0 0 1 3.134-6.237c8.571-5.8 19.054 3.209 12.832 12.911-4.042 6.307-3.291-.637-.141 21.844.543 3.891.57 4.464-.623 4.347-21.117-2.232-21.273-1.941-20.269-4.34.923-2.199 2.443-5.456 3.388-7.149a2.33 2.33 0 0 1 1.029-.893c2.165-1.121.846-2.778-.295-5.444zm-24.864-.766c-.866.337-1.637-.265-2.542-.977 1.895-1.082 3.07-1.488 4.489-.266.756.655-1.24 1.035-1.945 1.243zm19.805-5.863c3.457-1.287 9.454-3.35 10.714-3.849.446-.176.744.464.902.789a27.6 27.6 0 0 1 1.722 3.365c.917 2.976 3.224 5.756 2.48 6.121-4.363 2.165-4.494 2.381-5.032 1.505-3.651-6.763-3.152-6.411-5.035-5.753-3.673 1.287-4.136 1.292-2.39 5.165 1.274 3.487 2.088 2.6-1.36 4.147a.98.98 0 0 1-1.173-.131c-2.695-5.308-1.736-6.448-3.677-5.952a54 54 0 0 0-10.364 3.851c-1.139.56-1.374 1.401-2.044.91-2.827-2.078-2.301-1.59-4.057-1.59-1.617.34-1.528 2.48-1.761 3.795-.102.568-.379.672-1.488.798-.66 0-.471-4.883-3.839-5.242-.714-.075-1.423-.29-2.133-.298-4.015-.035-7.14 6.748-2.415 10.969.077.067.094.199.139.303-.117-.018-.273.017-.353-.045-3.023-2.321-4.017 2.364-4.91-2.884-1.461-8.578 7.475-14.084 13.179-9.501 2.924 2.334 5.83-.119 22.898-6.473zm-87.236 164.608c1.713 7.112 3.288 6.656-3.195 8.893a15.6 15.6 0 0 0-2.113 1.24c-6.319 3.616-2.48.407-8.355 2.976-6.629 2.892-5.25 2.081-7.655 2.641-1.136.263-2.106.62-2.327-.478-2.172-10.769-1.579-9.643-2.586-12.234a14.7 14.7 0 0 0-7.54-5.952c-.324-.107-.302-.236-.161-.469a13.6 13.6 0 0 1 3.703-4.509c5.473-3.692 5.987-6.852 7.556-8.635 6.31-7.162 5.233-6.344 9.638-9.295 1.825-1.225 1.763.474 9.553 8.048 1.805 1.753 3.045 7.082 3.663 9.424.424 1.567-.692 6.224-.181 8.35m1.81 18.515c.332.715 1.24.157 2.294-.384.957-.496.06 0 2.006 7.376.496 1.899-18.463 10.822-21.34 10.991-1.553.089-2.656 1.391-3.202-.858-2.688-11.086-3.779-8.68-1.098-9.484 3.11-.942 1.128-2.859.163-2.316-1.289.729-2.661.248-3.997.429-1.337.181-2.175-3.224-2.289-4.581-.278-3.251 4.181-.496 9.672-3.35a42 42 0 0 1 4.464-1.649c1.299-1.285 2.844.23 5.704-1.716a20.7 20.7 0 0 1 5.193-2.639c4.332-1.054 4.119-6.101 5.785 2.847.546 2.929-4.419 3.058-3.355 5.334m30.422 60.597c.179 1.458-1.151 1.835-2.361 2.812-.925.744-1.617 1.647-2.281 1.786a2.04 2.04 0 0 0-1.724 2.375 2.05 2.05 0 0 0 .868 1.337 2.042 2.042 0 0 0 1.565.305c.831-.188 1.113-1.101 1.099-1.969-.018-1.195.992-1.795 2.678-3.053.863-.64 1.069 1.263 1.101 2.364.017.617-.679 2.018-.615 2.728.189 2.048 4.052 1.756 3.546-.876-.248-.845-.907-.335-1.056-2.095-.248-2.976-1.2-3.348.188-3.911a11.1 11.1 0 0 0 4.812-2.151c.573-.476.404-.347 2.063 3.587.308.726-.275.714-.898 1.488-1.82 2.232-1.532 2.393-2.304 2.792a1.61 1.61 0 0 0-.8 1.433 1.61 1.61 0 0 0 .881 1.385 1.6 1.6 0 0 0 1.637-.117 1.6 1.6 0 0 0 .676-1.496c-.216-1.53.964-2.118 1.793-2.958.3-.305 1.562 1.056.939 2.75-.622 1.694 1.679 2.344 2.48 1.292s.263-1.26-1.336-5.456c-.34-.895 1.656-1.111 2.48-3.135.27-.654.841-.697 1.2-.143 1.853 2.864 1.803 3.038 1.572 3.432-.297.508-1.155 1.431-1.24 1.937a4.95 4.95 0 0 1-1.21 2.448 1.28 1.28 0 0 0-.183.972 1.3 1.3 0 0 0 .56.816 1.705 1.705 0 0 0 2.498-.952c.104-.327.108-.678.009-1.008-.384-1.297-.017-1.413.769-2.71.59.23.677.781.836 1.282.267.467.383 1.005.332 1.54a1.32 1.32 0 0 0 .608 1.416c1.475.92 2.901-1.409 1.984-2.177-1.121-.94-1.21-2.423-1.969-3.52-.228-.329-.313-.496 1.503-3.486.396-.655 1.292-.66 2.596-.903s.372 2.716.714 2.316a34.1 34.1 0 0 1-1.584 8.839c-.045 1.942-1.508 1.932-6.974 3.043-6.371 1.292-7.145-.613-9.989-.062-16.557 3.224-12.534 6.364-17.656 8.454-5.753 2.346-4.29 2.423-14.029 2.751-1.096.034-1.104-.018-1.476-1.025-2.757-7.44-4.506-8.124-4.697-12.258-.156-3.368-.694-4.043.593-3.758.672.149 1.548.615 1.9-.324.332-1.064-.744-1.625-1.838-1.848-1.736-.122-2.778-1.463-4.087-2.321a.893.893 0 0 1-.33-.705c.236-1.331.6-3.509 1.436-2.569 1.2 1.354 2.951 1.518 5.33 2.262a10.26 10.26 0 0 0 10.329-2.2c1.508-1.178.578-.863 6.572 1.887a1.06 1.06 0 0 0 1.535-.689c.112-3.043-12.998-1.436-4.449-14.178 2.445-3.088 3.683-2.942 4.742-2.976.935-.037 6.557 5.456 8.052 8.618 1.575 3.316.144 2.81.61 6.582m1.761-1.957c0-1.86-.181-1.905 1.371-1.793 5.037.362 5.501 2.016-.706 3.601-1.183.302-.39-1.808-.665-1.808m8.762 1.567c-.171-.387.853-.496 1.547-.659 2.16.496 3.162.458-.081 2.991-.37.29-.96-1.203-1.466-2.332m9.131.715c1.161-.149.566-.412 1.53.138-1.101 1.568-1.331 1.984-1.557 1.694-1.473-1.865-.749-1.733.027-1.825zm2.48 18.213c.035-.248-2.274.716-3.03.818-2.448-.188-3.162 1.535-7.222 1.099-5.411 0-9.325-.209-13.784 3.72-2.728 2.4-3.008 3.224-4.305 3.72-5.325 2.073-16.805 6.944-18.327 1.27-.429-1.595-.859-1.471 1.17-1.595 5.017-.308 8.742.149 14.85-3.224 4.755-2.629 1.798-4.772 14.714-7.512 5.903-1.24 2.445 1.892 17.276-1.545.407-.097.565.025.605.456.156 1.736-.228 2.314-1.949 2.793zm-40.034-26.167c-1.283 3.604.744 5.208.2 5.744a8.43 8.43 0 0 1-9.59 2.304c-.848-.318-3.933-.628-4.764-2.706-7.336-18.382-6.2-12.365-10.014-20.616 7.123-1.057 12.231-4.64 19.309-9.196 1.101-.709 1.317-.605 1.458.687a52 52 0 0 0 1.305 5.545c4.308 19.419 4.846 10.496 2.096 18.238m-5.114-26.593c-6.23 3.824-12.489 8.199-19.642 9.561a.636.636 0 0 1-.786-.353c-2.495-5.664-.62-.168 9.208-6.371.06-.037 9.605-4.744 11.723-6.314 1.007 2.284.598 2.8-.503 3.477m-.06-5.632c-2.331 1.56.809 0-7.593 4.521-9.392 5.067-10.622 5.163-14.665 5.831-.496-.496-.153.248-1.604-3.043-.883-2.009-1.119-2.267-.09-2.557a42.1 42.1 0 0 0 12.988-5.136 69.5 69.5 0 0 0 8.745-5.208c1.049-.992 1.371-.677 1.562.28 1.059 5.322 1.133 4.992.657 5.322zm-25.025 3.197c-.149-.129-.375-.233-.447-.409-1.195-2.924-1.428-3.326-.583-3.42a30.3 30.3 0 0 0 8.641-2.751 63.9 63.9 0 0 0 14.495-7.492c.853-.521.744-.186 1.335 2.398a65 65 0 0 1-23.441 11.674m10.562-65.683c-.151.62-2.959-1.91-3.537-3.532.546-4.357-2.876-6.388-6.857-9.349-2.797-2.081-2.443-4.129-6.783-7.023-9.691-6.468-8.68-6.466-12.32-11.205-3.74-4.873-6.178-3.375-10.032-8.467-4.352-5.748-4.977-4.727-4.037-6.18 1.768-2.728 1.274-10.758-1.897-13.789a17.8 17.8 0 0 1-1.24-4.434c-2.619-17.251-.157-10.386 2.055-24.8.62-4.02-1.292-7.624.293-15.153a36 36 0 0 1 5.062 5.704c1.158 1.615 4.399 4.268 6.215 3.366 1.815-.903 1.627-1.054 4.823-4.864 1.181-1.406 1.31-1.158 1.969-.548 6.166 5.704 10.578 9.424 27.501 4.152 11.408-3.552 10.513-3.656 10.433-2.282-.126 2.133-6.219 40.176-8.449 67.597.01.07-2.341 27.335-3.199 30.807M170.161 99.867c.612.165 1.146.539 1.513 1.056 1.649 2.813 6.743 7.157 5.225 9.811a2.7 2.7 0 0 1-.992-1.183c-1.084-2.941-5.925-5.803-5.749-6.383.305-.99-.106-1.62.003-3.301m-1.24 8.943c.642-2.48.511-2.949.895-3.45 4.588 3.968 3.564 3.72 6.399 7.936.649.967.205 1.513-.248 2.614-.288.687-.496-.161-3.428-3.504-3.482-3.976-3.841-2.766-3.626-3.596zm-.27 2.42c.954.784 6.128 6.696 6.314 6.944-1.984 5.131-1.89 4.896-2.267 4.4a49 49 0 0 0-5.235-5.208c-1.079-1.054-.469-.229 1.18-6.126zm-23.097 60.668a158.6 158.6 0 0 1-25.318 15.57c-3.075 1.532-2.619 1.046-8.767 2.75-5.456 1.515-6.696 2.584-8.514 2.976-1.277.104-.786-.374-1.436-1.471-.744-1.24-.23-.629 3.968-2.556 2.277-1.047 3.42-.199 6.761-1.848a21.3 21.3 0 0 1 6.696-2.872c2.827-.387 8.908-4.489 10.642-5.768 3.112-2.297 6.472-3.294 9.176-5.248 2.016-1.466 5.661-3.546 6.051-3.968 2.413-2.661 5.905-4.417 8.328-7.068.295-.325.563.171.682.474.969 2.509.868 1.746-8.269 9.029m9.774-4.833a13.7 13.7 0 0 1 1.099 4.65 11.86 11.86 0 0 1-3.011 8.33 52.4 52.4 0 0 1-9.387 7.805 50 50 0 0 1-7.618 5.418c-3.103 1.873 1.178.93-14.742 7.701-2.871 1.22-4.662 1.711-5.24 1.942a10.03 10.03 0 0 1-8.504-.881c-1.391-1.443-6.172-6.696-4.29-7.402 19.979-7.617 7.688-1.213 21.214-7.936 21.71-10.818 29.933-21.772 30.479-19.627M99.28 188.331c-1.34-5.208-4.13-4.598-4.025-10.763.052-3.108 3.035-4.96 5.917-6.052 5.967-2.279 27.878-17.62 28.86-18.364 1.639-1.225 9.087-7.936 14.037-8.276 2.728.124.27 1.091-2.002 3.006-2.551 2.153-2.184 2.976-.709 7.311.194.406.452.778.764 1.101 1.957 2.525 1.228 3.804 3.884 4.464 1.314.323 2.926-1.384 4.615-2.877.923-.818.786.077 1.771 1.736.687 1.156.409.955-6.652 6.882a18.7 18.7 0 0 1-6.319 4.509c-1.356.781-3.328 2.254-3.382 2.282a39.7 39.7 0 0 0-7.624 4.166 35.5 35.5 0 0 1-9.823 5.439c-4.147.942-4.762 2.127-7.854 3.417-.563.233-4.814 1.203-5.127 1.203-2.388.169-5.47 4.186-6.336.816zm.72 4.779c-.797.744-1.055 1.262-1.786.796-.588-.375-.293-.809.198-1.501s1.034.11 1.582.705zm-9.271-14.91c-.064-.352.02-.62.449-.665 1.947-.205 2.217-1.488 2.279.992.164 6.627 3.908 6.758 1.65 7.408-.728.208-2.327.759-2.48.199a64 64 0 0 1-1.898-7.934m-2.08 8.794c-1.159.052-.775.313-1.013-.908-1.26-6.448.092-2.638-1.736-7.936-.362-1.051.744-.248 2.2-.473 1.694-.273.459 1.592 2.379 7.688.58 1.872.371 1.527-1.83 1.624zm59.623-29.683c-2.976 2.897-1.825 1.146-4.478-2.205a7.2 7.2 0 0 1-1.488-4.732c.798-.83 2.194-2.4 2.194-1.24-.126 2.401 4.516 7.45 3.772 8.177m2.557-2.014c-1.026.883-.803.248-4.322-5.131-.474-.722-.271-1.689-.915-2.339a11.7 11.7 0 0 1 1.629-1.758c-.06.092-.98 1.091.744-.469.744-.667.756-.682 1.024.209a59 59 0 0 0 4.335 7.058c-.754.886-1.589 1.7-2.495 2.43m-.104-9.707c-1.044-2.465-.908-1.488 1.897-4.216a45.5 45.5 0 0 1 4.63 7.53q-.136.264-.324.496c-1.893 1.984-2.103 2.386-2.441 1.736-1.22-2.324-3.402-4.692-3.762-5.546m6.374-.87c-3.358-5.027-3.544-4.729-3.108-5.312.992-1.312 1.409-2.128 2.145-3.003.744.538.496.228 4.96 6.309.854 1.165.682.32-2.078 4.191-.526.727-.57-.159-1.919-2.185m4.164-5.027c-2.391-4.134-4.435-4.362-3.79-5.235 2.716-3.688 1.352-4.494 7.249 3.405.464.62.122.588-1.649 3.338h-.05c-.248.367-.496.203-.605.022a8.3 8.3 0 0 1-1.155-1.525zm-.159-9.208c-.856-.64.285-.962 1.934-4.712a25.4 25.4 0 0 1 4.96 6.483 23.6 23.6 0 0 1-1.617 3.72c-.682 1.304-2.785-3.624-5.277-5.491m3.663-5.357c-1.198-1.148-1.431-.808 1.099-5.865.381-.762.372-1.017 4.032 3.008a13.8 13.8 0 0 1 2.086 3.065c-.171.419-2.113 4.12-2.267 4.34-.925 1.508-.02.179-4.95-4.548m14.218-41.342c-1.344.977-.722 3.043-4.395 2.284a1.986 1.986 0 0 1-1.721-1.983c-.093-1.701-.342-3.39-.744-5.045.419.055.744.07.848.194a4.264 4.264 0 0 0 5.853-.288c.516-.55.317 1.766.479 2.75.233 1.409.233 1.697-.32 2.096zm-4.645-6.696a5.98 5.98 0 0 1 3.668-1.133c1.369-.121-.883 2.755-2.676 2.855-1.58-.583-1.922-.94-.992-1.727zm8.68-26.918c.669 9.221.773 8.84-4.685 9.491-5.347.643-5.144.784-6.282-7.975a2.134 2.134 0 0 1 1.657-2.517 24.6 24.6 0 0 1 6.562-1.102c2.723-.091 2.693 1.213 2.758 2.098zm-4.675-13.58c1.332 2.53-3.899.528-4.4 4.464-.077.61-.828 1.446-.032 2.262s1.736-1.922 5.159-2.862c1.321-.362 1.274.57 2.259 4.198.154.57-.355.444-1.825.444a13.2 13.2 0 0 0-4.179.648c-3.72.701-6.803 1.577-7.086 5.066-.119 1.488-.119 1.488-1.681 1.759-3.085.558-11.825 3.033-10.374 1.1a5.36 5.36 0 0 0 .275-5.614c-.32-.422-.126-.682.913-1.297 1.26-.744 1.086-1.426 1.535-2.574.603-1.545-1.488-2.051-.588-2.381 3.224-1.17 1.717-3.07 1.265-4.57 1.858 0 4.38.758 5.9-.918.563-.62.248-1.53.117-2.267-.132-.737.114-.617 1.887-.414 3.08.354 2.976-2.061 4.075-1.65 4.563 2.042 3.219-2.16 6.78 4.606m-41.753 30.521c-.365-2.976-4.425-2.286-3.542-6.832.221-1.143.151-1.314-.816-1.875-4.389-2.547-3.293-2.921-3.035-5.419a1.69 1.69 0 0 0-.992-1.902 2.34 2.34 0 0 1-1.193-3.1c.169-.376.434-.701.769-.942 1.661-1.578.855-2.361.615-3.261-.876-3.304 4.6-2.433 3.581-6.052-.543-1.937.225-2.676 1.513-2.777 6.15-.481 1.133-5.813 5.473-5.759 4.34.055 3.576-.81 4.635-2.976.744-1.513 3.413-.744 3.703-.61.692.315 1.24-.121 1.865-.149.853-.037 1.215-3.46 3.41-2.53 1.19.497 3.472 2.498 4.236.551a4.7 4.7 0 0 1 1.24-1.594c.744-.722 1.076-.608 2.695 1.143a4.37 4.37 0 0 0 5.543-.082c2.259-1.95 5.265 3.333 8.184 2.448s2.907 6.512-.667 5.285c-2.894-.992-4.806-2.818-4.896-.04-.019.632.467 1.076-1.15 1.24-.61.06-6.347-1.364-3.926 2.078.764 1.347-.786 1.905-1.86 1.825-.561-.042-2.949-.478-2.949-.478a1.46 1.46 0 0 0-1.355.639 1.46 1.46 0 0 0-.086 1.496c.352.992 2.299 2.3-.146 2.949a1.432 1.432 0 0 0-1.181 2.006c.566 1.463.992 1.183.764 1.77-.198.497-.173 1.105-.863 1.278-.158.037-.27.248-.429.313-2.991 1.24.025 3.886-.302 4.779-.457 1.24-.568 2.728-1.431 2.135-1.139-.781-2.314-.22-3.452-.082a6.81 6.81 0 0 0-4.876 3.172c-1.949 2.812-1.476 5.374-.417 8.608.533 1.63-.496 1.34-1.374 2.976-.496.937-2.165 1.758-2.713 1.275-1.664-1.461-4.268 1.002-4.575-1.506m4.077 8.036c.838-2.317.161-4.01 1.304-4.256 3.805-.821 4.11-4.519 4.779-3.254a4.13 4.13 0 0 1 .858 3.125c.154 9.736 11.011 8.087 11.552 3.492.161-1.38-1.225-1.28-1.652-.588-2.351 3.841-8.332 2.755-7.99-3.09.183-3.17-1.374-2.976-3.113-8.802a5.857 5.857 0 0 1 3.944-7.09c2.204-.439 2.633-1.94 5.785 3.02.824 1.298 3.224-.669 7.701-.51 12.006.426-1.319 9.654 18.183 5.121 1.347-.312 1.684-.332 2.168.176.759.796 2.636 2.22 2.882 2.48a1.687 1.687 0 0 1 .171 2.044c-.133.207-.31.382-.519.513-1.555 1.15-3.968.645-7.011 1.838-.171.067-.332.23-.478.23a9.1 9.1 0 0 0-2.805.55c-1.24.234-.744-.458-2.899.452-7.411 3.14-5.734 3.512-6.436 3.852-1.024.496-1.091 1.488-1.309 2.408-1.119 4.712.017 1.805-.221 5.342a.5.5 0 0 0 .134.372c1.175.865.156 2.073.496 3.065.032.097-.161.317-.298.417-2.056 1.488-2.378 3.306-4.729 8.31-.546 1.16-1.763 2.024-.809 2.976 1.305 1.31 1.93 7.257-.406 11.773-.496.937-.727 1.024-1.736.729-1.55-.449-2.679-.38-3.614-1.689-3.263-4.566-7.115-4.787-9.672-9.603-1.79-3.358-2.976-3.085-3.987-7.192-1.528-6.2-5.61-6.485-3.18-8.905.967-2.416 2.014-4.839 2.907-7.306m-80.997 74.99c2.728-5.24 4.4-3.78 7.388-9.92 3.578-7.339.612 0 10.27-18.613 6.666-12.841.58-.416 12.248-18.991.328-.524 1.984-2.438 2.837-3.67 4.003-5.73 11.991-10.73 14.384-11.05 6.545-.87 3.82.497 6.875-1.056 6.56-3.343 10.704-1.307 14.724-5.28 1.215-1.2 3.323-4.04 6.539-3.811 1.223.086 2.54.027 2.582.352.084.69-.332.895-.776 1.061-2.383.89-3.559 3.72-.347 7.497 3.871 4.561 1.622 6.185 5.166 10.389 2.549 3.028 2.053 4.739 6.448 7.78 5.909 4.082 4.521 6.287 9.9 7.011a2.83 2.83 0 0 0 3.509-1.27 17.58 17.58 0 0 0 1.24-12.772c-.64-2.212.134-2.607.593-3.968.111-.335.248-.454.55-.144 1.873 1.927 5.04 6.587 4.494 8.97-2.592 11.351-1.535 11.14-4.075 15.694-5.724 10.254 3.257-.516-12.454 20.938a40 40 0 0 1-4.147 4.355c-1.019 1.044-1.314-1.461-4.761-.548-7.872 1.625-16.324 11.641-38.14 24.619-4.055 2.411-6.2 2.133-9.35 5.223-.903.888-.913 2.031-3.422 2.393-3.162.459-3.688.541-3.356-.248.13-.3 2.344-5.659 2.416-5.989 1.019-4.581 4.268-6.083 7.32-14.002 2.944-7.636 6.24-9.27 8.802-17.459 3.13-10.01 12.742-20.398 10.664-28.602a.665.665 0 0 0-1.309.099c.044 10.681-7.787 17.655-11.083 27.501a35.6 35.6 0 0 1-5.154 10.45c-3.6 5.553-3.91 8.988-6.27 12.648a38.6 38.6 0 0 0-4.674 7.998c-1.637 4.264-1.796 4.216-2.651 3.599-5.084-3.72-5.925-1.649-15.825-7.113a73 73 0 0 0-10.862-3.933c-7.418-2.165-6.228 1.238-.293-10.138m9.225 49.337c-1.969-2.691.496-2.232-5.17-4.712-.496-.216-.791 0-.962.449-.387 1.014.637.947 2.063 1.815 4.96 3.021 1.736 7.827-.55 13.251s-5.685 9.828-10.645 6.418c-1.371-.942-2.058-.156-1.027 1.133a6.1 6.1 0 0 0 6.595 1.29c2.25-1.312-15.974 29.606-16.53 32.24a40.3 40.3 0 0 1-2.747 10.885c-4.712 10.835-1.116 6.185-6.173 13.536-3.303 4.803-2.48 4.097-5.664 6.299-1.466 1.012-2.198-.166-1.21-1.265 6.42-7.16 1.84-1.664 8.052-11.448.64-1.009-.56-1.488-1.168-1.009-.44.345-2.361 2.911-4.003 4.613-1.327 1.374-7.028 4.851-5.758 3.142a4.7 4.7 0 0 1 .845-.898c7.988-6.346 7.629-10.877 4.534-6.944-2.86 3.626-4.313 3.936-7.37 7.701-1.985 2.435-2.53 3.553-3.89 3.472-2.71-.154 3.019-5.506 3.745-7.304.923-2.272 6.106-6.391 4.464-7.398-1.53-.935-1.907 2.103-9.302 9.751-.303.313-.633.568-1.099.266-2.13-1.379 3.14-5.243 6.002-10.897 2.247-4.444 1.709-5.836 4.372-10.664 4.96-9 1.686-2.976 5.29-9.204 1.312-2.264.06-1.126 1.679-4.288 3.407-6.658 2.48-3.615 7.408-20.956.759-2.668 5.185-17.382 6.49-20.159.952-2.024.868-5.967 4.565-5.563a2.596 2.596 0 0 1 1.518 3.613c-1.984 3.683-3.065 7.299.166 10.111a4.79 4.79 0 0 0 4.712.972c1.36-.639.913-2.207-.496-1.716-2.656.923-4.682-1.761-4.598-4.273.075-2.217 1.823-3.948 2.113-5.704a3.847 3.847 0 0 0-2.72-4.46 3.85 3.85 0 0 0-1.895-.051c-.617.149-1.037.315-.848-.367 5.739-20.785 2.864-13.459 10.726-28.136.496-.947.578-.039 5.094 1.062 2.688.652 4.655 2.232 10.763 4.982 1.76.796 1.952.278 4.638 1.503-6.188 12.147-9.538 24.671-12.013 28.912zm13.172-15.274c.032-5.327-2.785-7.128.518-6.905 1.21.082 1.21.082 1.585 1.337.397 1.107.697 2.246.895 3.405.308 3.869 1.21 5.146.067 4.901-1.684-.358-3.08-.787-3.07-2.738zm-10.94 46.217c.673-3.321 1.417-3.251 4.29-8.752 1.883-3.596.224-6.265 2.2-9.977 7.602-14.263 2.233-9.129 6.151-22.117.35-1.16.511-.664 3.048-.268 3.163-.135 6.3-.635 9.35-1.488.853-.111.877-.071 1.205.824.186.513.657 1.036.583 1.488-.124.744-3.301 2.358-1.652 4.774.166.208.057.707-3.849 6.403a2.077 2.077 0 0 0 1.26 3.244c2.976.677 3.524 1.21 6.2-8.129.198-.692.97-1.803 1.24-1.099 4.439 11.582 11.343 12.323 22.352 7.132 7.936-3.739 4.687-.947 12.794-6.539a81 81 0 0 0 7.587-5.325c1.649-1.406 5.014-3.296 5.349-3.75a50.3 50.3 0 0 1 5.64-5.5 13.38 13.38 0 0 0 3.36-9.273 10.9 10.9 0 0 0-1.24-5.781c-5.377-15.455-5.801-6.257 2.106-16.313 9.92-12.606 8.714-13.248 12.347-19.999a124 124 0 0 0 6.463-14.042 49.2 49.2 0 0 1 5.322 11.676c1.736 5.456 2.103 3.765 7.344 13.92.977 1.895 3.256 3.053 9.218 9.831.828.94-4.159 2.388-7.316 9.273-1.024 2.232-6.275 11.921-9.92 20.67-.201.484-.313.34-.66.154a9.9 9.9 0 0 1-3.648-3.593c-.469-.759-2.817-3.023-3.519-3.849-2.961-3.49 3.72-3.544.28-37.907.012-1.346.115-2.69.308-4.023.025-.786-1.121-.823-1.33-.203-1.669 4.901.861 13.278.263 24.522-.711 13.407-4.96 20.336-3.08 30.69.521 2.877-1.282 9.357-2.128 12.152-2.051 6.753-1.143 4.12 0 17.722.31.995.705 1.961 1.181 2.887 1.24 2.944 2.232 2.686 2.405 5.335.301 4.389.923 5.252-.049 7.206-.858 1.736-1.751-1.817-6.426-1.128-3.422.496-17.028 4.087-17.876 4.402-9.037 3.363-10.433 5.719-17.347 6.599-4.757.605-6.448 2.012-11.197 3.351-5.243 1.488-9.563-.397-12.227-.935-5.773-1.171-2.205 2.42-21.908-6.81-5.729-2.684-12.586-5.851-11.53.297.447 4.221-4.07-2.187-2.943-7.752m26.447-32.721c-1.639 4.818-1.545 5.272-2.586 5.047-1.042-.226-1.005-.281-.496-1.183 1.817-3.16 4.253-7.304 3.082-3.864M76.992 342.059c-.441.022-5.704.228-6.128.121-2.492-.608-3.541.851-4.191.551-.446-.206 0-.402.446-3.626a32 32 0 0 1 1.488-8.635c3.812-12.033.677-16.688 2.904-24.684 3.125-11.214 1.183-9.984 2.091-14.674a81.6 81.6 0 0 0 .28-12.608c-.637-11.766-.052-9.955.826-18.459.546-5.29-.61-4.119-.848-11.956a26.56 26.56 0 0 1 3.03-11.001c.27-.653.335-.715.993-.457 11.794 4.727 19.438 9.871 26.647 9.786 4.181-.052 10.632 3.611 17.826.601a41.6 41.6 0 0 1 10.583-2.949c9.064-2.165 10.545-4.98 20.725-7.688 1.815-.484 3.673-.863 5.501-1.364 9.19-2.52 8.871-4.573 18.327 7.452 3.112 3.968 6.567 3.031 10.646 9.399 3.968 6.173 12.244 8.894 15.061 13.477 1.984 3.249 6.434 5.386 8.051 7.482 1.287 1.671-1.856-.347-10.062 9-6.376 7.261-3.675 6.676-9.292 10.756-3.934 2.857-3.663 5.322-6.761 7.809a26.1 26.1 0 0 0-5.416 7.601c-1.255 2.024-.439 3.321-1.3 2.619-3.754-3.077-13.474-9.642-13.536-9.672-5.704-3.115-9.729-8.474-12.439-10.294-4.665-3.13-6.786-.871-13.114-9.829-1.918-2.728-3.673-2.447-6.696-2.871-1.635-.229 1.081-3.72.017-4.182-.858-.372-1.228.191-1.553 1.047-2.462 6.497-1.577 6.468-2.48 14.944-1.617 15.081-7.998 20.438-7.078 27.451 0 8.405-3.008 7.974-1.795 19.159.074 1.949-.081 3.9-.461 5.813-.519 3.514-.516 1.215-4.757 1.912s-4.34-2.344-10.022-2.344c-1.336 0-3.296-.342-3.663-.181-3.5.675-7.098.675-10.6 0-.495-.121-7.027-.084-7.546-.077a49 49 0 0 1-5.694.571zm-.074 16.281c1.272-6.302 2.279-3.968 2.145-10.999 0-.479.154-.786.704-.799 5.938-.124-1.71-2.249 25.257-1.688 2.266.047 2.395-.425 2.398.818.02 12.735-3.046 13.06-4.362 17.682-.075.266-.191.392-.467.248-4.833-2.678-3.841-2.584-10.951-3.492-2.942-.374-3.031-1.654-7.344-2.199-5.83-.752-7.715 2.145-7.37.429zm-3.894 20.217c2.416-9.92 1.873-10.29 2.815-11.264.436-.452.11-1.183-.496-1.488-.057-.028-1.081-.34-1.066-.918.03-1.399.124-2.758 1.049-3.174 3.918-1.764 5.704-2.458 8.015-1.962 2.155.461 2.009-.149 4.04.945 4.595 2.48 7.368.721 11.584 3.199 3.675 2.16 2.864 1.24 3.807 3.043 1.565 2.976-1.58 3.261-2.195 5.704-.937 3.735-3.033 9.689-3.36 10.781-.179.592-.462.788-1.012.55a26.6 26.6 0 0 0-5.555-1.347c-17.834-3.576-19.074 1.91-17.616-4.069zm52.274 79.228q.341-.394.744-.724c1.696 4.323.744 6.805-4.96 6.815-16.167.025-9.233 1.069-20.126-.446a16.5 16.5 0 0 1-8.558-2.354c-5.736-3.888-11.554-.964-14.21-.704-3.852.377-4.464.109-12.103-1.535-1.59-.34-2.953-.868-3.112-2.344-.23-2.15-.826-3.127.397-2.909 5.503.992 17.36 3.428 21.531 2.597 6.661-1.325 9.697 3.196 23.652 3.988 4.27.255 14.213 1.066 16.755-2.384zm-13.792-11.46c1.875.962 3.661 1.578 2.676 2.25-1.403.954-2.48 1.721-2.688.54-.436-2.609-.198-2.361.022-2.79zm-5.833-5.456c.132-.915 2.066.385 2.513 1.488.776 1.905 1.736 2.198-1.012 2.661-.868.147-2.002-.774-1.875-1.619.126-.846.253-1.617.384-2.53zm-4.089-5.208c.88.744 3.365 2.768 2.2 2.803-4.378.134-4.464 0-4.464-.308 1.418-2.252 1.723-2.954 2.264-2.492zm-7.088-10.664c3.301 3.619 1.528 4.164 4.57 8.745.588.885.8.543-1.693 4.097a4.94 4.94 0 0 1-3.279 1.24q-1.321.558-2.552 1.294c-2.09 1.044-1.944-.62-3.08.092-2.038 1.28.209 5.208 2.361 3.72 1.111-.774-.176-.947 1.54-2.2.846-.617 3.891-1.842 3.85-1.101-.026.464-.693 1.488-.908 2.279a2.95 2.95 0 0 1-1.488 1.858c-1.88 1.488.597 4.179 2.415 2.673 1.186-.992-.364-1.188.479-3.184 1.334-3.16 1.374-4.154 2.832-4.075 4.216.228 4.618-.54 4.399.786-.466 2.855-.949 3.147-.317 3.849.382.427-1.265.615-3.323 2.245-.727.511-1.592-.248-2.145 1.522a1.406 1.406 0 0 0 1.487 1.814c.31-.033.599-.167.824-.383.992-.922-.248-.992 2.304-2.358 1.22-.652-.298 2.264-.474 3.254-.444 2.504 3.001 2.006 2.443.21-.337-1.086.099-1.562.496-3.541.288-1.488.397-.496 1.736-.826 1.877-.459 2.48-.836 2.53-.089.384 5.173-.648 2.728-2.151 3.579a1.596 1.596 0 0 0-.605 2.182c1.141 1.984 3.815-2.048 4.526-1.101a2.03 2.03 0 0 1 .161 2.361c-.6 2.708 3.745 2.009 3.128-.097a1.43 1.43 0 0 0-.615-.818c-.71-.437-.355-1.171-.6-1.721-.122-.276 2.452-1.359 2.834-1.488a13 13 0 0 1 4.157.496c1.193 1.217 2.921 1.736 3.74 3.432.217.358.347.762.379 1.179a2.67 2.67 0 0 1-.925 2.226 2.66 2.66 0 0 1-1.104.563 22.3 22.3 0 0 1-9.692.672c-14.383.568-20.583-5.907-28.11-4.087-3.152.761-13.993-1.394-15.198-1.6-9.577-1.634-6.735-.52-6.143-10.45a18.1 18.1 0 0 1 1.099-5.171c.139-.377.302-.496.655-.104 1.051.843 2.256-.295 1.43-1.431-3.266-3.18-.944-8.618-.46-7.133a10.19 10.19 0 0 0 10.23 8.708c3.139-.189 4.421-1.56 5.274-.551a21 21 0 0 0 2.2 2.2.95.95 0 0 0 1.24 0c1.066-.915-2.034-2.818-3.167-5.389a3.31 3.31 0 0 1 .945-4.038c.992-.642 1.118-1.56 2.976-2.289 7.693-3.038 7.425-3.549 8.799-2.041zm-1.77-23.064c-1.114 4.172-.271 1.754-3.4 13.11a30.8 30.8 0 0 0-2.2 8.37c-.038.788-.849 1.135-1.65 1.388-2.05.472-3.224 2.158-4.692 3.403-2.021 1.709-.439 5.682-1.26 5.925-4.516 1.334-8.266 1.287-10.971-3.988-2.381-4.638.035 0 1.793-20.951.915-10.935-.829-10.069 2.386-10.153 3.7-.095 2.911-.839 16.182 1.584 4.099.752 4.005.63 3.821 1.317zm.721-3.373c-.466 2.158.538.167-17.948-1.418-4.479.389-4.687.61-4.647-.248.099-2.304-.236-2.636.647-2.75a27.2 27.2 0 0 1 8.382.176c2.126.031 4.245.251 6.332.657 8.243 2.031 7.857.751 7.244 3.588zm1.622-7.159c-1.458 6.512 1.736 1.919-18.104.873-5.397-.283-6.002.952-5.87-.325.357-3.443.166-3.591 1.039-3.695a60.6 60.6 0 0 1 22.42 2.338q.139.015.26.088a.62.62 0 0 1 .265.726zm.367-2.438a75 75 0 0 0-19.344-2.713c-4.432 0-4.531 1.116-4.4-.744.425-2.535.266-2.309 1.392-2.503 6.663-.17 13.323.45 19.84 1.848 4.498.999 3.754.791 2.522 4.117zm1.458 5.352c-.496-.033-.625-.291-.496-.744.677-2.436 1.101-4.931 1.897-7.339 4.132-12.489 3.368-13.431 4.534-13.64.826-1.155 2.257-1.996 2.162-3.645-.166-2.872-.771-2.763-.424-4.097.992-3.852 3.224-5.067 4.13-11.002.406-2.651.962-2.728 2.861-3.08 10.774-2.053 8.083-1.899 9.856-10.517a29.7 29.7 0 0 0 0-6.944c-.345-6.26 2.517-12.552 2.091-14.88-.658-3.591 1.051-7.837 2.199-10.945 6.414-17.347 3.081-10.044 5.494-27.188.044-.302.21-.518.55-.451 4.387.858 4.774.776 5.808 2.135 8.844 11.599 10.148 6.902 15.034 11.631 10.081 9.764 4.504 4.37 20.388 15.51 8.335 5.848 7.842 7.963 19.059-4.608.414-.463.769-.434 1.101-.077 2.195 2.374 1.312 1.724 2.748 8.217.232 1.714.6 3.406 1.101 5.061a1.17 1.17 0 0 1-.456 1.501c-2.393 1.914-1.047 4.732 0 7.641.297.823.858 1.887 1.721 1.924.496.022 1.644.27 1.788.744 3.318 10.823 2.252 9.045 3.767 13.64 4.06 12.328 4.464 5.972 1.649 25.772-1.736 12.123-2.564 22.66-3.256 25.125-15.612-.488-54.339.261-105.296.261zM361.4 463.69a287 287 0 0 1-33.089-7.971c-15.872-3.886-48.838-10.959-68.944-16.169-6.395-1.659-12.605-2.344-16.638-3.16-4.032-.816-17.072-4.231-22.402-5.104-14.661-2.4-20.467-8.982-16.983-27.446.603-3.199 4.985-48.486 5.952-46.777 1.33 2.348 13.01 21.667 11.145 23.651-1.371 1.456-2.48 5.131-.352 7.034 1.31 1.17 2.339 1.309 2.294 3.553a22.26 22.26 0 0 0 3.249 11.743c3.824 7.574 1.679 2.937 3.043 8.276 2.113 8.278 14.262 3.447 22 .089 3.137-1.361 3.983-7.477 15.242-6.852 11.996.665 15.319-7.162 10.181 2.941-.608 1.193-1.593 1.736-2.009 2.371a5.1 5.1 0 0 1-3.817 2.078c-.496.085-.858 0-.858-.701a.964.964 0 0 0-1.295-.823.96.96 0 0 0-.458.359c-1.273 2.48 2.1 4.6 5.718 2.48 4.261-2.505 8.564-10.124 7.914-17.447-.292-3.34 4.794-12.812-.307-18.65-2.093-2.4-1.451-3.543-4.73-6.051a4.64 4.64 0 0 0-4.065-.803 4.65 4.65 0 0 0-1.869 1.02 4.65 4.65 0 0 0-1.216 1.747c-.248.586.563 1.689 1.431.913.37-.33.866-.873 1.032-1.014a2.978 2.978 0 0 1 3.299-.408c.35.178.662.424.917.723 2.634 2.75 1.808 3.819 4.186 6.011.794.744-1.82.992-3.08.672s-1.828.132-4.727.362c-1.627.129-.037-.776-4.191-1.557-2.145-.402-3.018.972-4.03-.625a6.03 6.03 0 0 0-5.456-2.202c-1.577 0-1.905-1.114-2.634-2.562-.892-1.771-1.951-2.339-3.266-4.521-.469-.776.213.605-3.224-2.887-2.267-2.299-3.516-1.736-5.907-.816-3.827 1.488-2.175 6.436-4.96-4.563-4.868-19.299-1.325-5.468-4.814-23.312-.95-4.861-5.456-17.266-4.29-17.985 2.023-1.24 0-7.378-.605-9.02-.779-2.085-1.793-.781-2.309-2.43-3.11-9.92.295-9.672-1.563-15.225-1.009-3.02-2.088-7.923-4.35-9.62-1.552-1.163-.729 1.034 2.453-33.616 5.208-56.703 7.242-56.103 7.832-65.455.218-3.472.131-4.161 1.27-4.531 11.313-3.66 11.095-4.037 11.001-3.107-1.639 16.286-6.82 52.305-9.734 84.027-1.267 13.777-2.44 17.754 4.025 22.209 3.12 2.15 9.863 1.428 33.15 6.331 4.363.918 3.46-.35 9.191 1.061 2.336.576 4.789.655 6.2 1.035 9.283 2.517 19.215 1.706 40.553 6.093 19.096 3.928 33.421 5.682 34.249 6.255 1.272.88 13.144 2.609 16.824-5.99 3.738-8.709 27.312-242.125 27.893-247.85.342-3.374-.29-7.587-3.157-9.62-2.696-1.913-33.48-3.72-36.967-3.555-10.235.464-22.231-2.06-39.348-2.363-37.408-.665-35.712-2.031-43.117-1.92a53 53 0 0 1-6.084-.389c-15.376.216-14.934.407-17.29 12.616-1.781 9.22-13.467 111.734-13.476 111.984-.04.955-3.614.323-11.58 1.129-.701.069-.334-.216-.037-2.753 1.015-8.68 15.438-132.006 17.777-140.547 3.799-13.868 11.115-11.63 37.522-10.872 10.317.295 11.758-.27 12.199 2.001 3.175 16.301 4.311 9.767 32.682 12.79 1.029.109 5.386.322 7.375.32 23.647-.065 23.808 5.704 32.287-10.327 2.084-3.943 6.429-2.612 10.749-3.053.483-.05 13.714.66 16.665.41 7.473.473 10.61-.112 14.3 2.199 10.391 6.507 5.33 24.706 2.882 58.47-4.415 60.91-15.074 132.073-14.186 141.16.399 4.085-2.859 32.681-2.859 32.736-.496 3.608-4.588 32.652-4.124 41.545a33 33 0 0 1-.767 6.599c-1.118 8.581-.181 5.952-.94 13.333-.439 4.275-3.74 30.553-3.757 30.801-.903 14.201-12.368 101.457-11.924 113.922.315 9.751-7.055 19.207-18.887 17.605zm34.913-53.213c-.647 8.052-.064 1.984-2.887 28.133-1.193 11.056 1.409 16.728-7.388 23.982a14.76 14.76 0 0 1-11.904 2.894c-5.54-.717-4.025.235 1.183-3.609 6.052-4.464 7.011-12.682 7.217-19.773.248-8.231-.104 5.208 3.075-32.044 2.642-30.943 7.44-53.781 7.44-64.056 0-6.614 5.456-43.621 5.303-50.25-.109-4.61 1.24-9.781 1.381-13.92.992-28.867 4.375-36.285 6.468-64.195 1.24-16.554-.576-4.201 1.24-22.709.03-.293 14.729-129.26 16.904-172.206.615-12.172-5.456-15.649-5.64-15.952.342-.114 10.882.372 13.888 6.731a24.6 24.6 0 0 1 2.289 11.049c-.702 33.088-18.652 174.611-17.534 184.353.457 3.955-3.117 34.703-3.117 34.757a55.6 55.6 0 0 0-1.404 8.839 25 25 0 0 0-.191 3.531c.248 1.783-.82 3.909-.912 6.984-.38 12.464-1.543 16.534-1.354 20.165a32.7 32.7 0 0 1-.764 6.626c-1.029 7.795-.248 6.255-.92 13.201 0 .072-.945 8.036-4.928 43.502-.149 1.32-.374 7.849-.637 10.243-.194 1.679-4.487 25.018-6.798 53.729z"/><path fill="#000" d="M60.108 199.821c1.012-.896 3.95 1.562 3.64 4.712-.495 5.012-3.506 10.249-7.826 8.695-.82-.296-.29-1.702.474-1.612a3.79 3.79 0 0 0 4.268-2.366c1.262-2.887 2.338-5.853.158-7.79-.438-.394-1.358-1.066-.714-1.639M58.05 195.404a4.185 4.185 0 0 0-3.72-6.012c-.677-.037-1.35-.163-2.026-.225-.677-.062-.786-1.24-.1-1.33 7.312-.888 7.651 3.944 8.08 5.655-.153 4.245-4.253 6.532-2.398 8.799a1.1 1.1 0 0 1 .345.795 1.1 1.1 0 0 1-.345.794c-.925.566-3.048-1.192-1.852-4.335.166-.486 1.984-4.084 2.016-4.141M53.487 221.466c1.788-.546 2.034 1.24.496 1.736a4.98 4.98 0 0 1-4.58-.296 4.98 4.98 0 0 1-2.389-3.92c-.248-1.907.95-2.284-.55-3.298-3.807-2.575-2.498-4.767-1.858-4.263.992.788 1.01 2.07 2.919 2.914a2.322 2.322 0 0 1 1.282 3.196 3.87 3.87 0 0 0 .456 2.976c.509 1.201 2.887 1.359 4.224.955M52.348 209.227c.539.615.065 2.423-1.91 2.436-3.72.027-6.537-4.901-2.216-8.854 1.386-1.27 2.938.407 1.408 1.054-.702.298-.992.92-1.408 1.431-1.828 2.202 1.689 5.895 2.931 4.097.191-.275.806-.608 1.195-.164"/></svg>